<ttFont>
    <TTGlyph name="A" xMin="6" yMin="0" xMax="598" yMax="645">
      <contour>
        <pt x="433" y="0" on="1"/>
        <pt x="416" y="93" on="1"/>
        <pt x="407" y="130" on="1"/>
        <pt x="291" y="132" on="1"/>
        <pt x="191" y="129" on="1"/>
        <pt x="183" y="103" on="1"/>
        <pt x="165" y="0" on="1"/>
        <pt x="6" y="0" on="1"/>
        <pt x="214" y="645" on="1"/>
        <pt x="409" y="645" on="1"/>
        <pt x="598" y="0" on="1"/>
      </contour>
      <contour>
        <pt x="313" y="497" on="1"/>
        <pt x="303" y="497" on="1"/>
        <pt x="228" y="252" on="1"/>
        <pt x="302" y="250" on="1"/>
        <pt x="376" y="252" on="1"/>
      </contour>
    </TTGlyph>
    <TTGlyph name="AE" xMin="-19" yMin="0" xMax="825" yMax="645">
      <contour>
        <pt x="814" y="0" on="1"/>
        <pt x="406" y="0" on="1"/>
        <pt x="401" y="93" on="1"/>
        <pt x="389" y="202" on="1"/>
        <pt x="192" y="146" on="1"/>
        <pt x="173" y="103" on="1"/>
        <pt x="141" y="0" on="1"/>
        <pt x="-19" y="0" on="1"/>
        <pt x="277" y="645" on="1"/>
        <pt x="750" y="645" on="1"/>
        <pt x="760" y="633" on="1"/>
        <pt x="748" y="513" on="1"/>
        <pt x="595" y="519" on="1"/>
        <pt x="513" y="519" on="1"/>
        <pt x="529" y="366" on="1"/>
        <pt x="713" y="417" on="1"/>
        <pt x="724" y="408" on="1"/>
        <pt x="738" y="295" on="1"/>
        <pt x="541" y="244" on="1"/>
        <pt x="553" y="126" on="1"/>
        <pt x="651" y="126" on="1"/>
        <pt x="815" y="132" on="1"/>
        <pt x="825" y="120" on="1"/>
      </contour>
      <contour>
        <pt x="357" y="497" on="1"/>
        <pt x="347" y="497" on="1"/>
        <pt x="255" y="289" on="1"/>
        <pt x="376" y="323" on="1"/>
      </contour>
    </TTGlyph>
    <TTGlyph name="AEacute" xMin="-19" yMin="0" xMax="825" yMax="900">
      <component glyphName="AE" x="0" y="0" flags="0x1000"/>
      <component glyphName="acute.cap" x="331" y="177" flags="0x1000"/>
    </TTGlyph>
    <TTGlyph name="Aacute" xMin="6" yMin="0" xMax="598" yMax="900">
      <component glyphName="A" x="0" y="0" flags="0x1000"/>
      <component glyphName="acute.cap" x="134" y="177" flags="0x1000"/>
    </TTGlyph>
    <TTGlyph name="Abreve" xMin="6" yMin="0" xMax="598" yMax="881">
      <component glyphName="A" x="0" y="0" flags="0x1000"/>
      <component glyphName="breve.cap" x="113" y="177" flags="0x1000"/>
    </TTGlyph>
    <TTGlyph name="Abreveacute" xMin="6" yMin="0" xMax="598" yMax="1022">
      <component glyphName="A" x="0" y="0" flags="0x1000"/>
      <component glyphName="breveacute" x="113" y="177" flags="0x1000"/>
    </TTGlyph>
    <TTGlyph name="Abrevedotbelow" xMin="6" yMin="-210" xMax="598" yMax="881">
      <contour>
        <pt x="246" y="718" on="0"/>
        <pt x="164" y="777" on="0"/>
        <pt x="145" y="832" on="1"/>
        <pt x="180" y="881" on="1"/>
        <pt x="202" y="881" on="1"/>
        <pt x="232" y="828" on="0"/>
        <pt x="310" y="828" on="1"/>
        <pt x="382" y="828" on="0"/>
        <pt x="412" y="881" on="1"/>
        <pt x="434" y="881" on="1"/>
        <pt x="469" y="832" on="1"/>
        <pt x="449" y="777" on="0"/>
        <pt x="363" y="718" on="0"/>
        <pt x="304" y="718" on="1"/>
      </contour>
      <contour>
        <pt x="433" y="0" on="1"/>
        <pt x="416" y="93" on="1"/>
        <pt x="407" y="130" on="1"/>
        <pt x="292" y="132" on="1"/>
        <pt x="191" y="129" on="1"/>
        <pt x="183" y="103" on="1"/>
        <pt x="165" y="0" on="1"/>
        <pt x="6" y="0" on="1"/>
        <pt x="215" y="645" on="1"/>
        <pt x="409" y="645" on="1"/>
        <pt x="598" y="0" on="1"/>
      </contour>
      <contour>
        <pt x="314" y="497" on="1"/>
        <pt x="303" y="497" on="1"/>
        <pt x="228" y="252" on="1"/>
        <pt x="302" y="250" on="1"/>
        <pt x="376" y="252" on="1"/>
      </contour>
      <contour>
        <pt x="341" y="-44" on="0"/>
        <pt x="382" y="-86" on="0"/>
        <pt x="382" y="-123" on="1"/>
        <pt x="382" y="-163" on="0"/>
        <pt x="336" y="-210" on="0"/>
        <pt x="298" y="-210" on="1"/>
        <pt x="260" y="-210" on="0"/>
        <pt x="220" y="-168" on="0"/>
        <pt x="220" y="-130" on="1"/>
        <pt x="220" y="-91" on="0"/>
        <pt x="265" y="-44" on="0"/>
        <pt x="304" y="-44" on="1"/>
      </contour>
    </TTGlyph>
    <TTGlyph name="Abrevegrave" xMin="6" yMin="0" xMax="598" yMax="1022">
      <component glyphName="A" x="0" y="0" flags="0x1000"/>
      <component glyphName="brevegrave" x="113" y="177" flags="0x1000"/>
    </TTGlyph>
    <TTGlyph name="Abrevehookabove" xMin="6" yMin="0" xMax="598" yMax="1079">
      <contour>
        <pt x="243" y="1009" on="0"/>
        <pt x="212" y="984" on="1"/>
        <pt x="187" y="1024" on="1"/>
        <pt x="237" y="1079" on="0"/>
        <pt x="301" y="1079" on="1"/>
        <pt x="338" y="1079" on="0"/>
        <pt x="389" y="1035" on="0"/>
        <pt x="389" y="1001" on="1"/>
        <pt x="389" y="980" on="0"/>
        <pt x="364" y="943" on="0"/>
        <pt x="331" y="914" on="1"/>
        <pt x="356" y="874" on="1"/>
        <pt x="301" y="841" on="1"/>
        <pt x="254" y="913" on="1"/>
        <pt x="278" y="931" on="0"/>
        <pt x="307" y="971" on="0"/>
        <pt x="307" y="986" on="1"/>
        <pt x="307" y="1009" on="0"/>
        <pt x="278" y="1009" on="1"/>
      </contour>
      <contour>
        <pt x="247" y="698" on="0"/>
        <pt x="165" y="757" on="0"/>
        <pt x="146" y="812" on="1"/>
        <pt x="180" y="861" on="1"/>
        <pt x="202" y="861" on="1"/>
        <pt x="233" y="808" on="0"/>
        <pt x="310" y="808" on="1"/>
        <pt x="382" y="808" on="0"/>
        <pt x="412" y="861" on="1"/>
        <pt x="435" y="861" on="1"/>
        <pt x="469" y="812" on="1"/>
        <pt x="449" y="757" on="0"/>
        <pt x="364" y="698" on="0"/>
        <pt x="305" y="698" on="1"/>
      </contour>
      <contour>
        <pt x="433" y="0" on="1"/>
        <pt x="416" y="93" on="1"/>
        <pt x="407" y="130" on="1"/>
        <pt x="292" y="132" on="1"/>
        <pt x="191" y="129" on="1"/>
        <pt x="183" y="103" on="1"/>
        <pt x="165" y="0" on="1"/>
        <pt x="6" y="0" on="1"/>
        <pt x="215" y="645" on="1"/>
        <pt x="409" y="645" on="1"/>
        <pt x="598" y="0" on="1"/>
      </contour>
      <contour>
        <pt x="314" y="497" on="1"/>
        <pt x="303" y="497" on="1"/>
        <pt x="228" y="252" on="1"/>
        <pt x="302" y="250" on="1"/>
        <pt x="376" y="252" on="1"/>
      </contour>
    </TTGlyph>
    <TTGlyph name="Abrevetilde" xMin="6" yMin="0" xMax="598" yMax="1047">
      <contour>
        <pt x="142" y="920" on="1"/>
        <pt x="142" y="932" on="1"/>
        <pt x="210" y="1024" on="1"/>
        <pt x="223" y="1029" on="1"/>
        <pt x="243" y="1026" on="0"/>
        <pt x="302" y="1011" on="1"/>
        <pt x="354" y="997" on="0"/>
        <pt x="364" y="997" on="1"/>
        <pt x="376" y="997" on="0"/>
        <pt x="399" y="1016" on="0"/>
        <pt x="420" y="1042" on="0"/>
        <pt x="424" y="1047" on="1"/>
        <pt x="437" y="1047" on="1"/>
        <pt x="480" y="1005" on="1"/>
        <pt x="480" y="992" on="1"/>
        <pt x="411" y="901" on="1"/>
        <pt x="398" y="896" on="1"/>
        <pt x="371" y="899" on="0"/>
        <pt x="317" y="915" on="1"/>
        <pt x="271" y="928" on="0"/>
        <pt x="257" y="928" on="1"/>
        <pt x="245" y="928" on="0"/>
        <pt x="224" y="910" on="0"/>
        <pt x="202" y="884" on="0"/>
        <pt x="197" y="878" on="1"/>
        <pt x="185" y="878" on="1"/>
      </contour>
      <contour>
        <pt x="382" y="802" on="0"/>
        <pt x="410" y="853" on="1"/>
        <pt x="431" y="853" on="1"/>
        <pt x="463" y="806" on="1"/>
        <pt x="444" y="754" on="0"/>
        <pt x="364" y="699" on="0"/>
        <pt x="308" y="699" on="1"/>
        <pt x="253" y="699" on="0"/>
        <pt x="175" y="754" on="0"/>
        <pt x="158" y="806" on="1"/>
        <pt x="190" y="853" on="1"/>
        <pt x="211" y="853" on="1"/>
        <pt x="240" y="802" on="0"/>
        <pt x="313" y="802" on="1"/>
      </contour>
      <contour>
        <pt x="433" y="0" on="1"/>
        <pt x="416" y="93" on="1"/>
        <pt x="407" y="130" on="1"/>
        <pt x="292" y="132" on="1"/>
        <pt x="191" y="129" on="1"/>
        <pt x="183" y="103" on="1"/>
        <pt x="165" y="0" on="1"/>
        <pt x="6" y="0" on="1"/>
        <pt x="215" y="645" on="1"/>
        <pt x="409" y="645" on="1"/>
        <pt x="598" y="0" on="1"/>
      </contour>
      <contour>
        <pt x="314" y="497" on="1"/>
        <pt x="303" y="497" on="1"/>
        <pt x="228" y="252" on="1"/>
        <pt x="302" y="250" on="1"/>
        <pt x="376" y="252" on="1"/>
      </contour>
    </TTGlyph>
    <TTGlyph name="Acaron" xMin="6" yMin="0" xMax="598" yMax="888">
      <component glyphName="A" x="0" y="0" flags="0x1000"/>
      <component glyphName="caron.cap" x="114" y="177" flags="0x1000"/>
    </TTGlyph>
    <TTGlyph name="Acircumflex" xMin="6" yMin="0" xMax="598" yMax="898">
      <contour>
        <pt x="151" y="788" on="1"/>
        <pt x="227" y="839" on="0"/>
        <pt x="292" y="898" on="1"/>
        <pt x="322" y="898" on="1"/>
        <pt x="390" y="837" on="0"/>
        <pt x="464" y="788" on="1"/>
        <pt x="436" y="725" on="1"/>
        <pt x="421" y="725" on="1"/>
        <pt x="307" y="787" on="1"/>
        <pt x="324" y="797" on="0"/>
        <pt x="239" y="749" on="1"/>
        <pt x="194" y="725" on="1"/>
        <pt x="179" y="725" on="1"/>
      </contour>
      <contour>
        <pt x="433" y="0" on="1"/>
        <pt x="416" y="93" on="1"/>
        <pt x="407" y="130" on="1"/>
        <pt x="292" y="132" on="1"/>
        <pt x="191" y="129" on="1"/>
        <pt x="183" y="103" on="1"/>
        <pt x="165" y="0" on="1"/>
        <pt x="6" y="0" on="1"/>
        <pt x="215" y="645" on="1"/>
        <pt x="409" y="645" on="1"/>
        <pt x="598" y="0" on="1"/>
      </contour>
      <contour>
        <pt x="314" y="497" on="1"/>
        <pt x="303" y="497" on="1"/>
        <pt x="228" y="252" on="1"/>
        <pt x="302" y="250" on="1"/>
        <pt x="376" y="252" on="1"/>
      </contour>
    </TTGlyph>
    <TTGlyph name="Acircumflexacute" xMin="6" yMin="0" xMax="598" yMax="1018">
      <component glyphName="A" x="0" y="0" flags="0x1000"/>
      <component glyphName="circumflexacute" x="113" y="177" flags="0x1000"/>
    </TTGlyph>
    <TTGlyph name="Acircumflexdotbelow" xMin="6" yMin="-210" xMax="598" yMax="898">
      <contour>
        <pt x="150" y="788" on="1"/>
        <pt x="226" y="839" on="0"/>
        <pt x="291" y="898" on="1"/>
        <pt x="321" y="898" on="1"/>
        <pt x="389" y="837" on="0"/>
        <pt x="463" y="788" on="1"/>
        <pt x="435" y="725" on="1"/>
        <pt x="420" y="725" on="1"/>
        <pt x="306" y="787" on="1"/>
        <pt x="323" y="797" on="0"/>
        <pt x="238" y="749" on="1"/>
        <pt x="193" y="725" on="1"/>
        <pt x="178" y="725" on="1"/>
      </contour>
      <contour>
        <pt x="433" y="0" on="1"/>
        <pt x="416" y="93" on="1"/>
        <pt x="407" y="130" on="1"/>
        <pt x="292" y="132" on="1"/>
        <pt x="191" y="129" on="1"/>
        <pt x="183" y="103" on="1"/>
        <pt x="165" y="0" on="1"/>
        <pt x="6" y="0" on="1"/>
        <pt x="215" y="645" on="1"/>
        <pt x="409" y="645" on="1"/>
        <pt x="598" y="0" on="1"/>
      </contour>
      <contour>
        <pt x="314" y="497" on="1"/>
        <pt x="303" y="497" on="1"/>
        <pt x="228" y="252" on="1"/>
        <pt x="302" y="250" on="1"/>
        <pt x="376" y="252" on="1"/>
      </contour>
      <contour>
        <pt x="341" y="-44" on="0"/>
        <pt x="382" y="-86" on="0"/>
        <pt x="382" y="-123" on="1"/>
        <pt x="382" y="-163" on="0"/>
        <pt x="336" y="-210" on="0"/>
        <pt x="298" y="-210" on="1"/>
        <pt x="260" y="-210" on="0"/>
        <pt x="220" y="-168" on="0"/>
        <pt x="220" y="-130" on="1"/>
        <pt x="220" y="-91" on="0"/>
        <pt x="265" y="-44" on="0"/>
        <pt x="304" y="-44" on="1"/>
      </contour>
    </TTGlyph>
    <TTGlyph name="Acircumflexgrave" xMin="6" yMin="0" xMax="598" yMax="1018">
      <component glyphName="A" x="0" y="0" flags="0x1000"/>
      <component glyphName="circumflexgrave" x="113" y="177" flags="0x1000"/>
    </TTGlyph>
    <TTGlyph name="Acircumflexhookabove" xMin="6" yMin="0" xMax="598" yMax="1064">
      <contour>
        <pt x="358" y="997" on="0"/>
        <pt x="328" y="973" on="1"/>
        <pt x="304" y="1011" on="1"/>
        <pt x="354" y="1064" on="0"/>
        <pt x="413" y="1064" on="1"/>
        <pt x="449" y="1064" on="0"/>
        <pt x="497" y="1023" on="0"/>
        <pt x="497" y="990" on="1"/>
        <pt x="497" y="970" on="0"/>
        <pt x="473" y="934" on="0"/>
        <pt x="442" y="907" on="1"/>
        <pt x="465" y="869" on="1"/>
        <pt x="413" y="838" on="1"/>
        <pt x="368" y="906" on="1"/>
        <pt x="391" y="923" on="0"/>
        <pt x="419" y="961" on="0"/>
        <pt x="419" y="975" on="1"/>
        <pt x="419" y="997" on="0"/>
        <pt x="391" y="997" on="1"/>
      </contour>
      <contour>
        <pt x="150" y="768" on="1"/>
        <pt x="226" y="819" on="0"/>
        <pt x="291" y="878" on="1"/>
        <pt x="321" y="878" on="1"/>
        <pt x="389" y="817" on="0"/>
        <pt x="463" y="768" on="1"/>
        <pt x="435" y="705" on="1"/>
        <pt x="420" y="705" on="1"/>
        <pt x="306" y="767" on="1"/>
        <pt x="323" y="777" on="0"/>
        <pt x="238" y="729" on="1"/>
        <pt x="193" y="705" on="1"/>
        <pt x="178" y="705" on="1"/>
      </contour>
      <contour>
        <pt x="433" y="0" on="1"/>
        <pt x="416" y="93" on="1"/>
        <pt x="407" y="130" on="1"/>
        <pt x="292" y="132" on="1"/>
        <pt x="191" y="129" on="1"/>
        <pt x="183" y="103" on="1"/>
        <pt x="165" y="0" on="1"/>
        <pt x="6" y="0" on="1"/>
        <pt x="215" y="645" on="1"/>
        <pt x="409" y="645" on="1"/>
        <pt x="598" y="0" on="1"/>
      </contour>
      <contour>
        <pt x="314" y="497" on="1"/>
        <pt x="303" y="497" on="1"/>
        <pt x="228" y="252" on="1"/>
        <pt x="302" y="250" on="1"/>
        <pt x="376" y="252" on="1"/>
      </contour>
    </TTGlyph>
    <TTGlyph name="Acircumflextilde" xMin="6" yMin="0" xMax="598" yMax="1047">
      <contour>
        <pt x="142" y="920" on="1"/>
        <pt x="142" y="932" on="1"/>
        <pt x="210" y="1024" on="1"/>
        <pt x="223" y="1029" on="1"/>
        <pt x="243" y="1026" on="0"/>
        <pt x="302" y="1011" on="1"/>
        <pt x="354" y="997" on="0"/>
        <pt x="364" y="997" on="1"/>
        <pt x="376" y="997" on="0"/>
        <pt x="399" y="1016" on="0"/>
        <pt x="420" y="1042" on="0"/>
        <pt x="424" y="1047" on="1"/>
        <pt x="437" y="1047" on="1"/>
        <pt x="480" y="1005" on="1"/>
        <pt x="480" y="992" on="1"/>
        <pt x="411" y="901" on="1"/>
        <pt x="398" y="896" on="1"/>
        <pt x="371" y="899" on="0"/>
        <pt x="317" y="915" on="1"/>
        <pt x="271" y="928" on="0"/>
        <pt x="257" y="928" on="1"/>
        <pt x="245" y="928" on="0"/>
        <pt x="224" y="910" on="0"/>
        <pt x="202" y="884" on="0"/>
        <pt x="197" y="878" on="1"/>
        <pt x="185" y="878" on="1"/>
      </contour>
      <contour>
        <pt x="389" y="817" on="0"/>
        <pt x="463" y="768" on="1"/>
        <pt x="435" y="705" on="1"/>
        <pt x="420" y="705" on="1"/>
        <pt x="306" y="767" on="1"/>
        <pt x="323" y="777" on="0"/>
        <pt x="238" y="729" on="1"/>
        <pt x="193" y="705" on="1"/>
        <pt x="178" y="705" on="1"/>
        <pt x="150" y="768" on="1"/>
        <pt x="226" y="819" on="0"/>
        <pt x="291" y="878" on="1"/>
        <pt x="321" y="878" on="1"/>
      </contour>
      <contour>
        <pt x="433" y="0" on="1"/>
        <pt x="416" y="93" on="1"/>
        <pt x="407" y="130" on="1"/>
        <pt x="292" y="132" on="1"/>
        <pt x="191" y="129" on="1"/>
        <pt x="183" y="103" on="1"/>
        <pt x="165" y="0" on="1"/>
        <pt x="6" y="0" on="1"/>
        <pt x="215" y="645" on="1"/>
        <pt x="409" y="645" on="1"/>
        <pt x="598" y="0" on="1"/>
      </contour>
      <contour>
        <pt x="314" y="497" on="1"/>
        <pt x="303" y="497" on="1"/>
        <pt x="228" y="252" on="1"/>
        <pt x="302" y="250" on="1"/>
        <pt x="376" y="252" on="1"/>
      </contour>
    </TTGlyph>
    <TTGlyph name="Adieresis" xMin="6" yMin="0" xMax="598" yMax="875">
      <contour>
        <pt x="181" y="726" on="0"/>
        <pt x="144" y="763" on="0"/>
        <pt x="144" y="797" on="1"/>
        <pt x="144" y="833" on="0"/>
        <pt x="185" y="875" on="0"/>
        <pt x="220" y="875" on="1"/>
        <pt x="253" y="875" on="0"/>
        <pt x="290" y="837" on="0"/>
        <pt x="290" y="804" on="1"/>
        <pt x="290" y="768" on="0"/>
        <pt x="250" y="726" on="0"/>
        <pt x="215" y="726" on="1"/>
      </contour>
      <contour>
        <pt x="363" y="726" on="0"/>
        <pt x="326" y="763" on="0"/>
        <pt x="326" y="797" on="1"/>
        <pt x="326" y="833" on="0"/>
        <pt x="367" y="875" on="0"/>
        <pt x="402" y="875" on="1"/>
        <pt x="435" y="875" on="0"/>
        <pt x="472" y="837" on="0"/>
        <pt x="472" y="804" on="1"/>
        <pt x="472" y="768" on="0"/>
        <pt x="432" y="726" on="0"/>
        <pt x="397" y="726" on="1"/>
      </contour>
      <contour>
        <pt x="433" y="0" on="1"/>
        <pt x="416" y="93" on="1"/>
        <pt x="407" y="130" on="1"/>
        <pt x="292" y="132" on="1"/>
        <pt x="191" y="129" on="1"/>
        <pt x="183" y="103" on="1"/>
        <pt x="165" y="0" on="1"/>
        <pt x="6" y="0" on="1"/>
        <pt x="215" y="645" on="1"/>
        <pt x="409" y="645" on="1"/>
        <pt x="598" y="0" on="1"/>
      </contour>
      <contour>
        <pt x="314" y="497" on="1"/>
        <pt x="303" y="497" on="1"/>
        <pt x="228" y="252" on="1"/>
        <pt x="302" y="250" on="1"/>
        <pt x="376" y="252" on="1"/>
      </contour>
    </TTGlyph>
    <TTGlyph name="Adotbelow" xMin="6" yMin="-210" xMax="598" yMax="645">
      <contour>
        <pt x="433" y="0" on="1"/>
        <pt x="416" y="93" on="1"/>
        <pt x="407" y="130" on="1"/>
        <pt x="292" y="132" on="1"/>
        <pt x="191" y="129" on="1"/>
        <pt x="183" y="103" on="1"/>
        <pt x="165" y="0" on="1"/>
        <pt x="6" y="0" on="1"/>
        <pt x="215" y="645" on="1"/>
        <pt x="409" y="645" on="1"/>
        <pt x="598" y="0" on="1"/>
      </contour>
      <contour>
        <pt x="314" y="497" on="1"/>
        <pt x="303" y="497" on="1"/>
        <pt x="228" y="252" on="1"/>
        <pt x="302" y="250" on="1"/>
        <pt x="376" y="252" on="1"/>
      </contour>
      <contour>
        <pt x="341" y="-44" on="0"/>
        <pt x="382" y="-86" on="0"/>
        <pt x="382" y="-123" on="1"/>
        <pt x="382" y="-163" on="0"/>
        <pt x="336" y="-210" on="0"/>
        <pt x="298" y="-210" on="1"/>
        <pt x="260" y="-210" on="0"/>
        <pt x="220" y="-168" on="0"/>
        <pt x="220" y="-130" on="1"/>
        <pt x="220" y="-91" on="0"/>
        <pt x="265" y="-44" on="0"/>
        <pt x="304" y="-44" on="1"/>
      </contour>
    </TTGlyph>
    <TTGlyph name="Agrave" xMin="6" yMin="0" xMax="598" yMax="900">
      <contour>
        <pt x="272" y="755" on="0"/>
        <pt x="179" y="789" on="1"/>
        <pt x="174" y="802" on="1"/>
        <pt x="214" y="897" on="1"/>
        <pt x="228" y="900" on="1"/>
        <pt x="335" y="837" on="0"/>
        <pt x="443" y="784" on="1"/>
        <pt x="418" y="718" on="1"/>
        <pt x="403" y="714" on="1"/>
      </contour>
      <contour>
        <pt x="433" y="0" on="1"/>
        <pt x="416" y="93" on="1"/>
        <pt x="407" y="130" on="1"/>
        <pt x="292" y="132" on="1"/>
        <pt x="191" y="129" on="1"/>
        <pt x="183" y="103" on="1"/>
        <pt x="165" y="0" on="1"/>
        <pt x="6" y="0" on="1"/>
        <pt x="215" y="645" on="1"/>
        <pt x="409" y="645" on="1"/>
        <pt x="598" y="0" on="1"/>
      </contour>
      <contour>
        <pt x="314" y="497" on="1"/>
        <pt x="303" y="497" on="1"/>
        <pt x="228" y="252" on="1"/>
        <pt x="302" y="250" on="1"/>
        <pt x="376" y="252" on="1"/>
      </contour>
    </TTGlyph>
    <TTGlyph name="Ahookabove" xMin="6" yMin="0" xMax="598" yMax="931">
      <component glyphName="A" x="0" y="0" flags="0x1000"/>
      <component glyphName="hookabove" x="112" y="177" flags="0x1000"/>
    </TTGlyph>
    <TTGlyph name="Amacron" xMin="6" yMin="0" xMax="598" yMax="850">
      <component glyphName="A" x="0" y="0" flags="0x1000"/>
      <component glyphName="macron" x="112" y="177" flags="0x1000"/>
    </TTGlyph>
    <TTGlyph name="Aogonek" xMin="6" yMin="-197" xMax="626" yMax="645">
      <contour>
        <pt x="568" y="-197" on="0"/>
        <pt x="518" y="-197" on="1"/>
        <pt x="474" y="-197" on="0"/>
        <pt x="423" y="-146" on="0"/>
        <pt x="423" y="-104" on="1"/>
        <pt x="423" y="-58" on="0"/>
        <pt x="470" y="0" on="1"/>
        <pt x="433" y="0" on="1"/>
        <pt x="416" y="93" on="1"/>
        <pt x="407" y="130" on="1"/>
        <pt x="292" y="132" on="1"/>
        <pt x="191" y="129" on="1"/>
        <pt x="183" y="103" on="1"/>
        <pt x="165" y="0" on="1"/>
        <pt x="6" y="0" on="1"/>
        <pt x="215" y="645" on="1"/>
        <pt x="409" y="645" on="1"/>
        <pt x="598" y="0" on="1"/>
        <pt x="544" y="0" on="1"/>
        <pt x="506" y="-51" on="0"/>
        <pt x="506" y="-80" on="1"/>
        <pt x="506" y="-113" on="0"/>
        <pt x="541" y="-113" on="1"/>
        <pt x="570" y="-113" on="0"/>
        <pt x="606" y="-87" on="1"/>
        <pt x="614" y="-87" on="1"/>
        <pt x="626" y="-149" on="1"/>
      </contour>
      <contour>
        <pt x="314" y="497" on="1"/>
        <pt x="303" y="497" on="1"/>
        <pt x="228" y="252" on="1"/>
        <pt x="302" y="250" on="1"/>
        <pt x="376" y="252" on="1"/>
      </contour>
    </TTGlyph>
    <TTGlyph name="Aring" xMin="6" yMin="0" xMax="598" yMax="914">
      <component glyphName="A" x="0" y="0" flags="0x1000"/>
      <component glyphName="ring" x="113" y="177" flags="0x1000"/>
    </TTGlyph>
    <TTGlyph name="Aringacute" xMin="6" yMin="0" xMax="598" yMax="953">
      <contour>
        <pt x="201" y="870" on="1"/>
        <pt x="320" y="909" on="0"/>
        <pt x="431" y="953" on="1"/>
        <pt x="444" y="948" on="1"/>
        <pt x="470" y="849" on="1"/>
        <pt x="463" y="836" on="1"/>
        <pt x="368" y="817" on="0"/>
        <pt x="230" y="795" on="1"/>
        <pt x="216" y="801" on="1"/>
      </contour>
      <contour>
        <pt x="433" y="0" on="1"/>
        <pt x="416" y="90" on="1"/>
        <pt x="406" y="127" on="1"/>
        <pt x="292" y="129" on="1"/>
        <pt x="191" y="126" on="1"/>
        <pt x="183" y="100" on="1"/>
        <pt x="165" y="0" on="1"/>
        <pt x="6" y="0" on="1"/>
        <pt x="222" y="626" on="1"/>
        <pt x="210" y="647" on="0"/>
        <pt x="210" y="680" on="1"/>
        <pt x="210" y="730" on="0"/>
        <pt x="264" y="782" on="0"/>
        <pt x="315" y="782" on="1"/>
        <pt x="364" y="782" on="0"/>
        <pt x="414" y="732" on="0"/>
        <pt x="414" y="686" on="1"/>
        <pt x="414" y="651" on="0"/>
        <pt x="401" y="628" on="1"/>
        <pt x="598" y="0" on="1"/>
      </contour>
      <contour>
        <pt x="274" y="717" on="0"/>
        <pt x="274" y="683" on="1"/>
        <pt x="274" y="645" on="0"/>
        <pt x="313" y="645" on="1"/>
        <pt x="350" y="645" on="0"/>
        <pt x="350" y="680" on="1"/>
        <pt x="350" y="717" on="0"/>
        <pt x="311" y="717" on="1"/>
      </contour>
      <contour>
        <pt x="314" y="483" on="1"/>
        <pt x="303" y="483" on="1"/>
        <pt x="228" y="245" on="1"/>
        <pt x="302" y="244" on="1"/>
        <pt x="376" y="245" on="1"/>
      </contour>
    </TTGlyph>
    <TTGlyph name="Atilde" xMin="6" yMin="0" xMax="598" yMax="895">
      <component glyphName="A" x="0" y="0" flags="0x1000"/>
      <component glyphName="tilde" x="113" y="177" flags="0x1000"/>
    </TTGlyph>
    <TTGlyph name="B" xMin="70" yMin="-6" xMax="570" yMax="646">
      <contour>
        <pt x="510" y="317" on="0"/>
        <pt x="570" y="244" on="0"/>
        <pt x="570" y="184" on="1"/>
        <pt x="570" y="-6" on="0"/>
        <pt x="262" y="-6" on="1"/>
        <pt x="162" y="-6" on="0"/>
        <pt x="71" y="0" on="1"/>
        <pt x="70" y="0" on="1"/>
        <pt x="79" y="191" on="1"/>
        <pt x="70" y="645" on="1"/>
        <pt x="324" y="646" on="1"/>
        <pt x="427" y="646" on="0"/>
        <pt x="543" y="562" on="0"/>
        <pt x="543" y="483" on="1"/>
        <pt x="543" y="432" on="0"/>
        <pt x="492" y="355" on="0"/>
        <pt x="445" y="333" on="1"/>
      </contour>
      <contour>
        <pt x="378" y="502" on="0"/>
        <pt x="327" y="534" on="0"/>
        <pt x="261" y="534" on="1"/>
        <pt x="229" y="534" on="1"/>
        <pt x="225" y="377" on="1"/>
        <pt x="311" y="373" on="1"/>
        <pt x="345" y="383" on="0"/>
        <pt x="378" y="425" on="0"/>
        <pt x="378" y="461" on="1"/>
      </contour>
      <contour>
        <pt x="346" y="106" on="0"/>
        <pt x="406" y="150" on="0"/>
        <pt x="406" y="191" on="1"/>
        <pt x="406" y="222" on="0"/>
        <pt x="368" y="259" on="0"/>
        <pt x="328" y="268" on="1"/>
        <pt x="223" y="266" on="1"/>
        <pt x="222" y="207" on="1"/>
        <pt x="225" y="110" on="1"/>
        <pt x="277" y="106" on="0"/>
        <pt x="292" y="106" on="1"/>
      </contour>
    </TTGlyph>
    <TTGlyph name="C" xMin="24" yMin="-10" xMax="509" yMax="654">
      <contour>
        <pt x="434" y="654" on="0"/>
        <pt x="509" y="621" on="1"/>
        <pt x="480" y="488" on="1"/>
        <pt x="469" y="482" on="1"/>
        <pt x="408" y="522" on="0"/>
        <pt x="336" y="522" on="1"/>
        <pt x="264" y="522" on="0"/>
        <pt x="195" y="432" on="0"/>
        <pt x="195" y="335" on="1"/>
        <pt x="195" y="125" on="0"/>
        <pt x="344" y="125" on="1"/>
        <pt x="416" y="125" on="0"/>
        <pt x="481" y="159" on="1"/>
        <pt x="495" y="151" on="1"/>
        <pt x="482" y="18" on="1"/>
        <pt x="412" y="-10" on="0"/>
        <pt x="331" y="-10" on="1"/>
        <pt x="180" y="-10" on="0"/>
        <pt x="24" y="158" on="0"/>
        <pt x="24" y="317" on="1"/>
        <pt x="24" y="478" on="0"/>
        <pt x="190" y="654" on="0"/>
        <pt x="342" y="654" on="1"/>
      </contour>
    </TTGlyph>
    <TTGlyph name="C.ss01" xMin="-100" yMin="0" xMax="551" yMax="508">
      <contour>
        <pt x="236" y="388" on="0"/>
        <pt x="186" y="330" on="0"/>
        <pt x="186" y="266" on="1"/>
        <pt x="186" y="121" on="0"/>
        <pt x="296" y="121" on="1"/>
        <pt x="350" y="121" on="0"/>
        <pt x="402" y="142" on="1"/>
        <pt x="414" y="135" on="1"/>
        <pt x="406" y="55" on="1"/>
        <pt x="551" y="55" on="1"/>
        <pt x="551" y="0" on="1"/>
        <pt x="-100" y="0" on="1"/>
        <pt x="-100" y="55" on="1"/>
        <pt x="109" y="55" on="1"/>
        <pt x="34" y="118" on="0"/>
        <pt x="34" y="249" on="1"/>
        <pt x="34" y="387" on="0"/>
        <pt x="120" y="453" on="1"/>
        <pt x="-100" y="453" on="1"/>
        <pt x="-100" y="508" on="1"/>
        <pt x="551" y="508" on="1"/>
        <pt x="551" y="453" on="1"/>
        <pt x="420" y="453" on="1"/>
        <pt x="402" y="366" on="1"/>
        <pt x="392" y="360" on="1"/>
        <pt x="346" y="388" on="0"/>
        <pt x="288" y="388" on="1"/>
      </contour>
    </TTGlyph>
    <TTGlyph name="Cacute" xMin="24" yMin="-10" xMax="509" yMax="900">
      <component glyphName="C" x="0" y="0" flags="0x1000"/>
      <component glyphName="acute.cap" x="143" y="177" flags="0x1000"/>
    </TTGlyph>
    <TTGlyph name="Ccaron" xMin="24" yMin="-10" xMax="509" yMax="888">
      <component glyphName="C" x="0" y="0" flags="0x1000"/>
      <component glyphName="caron.cap" x="123" y="177" flags="0x1000"/>
    </TTGlyph>
    <TTGlyph name="Ccedilla" xMin="24" yMin="-203" xMax="509" yMax="654">
      <contour>
        <pt x="418" y="125" on="0"/>
        <pt x="481" y="159" on="1"/>
        <pt x="495" y="151" on="1"/>
        <pt x="482" y="18" on="1"/>
        <pt x="420" y="-7" on="0"/>
        <pt x="348" y="-10" on="1"/>
        <pt x="340" y="-45" on="1"/>
        <pt x="374" y="-64" on="1"/>
        <pt x="416" y="-86" on="0"/>
        <pt x="416" y="-125" on="1"/>
        <pt x="416" y="-159" on="0"/>
        <pt x="361" y="-203" on="0"/>
        <pt x="315" y="-203" on="1"/>
        <pt x="271" y="-203" on="0"/>
        <pt x="229" y="-177" on="1"/>
        <pt x="239" y="-113" on="1"/>
        <pt x="246" y="-110" on="1"/>
        <pt x="277" y="-139" on="0"/>
        <pt x="305" y="-139" on="1"/>
        <pt x="326" y="-139" on="0"/>
        <pt x="326" y="-121" on="1"/>
        <pt x="326" y="-111" on="0"/>
        <pt x="311" y="-103" on="1"/>
        <pt x="262" y="-76" on="1"/>
        <pt x="277" y="-7" on="1"/>
        <pt x="152" y="7" on="0"/>
        <pt x="24" y="173" on="0"/>
        <pt x="24" y="317" on="1"/>
        <pt x="24" y="478" on="0"/>
        <pt x="191" y="654" on="0"/>
        <pt x="343" y="654" on="1"/>
        <pt x="434" y="654" on="0"/>
        <pt x="509" y="621" on="1"/>
        <pt x="481" y="488" on="1"/>
        <pt x="469" y="482" on="1"/>
        <pt x="410" y="522" on="0"/>
        <pt x="336" y="522" on="1"/>
        <pt x="265" y="522" on="0"/>
        <pt x="195" y="432" on="0"/>
        <pt x="195" y="335" on="1"/>
        <pt x="195" y="125" on="0"/>
        <pt x="344" y="125" on="1"/>
      </contour>
    </TTGlyph>
    <TTGlyph name="Ccircumflex" xMin="24" yMin="-10" xMax="509" yMax="898">
      <contour>
        <pt x="236" y="839" on="0"/>
        <pt x="301" y="898" on="1"/>
        <pt x="331" y="898" on="1"/>
        <pt x="399" y="837" on="0"/>
        <pt x="473" y="788" on="1"/>
        <pt x="445" y="725" on="1"/>
        <pt x="430" y="725" on="1"/>
        <pt x="316" y="787" on="1"/>
        <pt x="333" y="797" on="0"/>
        <pt x="248" y="749" on="1"/>
        <pt x="203" y="725" on="1"/>
        <pt x="188" y="725" on="1"/>
        <pt x="160" y="788" on="1"/>
      </contour>
      <contour>
        <pt x="434" y="654" on="0"/>
        <pt x="509" y="621" on="1"/>
        <pt x="481" y="488" on="1"/>
        <pt x="469" y="482" on="1"/>
        <pt x="410" y="522" on="0"/>
        <pt x="336" y="522" on="1"/>
        <pt x="265" y="522" on="0"/>
        <pt x="195" y="432" on="0"/>
        <pt x="195" y="335" on="1"/>
        <pt x="195" y="125" on="0"/>
        <pt x="344" y="125" on="1"/>
        <pt x="418" y="125" on="0"/>
        <pt x="481" y="159" on="1"/>
        <pt x="495" y="151" on="1"/>
        <pt x="482" y="18" on="1"/>
        <pt x="412" y="-10" on="0"/>
        <pt x="331" y="-10" on="1"/>
        <pt x="180" y="-10" on="0"/>
        <pt x="24" y="158" on="0"/>
        <pt x="24" y="317" on="1"/>
        <pt x="24" y="478" on="0"/>
        <pt x="191" y="654" on="0"/>
        <pt x="343" y="654" on="1"/>
      </contour>
    </TTGlyph>
    <TTGlyph name="Cdotaccent" xMin="24" yMin="-10" xMax="509" yMax="885">
      <contour>
        <pt x="356" y="885" on="0"/>
        <pt x="397" y="843" on="0"/>
        <pt x="397" y="806" on="1"/>
        <pt x="397" y="766" on="0"/>
        <pt x="351" y="719" on="0"/>
        <pt x="313" y="719" on="1"/>
        <pt x="275" y="719" on="0"/>
        <pt x="235" y="761" on="0"/>
        <pt x="235" y="799" on="1"/>
        <pt x="235" y="838" on="0"/>
        <pt x="280" y="885" on="0"/>
        <pt x="319" y="885" on="1"/>
      </contour>
      <contour>
        <pt x="434" y="654" on="0"/>
        <pt x="509" y="621" on="1"/>
        <pt x="481" y="488" on="1"/>
        <pt x="469" y="482" on="1"/>
        <pt x="410" y="522" on="0"/>
        <pt x="336" y="522" on="1"/>
        <pt x="265" y="522" on="0"/>
        <pt x="195" y="432" on="0"/>
        <pt x="195" y="335" on="1"/>
        <pt x="195" y="125" on="0"/>
        <pt x="344" y="125" on="1"/>
        <pt x="418" y="125" on="0"/>
        <pt x="481" y="159" on="1"/>
        <pt x="495" y="151" on="1"/>
        <pt x="482" y="18" on="1"/>
        <pt x="412" y="-10" on="0"/>
        <pt x="331" y="-10" on="1"/>
        <pt x="180" y="-10" on="0"/>
        <pt x="24" y="158" on="0"/>
        <pt x="24" y="317" on="1"/>
        <pt x="24" y="478" on="0"/>
        <pt x="191" y="654" on="0"/>
        <pt x="343" y="654" on="1"/>
      </contour>
    </TTGlyph>
    <TTGlyph name="D" xMin="70" yMin="-8" xMax="635" yMax="649">
      <contour>
        <pt x="485" y="649" on="0"/>
        <pt x="635" y="494" on="0"/>
        <pt x="635" y="348" on="1"/>
        <pt x="635" y="176" on="0"/>
        <pt x="463" y="-8" on="0"/>
        <pt x="303" y="-8" on="1"/>
        <pt x="211" y="-8" on="0"/>
        <pt x="71" y="0" on="1"/>
        <pt x="70" y="0" on="1"/>
        <pt x="79" y="191" on="1"/>
        <pt x="70" y="645" on="1"/>
        <pt x="71" y="645" on="1"/>
        <pt x="343" y="649" on="1"/>
      </contour>
      <contour>
        <pt x="466" y="115" on="0"/>
        <pt x="466" y="309" on="1"/>
        <pt x="466" y="423" on="0"/>
        <pt x="402" y="521" on="0"/>
        <pt x="330" y="521" on="1"/>
        <pt x="277" y="521" on="0"/>
        <pt x="233" y="517" on="1"/>
        <pt x="227" y="207" on="1"/>
        <pt x="229" y="123" on="1"/>
        <pt x="288" y="115" on="0"/>
        <pt x="333" y="115" on="1"/>
      </contour>
    </TTGlyph>
    <TTGlyph name="D.ss01" xMin="-100" yMin="0" xMax="672" yMax="508">
      <contour>
        <pt x="464" y="453" on="1"/>
        <pt x="537" y="394" on="0"/>
        <pt x="537" y="273" on="1"/>
        <pt x="537" y="126" on="0"/>
        <pt x="448" y="55" on="1"/>
        <pt x="672" y="55" on="1"/>
        <pt x="672" y="0" on="1"/>
        <pt x="-100" y="0" on="1"/>
        <pt x="-100" y="55" on="1"/>
        <pt x="75" y="55" on="1"/>
        <pt x="80" y="152" on="1"/>
        <pt x="74" y="453" on="1"/>
        <pt x="-100" y="453" on="1"/>
        <pt x="-100" y="508" on="1"/>
        <pt x="672" y="508" on="1"/>
        <pt x="672" y="453" on="1"/>
      </contour>
      <contour>
        <pt x="259" y="110" on="0"/>
        <pt x="292" y="110" on="1"/>
        <pt x="386" y="110" on="0"/>
        <pt x="386" y="238" on="1"/>
        <pt x="386" y="320" on="0"/>
        <pt x="341" y="387" on="0"/>
        <pt x="288" y="387" on="1"/>
        <pt x="256" y="387" on="0"/>
        <pt x="218" y="384" on="1"/>
        <pt x="212" y="167" on="1"/>
        <pt x="214" y="117" on="1"/>
      </contour>
    </TTGlyph>
    <TTGlyph name="Dcaron" xMin="70" yMin="-8" xMax="635" yMax="888">
      <component glyphName="D" x="0" y="0" flags="0x1000"/>
      <component glyphName="caron.cap" x="130" y="177" flags="0x1000"/>
    </TTGlyph>
    <TTGlyph name="Dcroat" xMin="70" yMin="-8" xMax="635" yMax="850">
      <component glyphName="D" x="0" y="0" flags="0x1000"/>
      <component glyphName="macron" x="129" y="177" flags="0x1000"/>
    </TTGlyph>
    <TTGlyph name="Delta" xMin="6" yMin="0" xMax="598" yMax="645">
      <contour>
        <pt x="6" y="0" on="1"/>
        <pt x="214" y="645" on="1"/>
        <pt x="409" y="645" on="1"/>
        <pt x="598" y="0" on="1"/>
      </contour>
      <contour>
        <pt x="188" y="121" on="1"/>
        <pt x="410" y="121" on="1"/>
        <pt x="313" y="497" on="1"/>
        <pt x="303" y="497" on="1"/>
      </contour>
    </TTGlyph>
    <TTGlyph name="E" xMin="70" yMin="0" xMax="511" yMax="645">
      <contour>
        <pt x="506" y="120" on="1"/>
        <pt x="496" y="0" on="1"/>
        <pt x="70" y="0" on="1"/>
        <pt x="79" y="191" on="1"/>
        <pt x="70" y="645" on="1"/>
        <pt x="502" y="645" on="1"/>
        <pt x="511" y="633" on="1"/>
        <pt x="500" y="513" on="1"/>
        <pt x="343" y="519" on="1"/>
        <pt x="233" y="518" on="1"/>
        <pt x="231" y="389" on="1"/>
        <pt x="336" y="389" on="1"/>
        <pt x="441" y="392" on="1"/>
        <pt x="450" y="380" on="1"/>
        <pt x="440" y="260" on="1"/>
        <pt x="325" y="263" on="1"/>
        <pt x="228" y="263" on="1"/>
        <pt x="227" y="207" on="1"/>
        <pt x="229" y="127" on="1"/>
        <pt x="335" y="126" on="1"/>
        <pt x="497" y="132" on="1"/>
      </contour>
    </TTGlyph>
    <TTGlyph name="Eacute" xMin="70" yMin="0" xMax="511" yMax="900">
      <component glyphName="E" x="0" y="0" flags="0x1000"/>
      <component glyphName="acute.cap" x="114" y="177" flags="0x1000"/>
    </TTGlyph>
    <TTGlyph name="Ebreve" xMin="70" yMin="0" xMax="511" yMax="881">
      <component glyphName="E" x="0" y="0" flags="0x1000"/>
      <component glyphName="breve.cap" x="92" y="177" flags="0x1000"/>
    </TTGlyph>
    <TTGlyph name="Ecaron" xMin="70" yMin="0" xMax="511" yMax="888">
      <component glyphName="E" x="0" y="0" flags="0x1000"/>
      <component glyphName="caron.cap" x="93" y="177" flags="0x1000"/>
    </TTGlyph>
    <TTGlyph name="Ecircumflex" xMin="70" yMin="0" xMax="510" yMax="898">
      <contour>
        <pt x="130" y="788" on="1"/>
        <pt x="206" y="839" on="0"/>
        <pt x="271" y="898" on="1"/>
        <pt x="301" y="898" on="1"/>
        <pt x="369" y="837" on="0"/>
        <pt x="443" y="788" on="1"/>
        <pt x="415" y="725" on="1"/>
        <pt x="400" y="725" on="1"/>
        <pt x="286" y="787" on="1"/>
        <pt x="303" y="797" on="0"/>
        <pt x="218" y="749" on="1"/>
        <pt x="173" y="725" on="1"/>
        <pt x="158" y="725" on="1"/>
      </contour>
      <contour>
        <pt x="506" y="120" on="1"/>
        <pt x="496" y="0" on="1"/>
        <pt x="70" y="0" on="1"/>
        <pt x="79" y="191" on="1"/>
        <pt x="70" y="645" on="1"/>
        <pt x="501" y="645" on="1"/>
        <pt x="510" y="633" on="1"/>
        <pt x="499" y="513" on="1"/>
        <pt x="343" y="519" on="1"/>
        <pt x="232" y="518" on="1"/>
        <pt x="230" y="389" on="1"/>
        <pt x="336" y="389" on="1"/>
        <pt x="441" y="392" on="1"/>
        <pt x="450" y="380" on="1"/>
        <pt x="440" y="260" on="1"/>
        <pt x="325" y="263" on="1"/>
        <pt x="227" y="263" on="1"/>
        <pt x="226" y="207" on="1"/>
        <pt x="229" y="127" on="1"/>
        <pt x="335" y="126" on="1"/>
        <pt x="497" y="132" on="1"/>
      </contour>
    </TTGlyph>
    <TTGlyph name="Ecircumflexacute" xMin="70" yMin="0" xMax="511" yMax="1018">
      <component glyphName="E" x="0" y="0" flags="0x1000"/>
      <component glyphName="circumflexacute" x="92" y="177" flags="0x1000"/>
    </TTGlyph>
    <TTGlyph name="Ecircumflexdotbelow" xMin="70" yMin="-210" xMax="510" yMax="898">
      <contour>
        <pt x="130" y="788" on="1"/>
        <pt x="206" y="839" on="0"/>
        <pt x="271" y="898" on="1"/>
        <pt x="301" y="898" on="1"/>
        <pt x="369" y="837" on="0"/>
        <pt x="443" y="788" on="1"/>
        <pt x="415" y="725" on="1"/>
        <pt x="400" y="725" on="1"/>
        <pt x="286" y="787" on="1"/>
        <pt x="303" y="797" on="0"/>
        <pt x="218" y="749" on="1"/>
        <pt x="173" y="725" on="1"/>
        <pt x="158" y="725" on="1"/>
      </contour>
      <contour>
        <pt x="506" y="120" on="1"/>
        <pt x="496" y="0" on="1"/>
        <pt x="70" y="0" on="1"/>
        <pt x="79" y="191" on="1"/>
        <pt x="70" y="645" on="1"/>
        <pt x="501" y="645" on="1"/>
        <pt x="510" y="633" on="1"/>
        <pt x="499" y="513" on="1"/>
        <pt x="343" y="519" on="1"/>
        <pt x="232" y="518" on="1"/>
        <pt x="230" y="389" on="1"/>
        <pt x="336" y="389" on="1"/>
        <pt x="441" y="392" on="1"/>
        <pt x="450" y="380" on="1"/>
        <pt x="440" y="260" on="1"/>
        <pt x="325" y="263" on="1"/>
        <pt x="227" y="263" on="1"/>
        <pt x="226" y="207" on="1"/>
        <pt x="229" y="127" on="1"/>
        <pt x="335" y="126" on="1"/>
        <pt x="497" y="132" on="1"/>
      </contour>
      <contour>
        <pt x="340" y="-44" on="0"/>
        <pt x="381" y="-86" on="0"/>
        <pt x="381" y="-123" on="1"/>
        <pt x="381" y="-163" on="0"/>
        <pt x="335" y="-210" on="0"/>
        <pt x="297" y="-210" on="1"/>
        <pt x="259" y="-210" on="0"/>
        <pt x="219" y="-168" on="0"/>
        <pt x="219" y="-130" on="1"/>
        <pt x="219" y="-91" on="0"/>
        <pt x="264" y="-44" on="0"/>
        <pt x="303" y="-44" on="1"/>
      </contour>
    </TTGlyph>
    <TTGlyph name="Ecircumflexgrave" xMin="70" yMin="0" xMax="511" yMax="1018">
      <component glyphName="E" x="0" y="0" flags="0x1000"/>
      <component glyphName="circumflexgrave" x="92" y="177" flags="0x1000"/>
    </TTGlyph>
    <TTGlyph name="Ecircumflexhookabove" xMin="70" yMin="0" xMax="510" yMax="1064">
      <contour>
        <pt x="337" y="997" on="0"/>
        <pt x="307" y="973" on="1"/>
        <pt x="283" y="1011" on="1"/>
        <pt x="333" y="1064" on="0"/>
        <pt x="392" y="1064" on="1"/>
        <pt x="428" y="1064" on="0"/>
        <pt x="476" y="1023" on="0"/>
        <pt x="476" y="990" on="1"/>
        <pt x="476" y="970" on="0"/>
        <pt x="452" y="934" on="0"/>
        <pt x="421" y="907" on="1"/>
        <pt x="444" y="869" on="1"/>
        <pt x="392" y="838" on="1"/>
        <pt x="347" y="906" on="1"/>
        <pt x="370" y="923" on="0"/>
        <pt x="398" y="961" on="0"/>
        <pt x="398" y="975" on="1"/>
        <pt x="398" y="997" on="0"/>
        <pt x="370" y="997" on="1"/>
      </contour>
      <contour>
        <pt x="129" y="768" on="1"/>
        <pt x="205" y="819" on="0"/>
        <pt x="270" y="878" on="1"/>
        <pt x="300" y="878" on="1"/>
        <pt x="368" y="817" on="0"/>
        <pt x="442" y="768" on="1"/>
        <pt x="414" y="705" on="1"/>
        <pt x="399" y="705" on="1"/>
        <pt x="285" y="767" on="1"/>
        <pt x="302" y="777" on="0"/>
        <pt x="217" y="729" on="1"/>
        <pt x="172" y="705" on="1"/>
        <pt x="157" y="705" on="1"/>
      </contour>
      <contour>
        <pt x="506" y="120" on="1"/>
        <pt x="496" y="0" on="1"/>
        <pt x="70" y="0" on="1"/>
        <pt x="79" y="191" on="1"/>
        <pt x="70" y="645" on="1"/>
        <pt x="501" y="645" on="1"/>
        <pt x="510" y="633" on="1"/>
        <pt x="499" y="513" on="1"/>
        <pt x="343" y="519" on="1"/>
        <pt x="232" y="518" on="1"/>
        <pt x="230" y="389" on="1"/>
        <pt x="336" y="389" on="1"/>
        <pt x="441" y="392" on="1"/>
        <pt x="450" y="380" on="1"/>
        <pt x="440" y="260" on="1"/>
        <pt x="325" y="263" on="1"/>
        <pt x="227" y="263" on="1"/>
        <pt x="226" y="207" on="1"/>
        <pt x="229" y="127" on="1"/>
        <pt x="335" y="126" on="1"/>
        <pt x="497" y="132" on="1"/>
      </contour>
    </TTGlyph>
    <TTGlyph name="Ecircumflextilde" xMin="70" yMin="0" xMax="511" yMax="1018">
      <component glyphName="E" x="0" y="0" flags="0x1000"/>
      <component glyphName="circumflexgrave" x="92" y="177" flags="0x1000"/>
    </TTGlyph>
    <TTGlyph name="Edieresis" xMin="70" yMin="0" xMax="510" yMax="875">
      <contour>
        <pt x="160" y="726" on="0"/>
        <pt x="123" y="763" on="0"/>
        <pt x="123" y="797" on="1"/>
        <pt x="123" y="833" on="0"/>
        <pt x="164" y="875" on="0"/>
        <pt x="199" y="875" on="1"/>
        <pt x="232" y="875" on="0"/>
        <pt x="269" y="837" on="0"/>
        <pt x="269" y="804" on="1"/>
        <pt x="269" y="768" on="0"/>
        <pt x="229" y="726" on="0"/>
        <pt x="194" y="726" on="1"/>
      </contour>
      <contour>
        <pt x="342" y="726" on="0"/>
        <pt x="305" y="763" on="0"/>
        <pt x="305" y="797" on="1"/>
        <pt x="305" y="833" on="0"/>
        <pt x="346" y="875" on="0"/>
        <pt x="381" y="875" on="1"/>
        <pt x="414" y="875" on="0"/>
        <pt x="451" y="837" on="0"/>
        <pt x="451" y="804" on="1"/>
        <pt x="451" y="768" on="0"/>
        <pt x="411" y="726" on="0"/>
        <pt x="376" y="726" on="1"/>
      </contour>
      <contour>
        <pt x="506" y="120" on="1"/>
        <pt x="496" y="0" on="1"/>
        <pt x="70" y="0" on="1"/>
        <pt x="79" y="191" on="1"/>
        <pt x="70" y="645" on="1"/>
        <pt x="501" y="645" on="1"/>
        <pt x="510" y="633" on="1"/>
        <pt x="499" y="513" on="1"/>
        <pt x="343" y="519" on="1"/>
        <pt x="232" y="518" on="1"/>
        <pt x="230" y="389" on="1"/>
        <pt x="336" y="389" on="1"/>
        <pt x="441" y="392" on="1"/>
        <pt x="450" y="380" on="1"/>
        <pt x="440" y="260" on="1"/>
        <pt x="325" y="263" on="1"/>
        <pt x="227" y="263" on="1"/>
        <pt x="226" y="207" on="1"/>
        <pt x="229" y="127" on="1"/>
        <pt x="335" y="126" on="1"/>
        <pt x="497" y="132" on="1"/>
      </contour>
    </TTGlyph>
    <TTGlyph name="Edotaccent" xMin="70" yMin="0" xMax="510" yMax="885">
      <contour>
        <pt x="246" y="719" on="0"/>
        <pt x="206" y="761" on="0"/>
        <pt x="206" y="799" on="1"/>
        <pt x="206" y="838" on="0"/>
        <pt x="251" y="885" on="0"/>
        <pt x="290" y="885" on="1"/>
        <pt x="327" y="885" on="0"/>
        <pt x="368" y="843" on="0"/>
        <pt x="368" y="806" on="1"/>
        <pt x="368" y="766" on="0"/>
        <pt x="322" y="719" on="0"/>
        <pt x="284" y="719" on="1"/>
      </contour>
      <contour>
        <pt x="506" y="120" on="1"/>
        <pt x="496" y="0" on="1"/>
        <pt x="70" y="0" on="1"/>
        <pt x="79" y="191" on="1"/>
        <pt x="70" y="645" on="1"/>
        <pt x="501" y="645" on="1"/>
        <pt x="510" y="633" on="1"/>
        <pt x="499" y="513" on="1"/>
        <pt x="343" y="519" on="1"/>
        <pt x="232" y="518" on="1"/>
        <pt x="230" y="389" on="1"/>
        <pt x="336" y="389" on="1"/>
        <pt x="441" y="392" on="1"/>
        <pt x="450" y="380" on="1"/>
        <pt x="440" y="260" on="1"/>
        <pt x="325" y="263" on="1"/>
        <pt x="227" y="263" on="1"/>
        <pt x="226" y="207" on="1"/>
        <pt x="229" y="127" on="1"/>
        <pt x="335" y="126" on="1"/>
        <pt x="497" y="132" on="1"/>
      </contour>
    </TTGlyph>
    <TTGlyph name="Edotbelow" xMin="70" yMin="-210" xMax="510" yMax="645">
      <contour>
        <pt x="506" y="120" on="1"/>
        <pt x="496" y="0" on="1"/>
        <pt x="70" y="0" on="1"/>
        <pt x="79" y="191" on="1"/>
        <pt x="70" y="645" on="1"/>
        <pt x="501" y="645" on="1"/>
        <pt x="510" y="633" on="1"/>
        <pt x="499" y="513" on="1"/>
        <pt x="343" y="519" on="1"/>
        <pt x="232" y="518" on="1"/>
        <pt x="230" y="389" on="1"/>
        <pt x="336" y="389" on="1"/>
        <pt x="441" y="392" on="1"/>
        <pt x="450" y="380" on="1"/>
        <pt x="440" y="260" on="1"/>
        <pt x="325" y="263" on="1"/>
        <pt x="227" y="263" on="1"/>
        <pt x="226" y="207" on="1"/>
        <pt x="229" y="127" on="1"/>
        <pt x="335" y="126" on="1"/>
        <pt x="497" y="132" on="1"/>
      </contour>
      <contour>
        <pt x="340" y="-44" on="0"/>
        <pt x="381" y="-86" on="0"/>
        <pt x="381" y="-123" on="1"/>
        <pt x="381" y="-163" on="0"/>
        <pt x="335" y="-210" on="0"/>
        <pt x="297" y="-210" on="1"/>
        <pt x="259" y="-210" on="0"/>
        <pt x="219" y="-168" on="0"/>
        <pt x="219" y="-130" on="1"/>
        <pt x="219" y="-91" on="0"/>
        <pt x="264" y="-44" on="0"/>
        <pt x="303" y="-44" on="1"/>
      </contour>
    </TTGlyph>
    <TTGlyph name="Egrave" xMin="70" yMin="0" xMax="510" yMax="900">
      <contour>
        <pt x="252" y="755" on="0"/>
        <pt x="159" y="789" on="1"/>
        <pt x="154" y="802" on="1"/>
        <pt x="194" y="897" on="1"/>
        <pt x="208" y="900" on="1"/>
        <pt x="315" y="837" on="0"/>
        <pt x="423" y="784" on="1"/>
        <pt x="398" y="718" on="1"/>
        <pt x="383" y="714" on="1"/>
      </contour>
      <contour>
        <pt x="506" y="120" on="1"/>
        <pt x="496" y="0" on="1"/>
        <pt x="70" y="0" on="1"/>
        <pt x="79" y="191" on="1"/>
        <pt x="70" y="645" on="1"/>
        <pt x="501" y="645" on="1"/>
        <pt x="510" y="633" on="1"/>
        <pt x="499" y="513" on="1"/>
        <pt x="343" y="519" on="1"/>
        <pt x="232" y="518" on="1"/>
        <pt x="230" y="389" on="1"/>
        <pt x="336" y="389" on="1"/>
        <pt x="441" y="392" on="1"/>
        <pt x="450" y="380" on="1"/>
        <pt x="440" y="260" on="1"/>
        <pt x="325" y="263" on="1"/>
        <pt x="227" y="263" on="1"/>
        <pt x="226" y="207" on="1"/>
        <pt x="229" y="127" on="1"/>
        <pt x="335" y="126" on="1"/>
        <pt x="497" y="132" on="1"/>
      </contour>
    </TTGlyph>
    <TTGlyph name="Ehookabove" xMin="70" yMin="0" xMax="511" yMax="931">
      <component glyphName="E" x="0" y="0" flags="0x1000"/>
      <component glyphName="hookabove" x="92" y="177" flags="0x1000"/>
    </TTGlyph>
    <TTGlyph name="Emacron" xMin="70" yMin="0" xMax="511" yMax="850">
      <component glyphName="E" x="0" y="0" flags="0x1000"/>
      <component glyphName="macron" x="92" y="177" flags="0x1000"/>
    </TTGlyph>
    <TTGlyph name="Eng" xMin="70" yMin="-175" xMax="631" yMax="648">
      <contour>
        <pt x="626" y="55" on="1"/>
        <pt x="626" y="-4" on="0"/>
        <pt x="587" y="-86" on="0"/>
        <pt x="497" y="-148" on="0"/>
        <pt x="418" y="-175" on="1"/>
        <pt x="373" y="-91" on="1"/>
        <pt x="373" y="-77" on="1"/>
        <pt x="445" y="-41" on="0"/>
        <pt x="464" y="0" on="1"/>
        <pt x="223" y="399" on="1"/>
        <pt x="213" y="399" on="1"/>
        <pt x="212" y="227" on="1"/>
        <pt x="219" y="0" on="1"/>
        <pt x="70" y="0" on="1"/>
        <pt x="79" y="190" on="1"/>
        <pt x="71" y="645" on="1"/>
        <pt x="247" y="645" on="1"/>
        <pt x="476" y="260" on="1"/>
        <pt x="486" y="260" on="1"/>
        <pt x="481" y="639" on="1"/>
        <pt x="631" y="648" on="1"/>
        <pt x="622" y="204" on="1"/>
      </contour>
    </TTGlyph>
    <TTGlyph name="Eogonek" xMin="70" yMin="-197" xMax="513" yMax="645">
      <contour>
        <pt x="456" y="-197" on="0"/>
        <pt x="407" y="-197" on="1"/>
        <pt x="363" y="-197" on="0"/>
        <pt x="310" y="-145" on="0"/>
        <pt x="310" y="-105" on="1"/>
        <pt x="310" y="-63" on="0"/>
        <pt x="341" y="-20" on="1"/>
        <pt x="356" y="0" on="1"/>
        <pt x="70" y="0" on="1"/>
        <pt x="79" y="191" on="1"/>
        <pt x="70" y="645" on="1"/>
        <pt x="501" y="645" on="1"/>
        <pt x="510" y="633" on="1"/>
        <pt x="499" y="513" on="1"/>
        <pt x="343" y="519" on="1"/>
        <pt x="232" y="518" on="1"/>
        <pt x="230" y="389" on="1"/>
        <pt x="336" y="389" on="1"/>
        <pt x="441" y="392" on="1"/>
        <pt x="450" y="380" on="1"/>
        <pt x="440" y="260" on="1"/>
        <pt x="325" y="263" on="1"/>
        <pt x="227" y="263" on="1"/>
        <pt x="226" y="207" on="1"/>
        <pt x="229" y="127" on="1"/>
        <pt x="335" y="126" on="1"/>
        <pt x="497" y="132" on="1"/>
        <pt x="506" y="120" on="1"/>
        <pt x="496" y="0" on="1"/>
        <pt x="430" y="0" on="1"/>
        <pt x="409" y="-32" on="1"/>
        <pt x="393" y="-58" on="0"/>
        <pt x="393" y="-77" on="1"/>
        <pt x="393" y="-113" on="0"/>
        <pt x="430" y="-113" on="1"/>
        <pt x="459" y="-113" on="0"/>
        <pt x="493" y="-87" on="1"/>
        <pt x="502" y="-87" on="1"/>
        <pt x="513" y="-149" on="1"/>
      </contour>
    </TTGlyph>
    <TTGlyph name="Eth" xMin="17" yMin="-8" xMax="663" yMax="649">
      <contour>
        <pt x="512" y="649" on="0"/>
        <pt x="663" y="493" on="0"/>
        <pt x="663" y="348" on="1"/>
        <pt x="663" y="176" on="0"/>
        <pt x="491" y="-8" on="0"/>
        <pt x="331" y="-8" on="1"/>
        <pt x="240" y="-8" on="0"/>
        <pt x="98" y="0" on="1"/>
        <pt x="106" y="191" on="1"/>
        <pt x="105" y="265" on="1"/>
        <pt x="24" y="265" on="1"/>
        <pt x="17" y="276" on="1"/>
        <pt x="22" y="371" on="1"/>
        <pt x="103" y="371" on="1"/>
        <pt x="98" y="645" on="1"/>
        <pt x="371" y="649" on="1"/>
      </contour>
      <contour>
        <pt x="493" y="115" on="0"/>
        <pt x="493" y="309" on="1"/>
        <pt x="493" y="423" on="0"/>
        <pt x="429" y="521" on="0"/>
        <pt x="357" y="521" on="1"/>
        <pt x="304" y="521" on="0"/>
        <pt x="260" y="517" on="1"/>
        <pt x="257" y="371" on="1"/>
        <pt x="361" y="371" on="1"/>
        <pt x="368" y="360" on="1"/>
        <pt x="363" y="265" on="1"/>
        <pt x="255" y="265" on="1"/>
        <pt x="254" y="207" on="1"/>
        <pt x="257" y="123" on="1"/>
        <pt x="315" y="115" on="0"/>
        <pt x="361" y="115" on="1"/>
      </contour>
    </TTGlyph>
    <TTGlyph name="Etilde" xMin="70" yMin="0" xMax="511" yMax="895">
      <component glyphName="E" x="0" y="0" flags="0x1000"/>
      <component glyphName="tilde" x="92" y="177" flags="0x1000"/>
    </TTGlyph>
    <TTGlyph name="Euro" xMin="2" yMin="-8" xMax="451" yMax="516">
      <contour>
        <pt x="2" y="278" on="1"/>
        <pt x="6" y="343" on="1"/>
        <pt x="76" y="343" on="1"/>
        <pt x="99" y="427" on="0"/>
        <pt x="226" y="516" on="0"/>
        <pt x="324" y="516" on="1"/>
        <pt x="390" y="516" on="0"/>
        <pt x="451" y="493" on="1"/>
        <pt x="427" y="376" on="1"/>
        <pt x="417" y="370" on="1"/>
        <pt x="370" y="395" on="0"/>
        <pt x="318" y="395" on="1"/>
        <pt x="253" y="395" on="0"/>
        <pt x="233" y="343" on="1"/>
        <pt x="356" y="343" on="1"/>
        <pt x="362" y="336" on="1"/>
        <pt x="358" y="270" on="1"/>
        <pt x="7" y="270" on="1"/>
      </contour>
      <contour>
        <pt x="375" y="112" on="0"/>
        <pt x="426" y="133" on="1"/>
        <pt x="439" y="125" on="1"/>
        <pt x="427" y="9" on="1"/>
        <pt x="377" y="-8" on="0"/>
        <pt x="315" y="-8" on="1"/>
        <pt x="109" y="-8" on="0"/>
        <pt x="71" y="162" on="1"/>
        <pt x="7" y="162" on="1"/>
        <pt x="2" y="169" on="1"/>
        <pt x="6" y="235" on="1"/>
        <pt x="356" y="235" on="1"/>
        <pt x="362" y="227" on="1"/>
        <pt x="358" y="162" on="1"/>
        <pt x="237" y="162" on="1"/>
        <pt x="261" y="112" on="0"/>
        <pt x="324" y="112" on="1"/>
      </contour>
    </TTGlyph>
    <TTGlyph name="F" xMin="70" yMin="0" xMax="483" yMax="645">
      <contour>
        <pt x="230" y="368" on="1"/>
        <pt x="311" y="368" on="1"/>
        <pt x="423" y="371" on="1"/>
        <pt x="432" y="359" on="1"/>
        <pt x="422" y="239" on="1"/>
        <pt x="299" y="242" on="1"/>
        <pt x="228" y="242" on="1"/>
        <pt x="227" y="207" on="1"/>
        <pt x="233" y="0" on="1"/>
        <pt x="70" y="0" on="1"/>
        <pt x="79" y="191" on="1"/>
        <pt x="70" y="645" on="1"/>
        <pt x="474" y="645" on="1"/>
        <pt x="483" y="633" on="1"/>
        <pt x="472" y="513" on="1"/>
        <pt x="316" y="519" on="1"/>
        <pt x="233" y="518" on="1"/>
      </contour>
    </TTGlyph>
    <TTGlyph name="G" xMin="24" yMin="-10" xMax="559" yMax="654">
      <contour>
        <pt x="480" y="654" on="0"/>
        <pt x="559" y="619" on="1"/>
        <pt x="525" y="474" on="1"/>
        <pt x="511" y="474" on="1"/>
        <pt x="462" y="501" on="0"/>
        <pt x="385" y="524" on="0"/>
        <pt x="342" y="524" on="1"/>
        <pt x="288" y="524" on="0"/>
        <pt x="224" y="485" on="0"/>
        <pt x="193" y="395" on="0"/>
        <pt x="193" y="317" on="1"/>
        <pt x="193" y="240" on="0"/>
        <pt x="223" y="153" on="0"/>
        <pt x="288" y="115" on="0"/>
        <pt x="345" y="115" on="1"/>
        <pt x="373" y="115" on="0"/>
        <pt x="410" y="125" on="1"/>
        <pt x="411" y="170" on="1"/>
        <pt x="408" y="274" on="1"/>
        <pt x="557" y="284" on="1"/>
        <pt x="555" y="197" on="1"/>
        <pt x="556" y="32" on="1"/>
        <pt x="437" y="-10" on="0"/>
        <pt x="331" y="-10" on="1"/>
        <pt x="178" y="-10" on="0"/>
        <pt x="24" y="155" on="0"/>
        <pt x="24" y="309" on="1"/>
        <pt x="24" y="477" on="0"/>
        <pt x="204" y="654" on="0"/>
        <pt x="372" y="654" on="1"/>
      </contour>
    </TTGlyph>
    <TTGlyph name="Gbreve" xMin="24" yMin="-10" xMax="559" yMax="881">
      <component glyphName="G" x="0" y="0" flags="0x1000"/>
      <component glyphName="breve.cap" x="133" y="177" flags="0x1000"/>
    </TTGlyph>
    <TTGlyph name="Gcircumflex" xMin="24" yMin="-10" xMax="560" yMax="898">
      <contour>
        <pt x="247" y="839" on="0"/>
        <pt x="312" y="898" on="1"/>
        <pt x="342" y="898" on="1"/>
        <pt x="410" y="837" on="0"/>
        <pt x="484" y="788" on="1"/>
        <pt x="456" y="725" on="1"/>
        <pt x="441" y="725" on="1"/>
        <pt x="327" y="787" on="1"/>
        <pt x="344" y="797" on="0"/>
        <pt x="259" y="749" on="1"/>
        <pt x="214" y="725" on="1"/>
        <pt x="199" y="725" on="1"/>
        <pt x="171" y="788" on="1"/>
      </contour>
      <contour>
        <pt x="480" y="654" on="0"/>
        <pt x="560" y="619" on="1"/>
        <pt x="525" y="474" on="1"/>
        <pt x="511" y="474" on="1"/>
        <pt x="462" y="501" on="0"/>
        <pt x="385" y="524" on="0"/>
        <pt x="342" y="524" on="1"/>
        <pt x="288" y="524" on="0"/>
        <pt x="224" y="485" on="0"/>
        <pt x="194" y="395" on="0"/>
        <pt x="194" y="317" on="1"/>
        <pt x="194" y="240" on="0"/>
        <pt x="223" y="153" on="0"/>
        <pt x="288" y="115" on="0"/>
        <pt x="345" y="115" on="1"/>
        <pt x="373" y="115" on="0"/>
        <pt x="410" y="125" on="1"/>
        <pt x="411" y="170" on="1"/>
        <pt x="409" y="274" on="1"/>
        <pt x="558" y="284" on="1"/>
        <pt x="555" y="197" on="1"/>
        <pt x="556" y="32" on="1"/>
        <pt x="439" y="-10" on="0"/>
        <pt x="332" y="-10" on="1"/>
        <pt x="179" y="-10" on="0"/>
        <pt x="24" y="155" on="0"/>
        <pt x="24" y="309" on="1"/>
        <pt x="24" y="477" on="0"/>
        <pt x="205" y="654" on="0"/>
        <pt x="372" y="654" on="1"/>
      </contour>
    </TTGlyph>
    <TTGlyph name="Gcommaaccent" xMin="24" yMin="-285" xMax="560" yMax="654">
      <contour>
        <pt x="480" y="654" on="0"/>
        <pt x="560" y="619" on="1"/>
        <pt x="525" y="474" on="1"/>
        <pt x="511" y="474" on="1"/>
        <pt x="462" y="501" on="0"/>
        <pt x="385" y="524" on="0"/>
        <pt x="342" y="524" on="1"/>
        <pt x="288" y="524" on="0"/>
        <pt x="224" y="485" on="0"/>
        <pt x="194" y="395" on="0"/>
        <pt x="194" y="317" on="1"/>
        <pt x="194" y="240" on="0"/>
        <pt x="223" y="153" on="0"/>
        <pt x="288" y="115" on="0"/>
        <pt x="345" y="115" on="1"/>
        <pt x="373" y="115" on="0"/>
        <pt x="410" y="125" on="1"/>
        <pt x="411" y="170" on="1"/>
        <pt x="409" y="274" on="1"/>
        <pt x="558" y="284" on="1"/>
        <pt x="555" y="197" on="1"/>
        <pt x="556" y="32" on="1"/>
        <pt x="439" y="-10" on="0"/>
        <pt x="332" y="-10" on="1"/>
        <pt x="179" y="-10" on="0"/>
        <pt x="24" y="155" on="0"/>
        <pt x="24" y="309" on="1"/>
        <pt x="24" y="477" on="0"/>
        <pt x="205" y="654" on="0"/>
        <pt x="372" y="654" on="1"/>
      </contour>
      <contour>
        <pt x="384" y="-68" on="0"/>
        <pt x="384" y="-116" on="1"/>
        <pt x="384" y="-202" on="0"/>
        <pt x="266" y="-285" on="1"/>
        <pt x="222" y="-246" on="1"/>
        <pt x="221" y="-236" on="1"/>
        <pt x="270" y="-194" on="0"/>
        <pt x="270" y="-146" on="1"/>
        <pt x="270" y="-113" on="0"/>
        <pt x="241" y="-88" on="1"/>
        <pt x="242" y="-76" on="1"/>
        <pt x="293" y="-47" on="0"/>
        <pt x="343" y="-34" on="1"/>
      </contour>
    </TTGlyph>
    <TTGlyph name="Gdieresis" xMin="24" yMin="-10" xMax="560" yMax="875">
      <contour>
        <pt x="273" y="875" on="0"/>
        <pt x="310" y="837" on="0"/>
        <pt x="310" y="804" on="1"/>
        <pt x="310" y="768" on="0"/>
        <pt x="270" y="726" on="0"/>
        <pt x="235" y="726" on="1"/>
        <pt x="201" y="726" on="0"/>
        <pt x="164" y="763" on="0"/>
        <pt x="164" y="797" on="1"/>
        <pt x="164" y="833" on="0"/>
        <pt x="205" y="875" on="0"/>
        <pt x="240" y="875" on="1"/>
      </contour>
      <contour>
        <pt x="455" y="875" on="0"/>
        <pt x="492" y="837" on="0"/>
        <pt x="492" y="804" on="1"/>
        <pt x="492" y="768" on="0"/>
        <pt x="452" y="726" on="0"/>
        <pt x="417" y="726" on="1"/>
        <pt x="383" y="726" on="0"/>
        <pt x="346" y="763" on="0"/>
        <pt x="346" y="797" on="1"/>
        <pt x="346" y="833" on="0"/>
        <pt x="387" y="875" on="0"/>
        <pt x="422" y="875" on="1"/>
      </contour>
      <contour>
        <pt x="480" y="654" on="0"/>
        <pt x="560" y="619" on="1"/>
        <pt x="525" y="474" on="1"/>
        <pt x="511" y="474" on="1"/>
        <pt x="462" y="501" on="0"/>
        <pt x="385" y="524" on="0"/>
        <pt x="342" y="524" on="1"/>
        <pt x="288" y="524" on="0"/>
        <pt x="224" y="485" on="0"/>
        <pt x="194" y="395" on="0"/>
        <pt x="194" y="317" on="1"/>
        <pt x="194" y="240" on="0"/>
        <pt x="223" y="153" on="0"/>
        <pt x="288" y="115" on="0"/>
        <pt x="345" y="115" on="1"/>
        <pt x="373" y="115" on="0"/>
        <pt x="410" y="125" on="1"/>
        <pt x="411" y="170" on="1"/>
        <pt x="409" y="274" on="1"/>
        <pt x="558" y="284" on="1"/>
        <pt x="555" y="197" on="1"/>
        <pt x="556" y="32" on="1"/>
        <pt x="439" y="-10" on="0"/>
        <pt x="332" y="-10" on="1"/>
        <pt x="179" y="-10" on="0"/>
        <pt x="24" y="155" on="0"/>
        <pt x="24" y="309" on="1"/>
        <pt x="24" y="477" on="0"/>
        <pt x="205" y="654" on="0"/>
        <pt x="372" y="654" on="1"/>
      </contour>
    </TTGlyph>
    <TTGlyph name="Gdotaccent" xMin="24" yMin="-10" xMax="560" yMax="885">
      <contour>
        <pt x="368" y="885" on="0"/>
        <pt x="409" y="843" on="0"/>
        <pt x="409" y="806" on="1"/>
        <pt x="409" y="766" on="0"/>
        <pt x="363" y="719" on="0"/>
        <pt x="325" y="719" on="1"/>
        <pt x="287" y="719" on="0"/>
        <pt x="247" y="761" on="0"/>
        <pt x="247" y="799" on="1"/>
        <pt x="247" y="838" on="0"/>
        <pt x="292" y="885" on="0"/>
        <pt x="331" y="885" on="1"/>
      </contour>
      <contour>
        <pt x="480" y="654" on="0"/>
        <pt x="560" y="619" on="1"/>
        <pt x="525" y="474" on="1"/>
        <pt x="511" y="474" on="1"/>
        <pt x="462" y="501" on="0"/>
        <pt x="385" y="524" on="0"/>
        <pt x="342" y="524" on="1"/>
        <pt x="288" y="524" on="0"/>
        <pt x="224" y="485" on="0"/>
        <pt x="194" y="395" on="0"/>
        <pt x="194" y="317" on="1"/>
        <pt x="194" y="240" on="0"/>
        <pt x="223" y="153" on="0"/>
        <pt x="288" y="115" on="0"/>
        <pt x="345" y="115" on="1"/>
        <pt x="373" y="115" on="0"/>
        <pt x="410" y="125" on="1"/>
        <pt x="411" y="170" on="1"/>
        <pt x="409" y="274" on="1"/>
        <pt x="558" y="284" on="1"/>
        <pt x="555" y="197" on="1"/>
        <pt x="556" y="32" on="1"/>
        <pt x="439" y="-10" on="0"/>
        <pt x="332" y="-10" on="1"/>
        <pt x="179" y="-10" on="0"/>
        <pt x="24" y="155" on="0"/>
        <pt x="24" y="309" on="1"/>
        <pt x="24" y="477" on="0"/>
        <pt x="205" y="654" on="0"/>
        <pt x="372" y="654" on="1"/>
      </contour>
    </TTGlyph>
    <TTGlyph name="Gtilde" xMin="24" yMin="-10" xMax="559" yMax="895">
      <component glyphName="G" x="0" y="0" flags="0x1000"/>
      <component glyphName="tilde" x="133" y="177" flags="0x1000"/>
    </TTGlyph>
    <TTGlyph name="H" xMin="70" yMin="0" xMax="631" yMax="645">
      <contour>
        <pt x="629" y="0" on="1"/>
        <pt x="466" y="0" on="1"/>
        <pt x="474" y="191" on="1"/>
        <pt x="473" y="256" on="1"/>
        <pt x="343" y="258" on="1"/>
        <pt x="228" y="255" on="1"/>
        <pt x="227" y="207" on="1"/>
        <pt x="233" y="0" on="1"/>
        <pt x="70" y="0" on="1"/>
        <pt x="79" y="191" on="1"/>
        <pt x="70" y="645" on="1"/>
        <pt x="236" y="645" on="1"/>
        <pt x="231" y="389" on="1"/>
        <pt x="353" y="386" on="1"/>
        <pt x="471" y="388" on="1"/>
        <pt x="466" y="645" on="1"/>
        <pt x="631" y="645" on="1"/>
        <pt x="622" y="207" on="1"/>
      </contour>
    </TTGlyph>
    <TTGlyph name="Hbar" xMin="20" yMin="0" xMax="716" yMax="645">
      <contour>
        <pt x="635" y="207" on="1"/>
        <pt x="642" y="0" on="1"/>
        <pt x="479" y="0" on="1"/>
        <pt x="488" y="191" on="1"/>
        <pt x="487" y="256" on="1"/>
        <pt x="356" y="258" on="1"/>
        <pt x="241" y="255" on="1"/>
        <pt x="240" y="207" on="1"/>
        <pt x="247" y="0" on="1"/>
        <pt x="84" y="0" on="1"/>
        <pt x="92" y="191" on="1"/>
        <pt x="87" y="474" on="1"/>
        <pt x="27" y="474" on="1"/>
        <pt x="20" y="482" on="1"/>
        <pt x="25" y="561" on="1"/>
        <pt x="85" y="561" on="1"/>
        <pt x="84" y="645" on="1"/>
        <pt x="249" y="645" on="1"/>
        <pt x="247" y="561" on="1"/>
        <pt x="481" y="561" on="1"/>
        <pt x="479" y="645" on="1"/>
        <pt x="644" y="645" on="1"/>
        <pt x="642" y="561" on="1"/>
        <pt x="709" y="561" on="1"/>
        <pt x="716" y="552" on="1"/>
        <pt x="711" y="474" on="1"/>
        <pt x="640" y="474" on="1"/>
      </contour>
      <contour>
        <pt x="245" y="474" on="1"/>
        <pt x="244" y="389" on="1"/>
        <pt x="366" y="386" on="1"/>
        <pt x="484" y="388" on="1"/>
        <pt x="482" y="474" on="1"/>
      </contour>
    </TTGlyph>
    <TTGlyph name="Hcircumflex" xMin="70" yMin="0" xMax="631" yMax="898">
      <contour>
        <pt x="193" y="788" on="1"/>
        <pt x="269" y="839" on="0"/>
        <pt x="334" y="898" on="1"/>
        <pt x="364" y="898" on="1"/>
        <pt x="432" y="837" on="0"/>
        <pt x="506" y="788" on="1"/>
        <pt x="478" y="725" on="1"/>
        <pt x="463" y="725" on="1"/>
        <pt x="349" y="787" on="1"/>
        <pt x="366" y="797" on="0"/>
        <pt x="281" y="749" on="1"/>
        <pt x="236" y="725" on="1"/>
        <pt x="221" y="725" on="1"/>
      </contour>
      <contour>
        <pt x="629" y="0" on="1"/>
        <pt x="466" y="0" on="1"/>
        <pt x="475" y="191" on="1"/>
        <pt x="474" y="256" on="1"/>
        <pt x="343" y="258" on="1"/>
        <pt x="227" y="255" on="1"/>
        <pt x="226" y="207" on="1"/>
        <pt x="233" y="0" on="1"/>
        <pt x="70" y="0" on="1"/>
        <pt x="79" y="191" on="1"/>
        <pt x="70" y="645" on="1"/>
        <pt x="235" y="645" on="1"/>
        <pt x="230" y="389" on="1"/>
        <pt x="353" y="386" on="1"/>
        <pt x="471" y="388" on="1"/>
        <pt x="466" y="645" on="1"/>
        <pt x="631" y="645" on="1"/>
        <pt x="622" y="207" on="1"/>
      </contour>
    </TTGlyph>
    <TTGlyph name="I" xMin="70" yMin="0" xMax="236" yMax="645">
      <contour>
        <pt x="233" y="0" on="1"/>
        <pt x="70" y="0" on="1"/>
        <pt x="79" y="191" on="1"/>
        <pt x="70" y="645" on="1"/>
        <pt x="236" y="645" on="1"/>
        <pt x="227" y="207" on="1"/>
      </contour>
    </TTGlyph>
    <TTGlyph name="I.ss01" xMin="-100" yMin="0" xMax="389" yMax="508">
      <contour>
        <pt x="213" y="55" on="1"/>
        <pt x="389" y="55" on="1"/>
        <pt x="389" y="0" on="1"/>
        <pt x="-100" y="0" on="1"/>
        <pt x="-100" y="55" on="1"/>
        <pt x="68" y="55" on="1"/>
        <pt x="72" y="149" on="1"/>
        <pt x="66" y="453" on="1"/>
        <pt x="-100" y="453" on="1"/>
        <pt x="-100" y="508" on="1"/>
        <pt x="389" y="508" on="1"/>
        <pt x="389" y="453" on="1"/>
        <pt x="217" y="453" on="1"/>
        <pt x="209" y="164" on="1"/>
      </contour>
    </TTGlyph>
    <TTGlyph name="IJ" xMin="70" yMin="-109" xMax="585" yMax="645">
      <component glyphName="I" x="0" y="0" flags="0x1000"/>
      <component glyphName="J" x="308" y="0" flags="0x1000"/>
    </TTGlyph>
    <TTGlyph name="Iacute" xMin="38" yMin="0" xMax="307" yMax="900">
      <component glyphName="I" x="0" y="0" flags="0x1000"/>
      <component glyphName="acute.cap" x="-20" y="177" flags="0x1000"/>
    </TTGlyph>
    <TTGlyph name="Iacute_J.loclNLD" xMin="38" yMin="-109" xMax="617" yMax="900">
      <component glyphName="I" x="0" y="0" flags="0x1000"/>
      <component glyphName="acute.cap" x="-20" y="177" flags="0x1000"/>
      <component glyphName="J" x="308" y="0" flags="0x1000"/>
      <component glyphName="acute.cap" x="290" y="177" flags="0x1000"/>
    </TTGlyph>
    <TTGlyph name="Ibreve" xMin="-8" yMin="0" xMax="315" yMax="881">
      <component glyphName="I" x="0" y="0" flags="0x1000"/>
      <component glyphName="breve.cap" x="-41" y="177" flags="0x1000"/>
    </TTGlyph>
    <TTGlyph name="Icaron" xMin="-3" yMin="0" xMax="310" yMax="888">
      <component glyphName="I" x="0" y="0" flags="0x1000"/>
      <component glyphName="caron.cap" x="-40" y="177" flags="0x1000"/>
    </TTGlyph>
    <TTGlyph name="Icircumflex" xMin="-3" yMin="0" xMax="310" yMax="898">
      <contour>
        <pt x="73" y="839" on="0"/>
        <pt x="138" y="898" on="1"/>
        <pt x="168" y="898" on="1"/>
        <pt x="236" y="837" on="0"/>
        <pt x="310" y="788" on="1"/>
        <pt x="282" y="725" on="1"/>
        <pt x="267" y="725" on="1"/>
        <pt x="153" y="787" on="1"/>
        <pt x="170" y="797" on="0"/>
        <pt x="85" y="749" on="1"/>
        <pt x="40" y="725" on="1"/>
        <pt x="25" y="725" on="1"/>
        <pt x="-3" y="788" on="1"/>
      </contour>
      <contour>
        <pt x="233" y="0" on="1"/>
        <pt x="70" y="0" on="1"/>
        <pt x="79" y="191" on="1"/>
        <pt x="70" y="645" on="1"/>
        <pt x="235" y="645" on="1"/>
        <pt x="226" y="207" on="1"/>
      </contour>
    </TTGlyph>
    <TTGlyph name="Idieresis" xMin="-2" yMin="0" xMax="309" yMax="875">
      <contour>
        <pt x="107" y="875" on="0"/>
        <pt x="144" y="837" on="0"/>
        <pt x="144" y="804" on="1"/>
        <pt x="144" y="768" on="0"/>
        <pt x="104" y="726" on="0"/>
        <pt x="69" y="726" on="1"/>
        <pt x="35" y="726" on="0"/>
        <pt x="-2" y="763" on="0"/>
        <pt x="-2" y="797" on="1"/>
        <pt x="-2" y="833" on="0"/>
        <pt x="39" y="875" on="0"/>
        <pt x="74" y="875" on="1"/>
      </contour>
      <contour>
        <pt x="272" y="875" on="0"/>
        <pt x="309" y="837" on="0"/>
        <pt x="309" y="804" on="1"/>
        <pt x="309" y="768" on="0"/>
        <pt x="269" y="726" on="0"/>
        <pt x="234" y="726" on="1"/>
        <pt x="200" y="726" on="0"/>
        <pt x="163" y="763" on="0"/>
        <pt x="163" y="797" on="1"/>
        <pt x="163" y="833" on="0"/>
        <pt x="204" y="875" on="0"/>
        <pt x="239" y="875" on="1"/>
      </contour>
      <contour>
        <pt x="233" y="0" on="1"/>
        <pt x="70" y="0" on="1"/>
        <pt x="79" y="191" on="1"/>
        <pt x="70" y="645" on="1"/>
        <pt x="235" y="645" on="1"/>
        <pt x="226" y="207" on="1"/>
      </contour>
    </TTGlyph>
    <TTGlyph name="Idotaccent" xMin="70" yMin="0" xMax="235" yMax="885">
      <contour>
        <pt x="193" y="885" on="0"/>
        <pt x="234" y="843" on="0"/>
        <pt x="234" y="806" on="1"/>
        <pt x="234" y="766" on="0"/>
        <pt x="188" y="719" on="0"/>
        <pt x="150" y="719" on="1"/>
        <pt x="112" y="719" on="0"/>
        <pt x="72" y="761" on="0"/>
        <pt x="72" y="799" on="1"/>
        <pt x="72" y="838" on="0"/>
        <pt x="117" y="885" on="0"/>
        <pt x="156" y="885" on="1"/>
      </contour>
      <contour>
        <pt x="233" y="0" on="1"/>
        <pt x="70" y="0" on="1"/>
        <pt x="79" y="191" on="1"/>
        <pt x="70" y="645" on="1"/>
        <pt x="235" y="645" on="1"/>
        <pt x="226" y="207" on="1"/>
      </contour>
    </TTGlyph>
    <TTGlyph name="Idotbelow" xMin="66" yMin="-210" xMax="235" yMax="645">
      <contour>
        <pt x="233" y="0" on="1"/>
        <pt x="70" y="0" on="1"/>
        <pt x="79" y="191" on="1"/>
        <pt x="70" y="645" on="1"/>
        <pt x="235" y="645" on="1"/>
        <pt x="226" y="207" on="1"/>
      </contour>
      <contour>
        <pt x="187" y="-44" on="0"/>
        <pt x="228" y="-86" on="0"/>
        <pt x="228" y="-123" on="1"/>
        <pt x="228" y="-163" on="0"/>
        <pt x="182" y="-210" on="0"/>
        <pt x="144" y="-210" on="1"/>
        <pt x="106" y="-210" on="0"/>
        <pt x="66" y="-168" on="0"/>
        <pt x="66" y="-130" on="1"/>
        <pt x="66" y="-91" on="0"/>
        <pt x="111" y="-44" on="0"/>
        <pt x="150" y="-44" on="1"/>
      </contour>
    </TTGlyph>
    <TTGlyph name="Igrave" xMin="20" yMin="0" xMax="289" yMax="900">
      <contour>
        <pt x="181" y="837" on="0"/>
        <pt x="289" y="784" on="1"/>
        <pt x="264" y="718" on="1"/>
        <pt x="249" y="714" on="1"/>
        <pt x="118" y="755" on="0"/>
        <pt x="25" y="789" on="1"/>
        <pt x="20" y="802" on="1"/>
        <pt x="60" y="897" on="1"/>
        <pt x="74" y="900" on="1"/>
      </contour>
      <contour>
        <pt x="233" y="0" on="1"/>
        <pt x="70" y="0" on="1"/>
        <pt x="79" y="191" on="1"/>
        <pt x="70" y="645" on="1"/>
        <pt x="235" y="645" on="1"/>
        <pt x="226" y="207" on="1"/>
      </contour>
    </TTGlyph>
    <TTGlyph name="Ihookabove" xMin="28" yMin="0" xMax="236" yMax="931">
      <component glyphName="I" x="0" y="0" flags="0x1000"/>
      <component glyphName="hookabove" x="-42" y="177" flags="0x1000"/>
    </TTGlyph>
    <TTGlyph name="Imacron" xMin="29" yMin="0" xMax="276" yMax="850">
      <component glyphName="I" x="0" y="0" flags="0x1000"/>
      <component glyphName="macron.i" x="-42" y="177" flags="0x1000"/>
    </TTGlyph>
    <TTGlyph name="Iogonek" xMin="32" yMin="-197" xMax="235" yMax="645">
      <contour>
        <pt x="115" y="-51" on="0"/>
        <pt x="115" y="-80" on="1"/>
        <pt x="115" y="-113" on="0"/>
        <pt x="149" y="-113" on="1"/>
        <pt x="181" y="-113" on="0"/>
        <pt x="208" y="-89" on="1"/>
        <pt x="217" y="-89" on="1"/>
        <pt x="228" y="-155" on="1"/>
        <pt x="177" y="-197" on="0"/>
        <pt x="127" y="-197" on="1"/>
        <pt x="84" y="-197" on="0"/>
        <pt x="32" y="-146" on="0"/>
        <pt x="32" y="-105" on="1"/>
        <pt x="32" y="-59" on="0"/>
        <pt x="71" y="0" on="1"/>
        <pt x="70" y="0" on="1"/>
        <pt x="79" y="191" on="1"/>
        <pt x="70" y="645" on="1"/>
        <pt x="235" y="645" on="1"/>
        <pt x="226" y="207" on="1"/>
        <pt x="233" y="0" on="1"/>
        <pt x="149" y="0" on="1"/>
      </contour>
    </TTGlyph>
    <TTGlyph name="Itilde" xMin="-8" yMin="0" xMax="314" yMax="892">
      <component glyphName="I" x="0" y="0" flags="0x1000"/>
      <component glyphName="tilde.i" x="-40" y="177" flags="0x1000"/>
    </TTGlyph>
    <TTGlyph name="J" xMin="7" yMin="-109" xMax="277" yMax="645">
      <contour>
        <pt x="270" y="122" on="1"/>
        <pt x="270" y="63" on="0"/>
        <pt x="231" y="-20" on="0"/>
        <pt x="141" y="-82" on="0"/>
        <pt x="62" y="-109" on="1"/>
        <pt x="16" y="-24" on="1"/>
        <pt x="16" y="-10" on="1"/>
        <pt x="74" y="19" on="0"/>
        <pt x="120" y="79" on="0"/>
        <pt x="120" y="126" on="1"/>
        <pt x="120" y="197" on="1"/>
        <pt x="114" y="529" on="1"/>
        <pt x="17" y="526" on="1"/>
        <pt x="7" y="537" on="1"/>
        <pt x="14" y="645" on="1"/>
        <pt x="277" y="645" on="1"/>
        <pt x="268" y="213" on="1"/>
      </contour>
    </TTGlyph>
    <TTGlyph name="Jcircumflex" xMin="-2" yMin="-109" xMax="311" yMax="898">
      <contour>
        <pt x="237" y="837" on="0"/>
        <pt x="311" y="788" on="1"/>
        <pt x="283" y="725" on="1"/>
        <pt x="268" y="725" on="1"/>
        <pt x="154" y="787" on="1"/>
        <pt x="171" y="797" on="0"/>
        <pt x="86" y="749" on="1"/>
        <pt x="41" y="725" on="1"/>
        <pt x="26" y="725" on="1"/>
        <pt x="-2" y="788" on="1"/>
        <pt x="74" y="839" on="0"/>
        <pt x="139" y="898" on="1"/>
        <pt x="169" y="898" on="1"/>
      </contour>
      <contour>
        <pt x="268" y="213" on="1"/>
        <pt x="270" y="122" on="1"/>
        <pt x="270" y="63" on="0"/>
        <pt x="231" y="-19" on="0"/>
        <pt x="141" y="-82" on="0"/>
        <pt x="62" y="-109" on="1"/>
        <pt x="16" y="-24" on="1"/>
        <pt x="16" y="-10" on="1"/>
        <pt x="74" y="19" on="0"/>
        <pt x="120" y="79" on="0"/>
        <pt x="120" y="126" on="1"/>
        <pt x="120" y="197" on="1"/>
        <pt x="114" y="529" on="1"/>
        <pt x="17" y="526" on="1"/>
        <pt x="7" y="537" on="1"/>
        <pt x="14" y="645" on="1"/>
        <pt x="277" y="645" on="1"/>
      </contour>
    </TTGlyph>
    <TTGlyph name="K" xMin="70" yMin="-11" xMax="615" yMax="645">
      <contour>
        <pt x="486" y="190" on="0"/>
        <pt x="615" y="34" on="1"/>
        <pt x="613" y="16" on="1"/>
        <pt x="531" y="-4" on="0"/>
        <pt x="452" y="-11" on="1"/>
        <pt x="434" y="-1" on="1"/>
        <pt x="310" y="183" on="0"/>
        <pt x="228" y="319" on="1"/>
        <pt x="226" y="207" on="1"/>
        <pt x="233" y="0" on="1"/>
        <pt x="70" y="0" on="1"/>
        <pt x="79" y="191" on="1"/>
        <pt x="70" y="645" on="1"/>
        <pt x="235" y="645" on="1"/>
        <pt x="229" y="356" on="1"/>
        <pt x="386" y="580" on="1"/>
        <pt x="422" y="645" on="1"/>
        <pt x="596" y="645" on="1"/>
        <pt x="384" y="341" on="1"/>
      </contour>
    </TTGlyph>
    <TTGlyph name="Kcommaaccent" xMin="70" yMin="-285" xMax="615" yMax="645">
      <contour>
        <pt x="486" y="190" on="0"/>
        <pt x="615" y="34" on="1"/>
        <pt x="613" y="16" on="1"/>
        <pt x="531" y="-4" on="0"/>
        <pt x="452" y="-11" on="1"/>
        <pt x="434" y="-1" on="1"/>
        <pt x="310" y="183" on="0"/>
        <pt x="228" y="319" on="1"/>
        <pt x="226" y="207" on="1"/>
        <pt x="233" y="0" on="1"/>
        <pt x="70" y="0" on="1"/>
        <pt x="79" y="191" on="1"/>
        <pt x="70" y="645" on="1"/>
        <pt x="235" y="645" on="1"/>
        <pt x="229" y="356" on="1"/>
        <pt x="386" y="580" on="1"/>
        <pt x="422" y="645" on="1"/>
        <pt x="596" y="645" on="1"/>
        <pt x="384" y="341" on="1"/>
      </contour>
      <contour>
        <pt x="388" y="-68" on="0"/>
        <pt x="388" y="-116" on="1"/>
        <pt x="388" y="-202" on="0"/>
        <pt x="270" y="-285" on="1"/>
        <pt x="226" y="-246" on="1"/>
        <pt x="225" y="-236" on="1"/>
        <pt x="274" y="-194" on="0"/>
        <pt x="274" y="-146" on="1"/>
        <pt x="274" y="-113" on="0"/>
        <pt x="245" y="-88" on="1"/>
        <pt x="246" y="-76" on="1"/>
        <pt x="297" y="-47" on="0"/>
        <pt x="347" y="-34" on="1"/>
      </contour>
    </TTGlyph>
    <TTGlyph name="L" xMin="66" yMin="0" xMax="440" yMax="645">
      <contour>
        <pt x="429" y="0" on="1"/>
        <pt x="66" y="0" on="1"/>
        <pt x="75" y="191" on="1"/>
        <pt x="66" y="645" on="1"/>
        <pt x="231" y="645" on="1"/>
        <pt x="222" y="207" on="1"/>
        <pt x="225" y="133" on="1"/>
        <pt x="430" y="133" on="1"/>
        <pt x="440" y="121" on="1"/>
      </contour>
    </TTGlyph>
    <TTGlyph name="L.ss01" xMin="-100" yMin="0" xMax="513" yMax="508">
      <contour>
        <pt x="205" y="166" on="1"/>
        <pt x="207" y="126" on="1"/>
        <pt x="370" y="126" on="1"/>
        <pt x="378" y="115" on="1"/>
        <pt x="373" y="55" on="1"/>
        <pt x="513" y="55" on="1"/>
        <pt x="513" y="0" on="1"/>
        <pt x="-100" y="0" on="1"/>
        <pt x="-100" y="55" on="1"/>
        <pt x="66" y="55" on="1"/>
        <pt x="71" y="151" on="1"/>
        <pt x="65" y="453" on="1"/>
        <pt x="-100" y="453" on="1"/>
        <pt x="-100" y="508" on="1"/>
        <pt x="513" y="508" on="1"/>
        <pt x="513" y="453" on="1"/>
        <pt x="213" y="453" on="1"/>
      </contour>
    </TTGlyph>
    <TTGlyph name="Lacute" xMin="66" yMin="0" xMax="440" yMax="900">
      <component glyphName="L" x="0" y="0" flags="0x1000"/>
      <component glyphName="acute.cap" x="44" y="177" flags="0x1000"/>
    </TTGlyph>
    <TTGlyph name="Lcaron" xMin="66" yMin="0" xMax="460" yMax="645">
      <contour>
        <pt x="440" y="121" on="1"/>
        <pt x="430" y="0" on="1"/>
        <pt x="66" y="0" on="1"/>
        <pt x="75" y="191" on="1"/>
        <pt x="66" y="645" on="1"/>
        <pt x="231" y="645" on="1"/>
        <pt x="222" y="207" on="1"/>
        <pt x="225" y="133" on="1"/>
        <pt x="431" y="133" on="1"/>
      </contour>
      <contour>
        <pt x="338" y="588" on="1"/>
        <pt x="451" y="595" on="1"/>
        <pt x="460" y="585" on="1"/>
        <pt x="423" y="372" on="1"/>
        <pt x="355" y="362" on="1"/>
        <pt x="344" y="370" on="1"/>
      </contour>
    </TTGlyph>
    <TTGlyph name="Lcommaaccent" xMin="66" yMin="-285" xMax="440" yMax="645">
      <contour>
        <pt x="430" y="0" on="1"/>
        <pt x="66" y="0" on="1"/>
        <pt x="75" y="191" on="1"/>
        <pt x="66" y="645" on="1"/>
        <pt x="231" y="645" on="1"/>
        <pt x="222" y="207" on="1"/>
        <pt x="225" y="133" on="1"/>
        <pt x="431" y="133" on="1"/>
        <pt x="440" y="121" on="1"/>
      </contour>
      <contour>
        <pt x="316" y="-68" on="0"/>
        <pt x="316" y="-116" on="1"/>
        <pt x="316" y="-202" on="0"/>
        <pt x="198" y="-285" on="1"/>
        <pt x="154" y="-246" on="1"/>
        <pt x="153" y="-236" on="1"/>
        <pt x="202" y="-194" on="0"/>
        <pt x="202" y="-146" on="1"/>
        <pt x="202" y="-113" on="0"/>
        <pt x="173" y="-88" on="1"/>
        <pt x="174" y="-76" on="1"/>
        <pt x="225" y="-47" on="0"/>
        <pt x="275" y="-34" on="1"/>
      </contour>
    </TTGlyph>
    <TTGlyph name="Ldot" xMin="66" yMin="0" xMax="459" yMax="645">
      <component glyphName="L" x="0" y="0" flags="0x1000"/>
      <component glyphName="period" x="264" y="319" flags="0x1000"/>
    </TTGlyph>
    <TTGlyph name="Lslash" xMin="-6" yMin="0" xMax="458" yMax="645">
      <contour>
        <pt x="447" y="0" on="1"/>
        <pt x="84" y="0" on="1"/>
        <pt x="93" y="191" on="1"/>
        <pt x="92" y="228" on="1"/>
        <pt x="37" y="200" on="1"/>
        <pt x="23" y="208" on="1"/>
        <pt x="-6" y="302" on="1"/>
        <pt x="90" y="351" on="1"/>
        <pt x="84" y="645" on="1"/>
        <pt x="249" y="645" on="1"/>
        <pt x="245" y="430" on="1"/>
        <pt x="332" y="474" on="1"/>
        <pt x="347" y="467" on="1"/>
        <pt x="376" y="374" on="1"/>
        <pt x="242" y="305" on="1"/>
        <pt x="240" y="207" on="1"/>
        <pt x="243" y="133" on="1"/>
        <pt x="448" y="133" on="1"/>
        <pt x="458" y="121" on="1"/>
      </contour>
    </TTGlyph>
    <TTGlyph name="M" xMin="37" yMin="0" xMax="759" yMax="645">
      <contour>
        <pt x="616" y="0" on="1"/>
        <pt x="608" y="196" on="1"/>
        <pt x="590" y="408" on="1"/>
        <pt x="580" y="408" on="1"/>
        <pt x="452" y="65" on="1"/>
        <pt x="328" y="65" on="1"/>
        <pt x="216" y="408" on="1"/>
        <pt x="205" y="408" on="1"/>
        <pt x="185" y="211" on="1"/>
        <pt x="172" y="0" on="1"/>
        <pt x="37" y="0" on="1"/>
        <pt x="101" y="645" on="1"/>
        <pt x="288" y="645" on="1"/>
        <pt x="311" y="551" on="1"/>
        <pt x="394" y="275" on="1"/>
        <pt x="404" y="275" on="1"/>
        <pt x="494" y="548" on="1"/>
        <pt x="520" y="645" on="1"/>
        <pt x="704" y="645" on="1"/>
        <pt x="759" y="0" on="1"/>
      </contour>
    </TTGlyph>
    <TTGlyph name="M.ss01" xMin="-100" yMin="0" xMax="788" yMax="508">
      <contour>
        <pt x="624" y="55" on="1"/>
        <pt x="788" y="55" on="1"/>
        <pt x="788" y="0" on="1"/>
        <pt x="-100" y="0" on="1"/>
        <pt x="-100" y="55" on="1"/>
        <pt x="57" y="55" on="1"/>
        <pt x="98" y="453" on="1"/>
        <pt x="-100" y="453" on="1"/>
        <pt x="-100" y="508" on="1"/>
        <pt x="788" y="508" on="1"/>
        <pt x="788" y="453" on="1"/>
        <pt x="589" y="453" on="1"/>
      </contour>
      <contour>
        <pt x="278" y="453" on="1"/>
        <pt x="284" y="429" on="1"/>
        <pt x="337" y="273" on="1"/>
        <pt x="346" y="273" on="1"/>
        <pt x="404" y="426" on="1"/>
        <pt x="413" y="453" on="1"/>
      </contour>
      <contour>
        <pt x="498" y="174" on="1"/>
        <pt x="488" y="298" on="1"/>
        <pt x="480" y="298" on="1"/>
        <pt x="388" y="90" on="1"/>
        <pt x="279" y="90" on="1"/>
        <pt x="200" y="298" on="1"/>
        <pt x="192" y="298" on="1"/>
        <pt x="180" y="185" on="1"/>
        <pt x="175" y="55" on="1"/>
        <pt x="501" y="55" on="1"/>
      </contour>
    </TTGlyph>
    <TTGlyph name="N" xMin="70" yMin="0" xMax="631" yMax="648">
      <contour>
        <pt x="628" y="0" on="1"/>
        <pt x="452" y="0" on="1"/>
        <pt x="223" y="399" on="1"/>
        <pt x="213" y="399" on="1"/>
        <pt x="212" y="227" on="1"/>
        <pt x="219" y="0" on="1"/>
        <pt x="70" y="0" on="1"/>
        <pt x="79" y="190" on="1"/>
        <pt x="71" y="645" on="1"/>
        <pt x="247" y="645" on="1"/>
        <pt x="476" y="246" on="1"/>
        <pt x="486" y="246" on="1"/>
        <pt x="481" y="639" on="1"/>
        <pt x="631" y="648" on="1"/>
        <pt x="622" y="204" on="1"/>
      </contour>
    </TTGlyph>
    <TTGlyph name="Nacute" xMin="70" yMin="0" xMax="631" yMax="900">
      <component glyphName="N" x="0" y="0" flags="0x1000"/>
      <component glyphName="acute.cap" x="177" y="177" flags="0x1000"/>
    </TTGlyph>
    <TTGlyph name="Ncaron" xMin="70" yMin="0" xMax="631" yMax="888">
      <component glyphName="N" x="0" y="0" flags="0x1000"/>
      <component glyphName="caron.cap" x="157" y="177" flags="0x1000"/>
    </TTGlyph>
    <TTGlyph name="Ncommaaccent" xMin="70" yMin="-285" xMax="631" yMax="648">
      <contour>
        <pt x="628" y="0" on="1"/>
        <pt x="452" y="0" on="1"/>
        <pt x="223" y="399" on="1"/>
        <pt x="213" y="399" on="1"/>
        <pt x="212" y="227" on="1"/>
        <pt x="218" y="0" on="1"/>
        <pt x="70" y="0" on="1"/>
        <pt x="79" y="190" on="1"/>
        <pt x="71" y="645" on="1"/>
        <pt x="246" y="645" on="1"/>
        <pt x="475" y="246" on="1"/>
        <pt x="486" y="246" on="1"/>
        <pt x="481" y="639" on="1"/>
        <pt x="631" y="648" on="1"/>
        <pt x="621" y="204" on="1"/>
      </contour>
      <contour>
        <pt x="432" y="-68" on="0"/>
        <pt x="432" y="-116" on="1"/>
        <pt x="432" y="-202" on="0"/>
        <pt x="314" y="-285" on="1"/>
        <pt x="270" y="-246" on="1"/>
        <pt x="269" y="-236" on="1"/>
        <pt x="318" y="-194" on="0"/>
        <pt x="318" y="-146" on="1"/>
        <pt x="318" y="-113" on="0"/>
        <pt x="289" y="-88" on="1"/>
        <pt x="290" y="-76" on="1"/>
        <pt x="341" y="-47" on="0"/>
        <pt x="391" y="-34" on="1"/>
      </contour>
    </TTGlyph>
    <TTGlyph name="Ntilde" xMin="70" yMin="0" xMax="631" yMax="895">
      <component glyphName="N" x="0" y="0" flags="0x1000"/>
      <component glyphName="tilde" x="156" y="177" flags="0x1000"/>
    </TTGlyph>
    <TTGlyph name="O" xMin="24" yMin="-11" xMax="624" yMax="655">
      <contour>
        <pt x="474" y="655" on="0"/>
        <pt x="624" y="490" on="0"/>
        <pt x="624" y="338" on="1"/>
        <pt x="624" y="172" on="0"/>
        <pt x="460" y="-11" on="0"/>
        <pt x="311" y="-11" on="1"/>
        <pt x="174" y="-11" on="0"/>
        <pt x="24" y="158" on="0"/>
        <pt x="24" y="313" on="1"/>
        <pt x="24" y="477" on="0"/>
        <pt x="187" y="655" on="0"/>
        <pt x="336" y="655" on="1"/>
      </contour>
      <contour>
        <pt x="274" y="525" on="0"/>
        <pt x="218" y="489" on="0"/>
        <pt x="193" y="406" on="0"/>
        <pt x="193" y="335" on="1"/>
        <pt x="193" y="250" on="0"/>
        <pt x="219" y="154" on="0"/>
        <pt x="276" y="112" on="0"/>
        <pt x="325" y="112" on="1"/>
        <pt x="372" y="112" on="0"/>
        <pt x="428" y="149" on="0"/>
        <pt x="454" y="232" on="0"/>
        <pt x="454" y="304" on="1"/>
        <pt x="454" y="388" on="0"/>
        <pt x="428" y="483" on="0"/>
        <pt x="371" y="525" on="0"/>
        <pt x="322" y="525" on="1"/>
      </contour>
    </TTGlyph>
    <TTGlyph name="OE" xMin="24" yMin="-12" xMax="865" yMax="657">
      <contour>
        <pt x="400" y="657" on="0"/>
        <pt x="458" y="650" on="1"/>
        <pt x="531" y="645" on="0"/>
        <pt x="542" y="645" on="1"/>
        <pt x="856" y="645" on="1"/>
        <pt x="865" y="633" on="1"/>
        <pt x="854" y="513" on="1"/>
        <pt x="700" y="519" on="1"/>
        <pt x="587" y="519" on="1"/>
        <pt x="585" y="389" on="1"/>
        <pt x="689" y="389" on="1"/>
        <pt x="796" y="392" on="1"/>
        <pt x="805" y="380" on="1"/>
        <pt x="795" y="260" on="1"/>
        <pt x="678" y="263" on="1"/>
        <pt x="581" y="263" on="1"/>
        <pt x="581" y="205" on="1"/>
        <pt x="583" y="127" on="1"/>
        <pt x="688" y="126" on="1"/>
        <pt x="851" y="132" on="1"/>
        <pt x="861" y="120" on="1"/>
        <pt x="850" y="0" on="1"/>
        <pt x="542" y="0" on="1"/>
        <pt x="504" y="1" on="0"/>
        <pt x="437" y="-6" on="1"/>
        <pt x="367" y="-12" on="0"/>
        <pt x="328" y="-12" on="1"/>
        <pt x="183" y="-12" on="0"/>
        <pt x="24" y="159" on="0"/>
        <pt x="24" y="314" on="1"/>
        <pt x="24" y="477" on="0"/>
        <pt x="196" y="657" on="0"/>
        <pt x="350" y="657" on="1"/>
      </contour>
      <contour>
        <pt x="259" y="527" on="0"/>
        <pt x="193" y="435" on="0"/>
        <pt x="193" y="327" on="1"/>
        <pt x="193" y="211" on="0"/>
        <pt x="261" y="110" on="0"/>
        <pt x="341" y="110" on="1"/>
        <pt x="398" y="110" on="0"/>
        <pt x="417" y="124" on="1"/>
        <pt x="434" y="136" on="0"/>
        <pt x="433" y="172" on="1"/>
        <pt x="428" y="466" on="1"/>
        <pt x="428" y="502" on="0"/>
        <pt x="416" y="512" on="1"/>
        <pt x="398" y="527" on="0"/>
        <pt x="337" y="527" on="1"/>
      </contour>
    </TTGlyph>
    <TTGlyph name="Oacute" xMin="24" yMin="-11" xMax="624" yMax="900">
      <component glyphName="O" x="0" y="0" flags="0x1000"/>
      <component glyphName="acute.cap" x="152" y="177" flags="0x1000"/>
    </TTGlyph>
    <TTGlyph name="Obreve" xMin="24" yMin="-11" xMax="624" yMax="881">
      <component glyphName="O" x="0" y="0" flags="0x1000"/>
      <component glyphName="breve.cap" x="130" y="177" flags="0x1000"/>
    </TTGlyph>
    <TTGlyph name="Ocaron" xMin="24" yMin="-11" xMax="624" yMax="888">
      <component glyphName="O" x="0" y="0" flags="0x1000"/>
      <component glyphName="caron.cap" x="131" y="177" flags="0x1000"/>
    </TTGlyph>
    <TTGlyph name="Ocircumflex" xMin="24" yMin="-11" xMax="624" yMax="898">
      <contour>
        <pt x="244" y="839" on="0"/>
        <pt x="309" y="898" on="1"/>
        <pt x="339" y="898" on="1"/>
        <pt x="407" y="837" on="0"/>
        <pt x="481" y="788" on="1"/>
        <pt x="453" y="725" on="1"/>
        <pt x="438" y="725" on="1"/>
        <pt x="324" y="787" on="1"/>
        <pt x="341" y="797" on="0"/>
        <pt x="256" y="749" on="1"/>
        <pt x="211" y="725" on="1"/>
        <pt x="196" y="725" on="1"/>
        <pt x="168" y="788" on="1"/>
      </contour>
      <contour>
        <pt x="474" y="655" on="0"/>
        <pt x="624" y="490" on="0"/>
        <pt x="624" y="338" on="1"/>
        <pt x="624" y="171" on="0"/>
        <pt x="461" y="-11" on="0"/>
        <pt x="312" y="-11" on="1"/>
        <pt x="174" y="-11" on="0"/>
        <pt x="24" y="158" on="0"/>
        <pt x="24" y="313" on="1"/>
        <pt x="24" y="477" on="0"/>
        <pt x="187" y="655" on="0"/>
        <pt x="337" y="655" on="1"/>
      </contour>
      <contour>
        <pt x="274" y="525" on="0"/>
        <pt x="218" y="489" on="0"/>
        <pt x="193" y="406" on="0"/>
        <pt x="193" y="335" on="1"/>
        <pt x="193" y="250" on="0"/>
        <pt x="219" y="154" on="0"/>
        <pt x="276" y="112" on="0"/>
        <pt x="325" y="112" on="1"/>
        <pt x="372" y="112" on="0"/>
        <pt x="428" y="149" on="0"/>
        <pt x="454" y="232" on="0"/>
        <pt x="454" y="304" on="1"/>
        <pt x="454" y="388" on="0"/>
        <pt x="428" y="483" on="0"/>
        <pt x="371" y="525" on="0"/>
        <pt x="322" y="525" on="1"/>
      </contour>
    </TTGlyph>
    <TTGlyph name="Ocircumflexacute" xMin="24" yMin="-11" xMax="624" yMax="1018">
      <component glyphName="O" x="0" y="0" flags="0x1000"/>
      <component glyphName="circumflexacute" x="130" y="177" flags="0x1000"/>
    </TTGlyph>
    <TTGlyph name="Ocircumflexdotbelow" xMin="24" yMin="-210" xMax="624" yMax="896">
      <contour>
        <pt x="247" y="837" on="0"/>
        <pt x="312" y="896" on="1"/>
        <pt x="342" y="896" on="1"/>
        <pt x="410" y="835" on="0"/>
        <pt x="484" y="786" on="1"/>
        <pt x="456" y="723" on="1"/>
        <pt x="441" y="723" on="1"/>
        <pt x="327" y="785" on="1"/>
        <pt x="344" y="795" on="0"/>
        <pt x="259" y="747" on="1"/>
        <pt x="214" y="723" on="1"/>
        <pt x="199" y="723" on="1"/>
        <pt x="171" y="786" on="1"/>
      </contour>
      <contour>
        <pt x="474" y="655" on="0"/>
        <pt x="624" y="490" on="0"/>
        <pt x="624" y="338" on="1"/>
        <pt x="624" y="171" on="0"/>
        <pt x="461" y="-11" on="0"/>
        <pt x="312" y="-11" on="1"/>
        <pt x="174" y="-11" on="0"/>
        <pt x="24" y="158" on="0"/>
        <pt x="24" y="313" on="1"/>
        <pt x="24" y="477" on="0"/>
        <pt x="187" y="655" on="0"/>
        <pt x="337" y="655" on="1"/>
      </contour>
      <contour>
        <pt x="274" y="525" on="0"/>
        <pt x="218" y="489" on="0"/>
        <pt x="193" y="406" on="0"/>
        <pt x="193" y="335" on="1"/>
        <pt x="193" y="250" on="0"/>
        <pt x="219" y="154" on="0"/>
        <pt x="276" y="112" on="0"/>
        <pt x="325" y="112" on="1"/>
        <pt x="372" y="112" on="0"/>
        <pt x="428" y="149" on="0"/>
        <pt x="454" y="232" on="0"/>
        <pt x="454" y="304" on="1"/>
        <pt x="454" y="388" on="0"/>
        <pt x="428" y="483" on="0"/>
        <pt x="371" y="525" on="0"/>
        <pt x="322" y="525" on="1"/>
      </contour>
      <contour>
        <pt x="367" y="-44" on="0"/>
        <pt x="408" y="-86" on="0"/>
        <pt x="408" y="-123" on="1"/>
        <pt x="408" y="-163" on="0"/>
        <pt x="362" y="-210" on="0"/>
        <pt x="324" y="-210" on="1"/>
        <pt x="286" y="-210" on="0"/>
        <pt x="246" y="-168" on="0"/>
        <pt x="246" y="-130" on="1"/>
        <pt x="246" y="-91" on="0"/>
        <pt x="291" y="-44" on="0"/>
        <pt x="330" y="-44" on="1"/>
      </contour>
    </TTGlyph>
    <TTGlyph name="Ocircumflexgrave" xMin="24" yMin="-11" xMax="624" yMax="1018">
      <component glyphName="O" x="0" y="0" flags="0x1000"/>
      <component glyphName="circumflexgrave" x="130" y="177" flags="0x1000"/>
    </TTGlyph>
    <TTGlyph name="Ocircumflexhookabove" xMin="24" yMin="-11" xMax="624" yMax="1064">
      <contour>
        <pt x="466" y="1064" on="0"/>
        <pt x="514" y="1023" on="0"/>
        <pt x="514" y="990" on="1"/>
        <pt x="514" y="970" on="0"/>
        <pt x="490" y="934" on="0"/>
        <pt x="459" y="907" on="1"/>
        <pt x="482" y="869" on="1"/>
        <pt x="430" y="838" on="1"/>
        <pt x="385" y="906" on="1"/>
        <pt x="408" y="923" on="0"/>
        <pt x="436" y="961" on="0"/>
        <pt x="436" y="975" on="1"/>
        <pt x="436" y="997" on="0"/>
        <pt x="408" y="997" on="1"/>
        <pt x="375" y="997" on="0"/>
        <pt x="345" y="973" on="1"/>
        <pt x="321" y="1011" on="1"/>
        <pt x="371" y="1064" on="0"/>
        <pt x="430" y="1064" on="1"/>
      </contour>
      <contour>
        <pt x="243" y="819" on="0"/>
        <pt x="308" y="878" on="1"/>
        <pt x="338" y="878" on="1"/>
        <pt x="406" y="817" on="0"/>
        <pt x="480" y="768" on="1"/>
        <pt x="452" y="705" on="1"/>
        <pt x="437" y="705" on="1"/>
        <pt x="323" y="767" on="1"/>
        <pt x="340" y="777" on="0"/>
        <pt x="255" y="729" on="1"/>
        <pt x="210" y="705" on="1"/>
        <pt x="195" y="705" on="1"/>
        <pt x="167" y="768" on="1"/>
      </contour>
      <contour>
        <pt x="474" y="655" on="0"/>
        <pt x="624" y="490" on="0"/>
        <pt x="624" y="338" on="1"/>
        <pt x="624" y="171" on="0"/>
        <pt x="461" y="-11" on="0"/>
        <pt x="312" y="-11" on="1"/>
        <pt x="174" y="-11" on="0"/>
        <pt x="24" y="158" on="0"/>
        <pt x="24" y="313" on="1"/>
        <pt x="24" y="477" on="0"/>
        <pt x="187" y="655" on="0"/>
        <pt x="337" y="655" on="1"/>
      </contour>
      <contour>
        <pt x="274" y="525" on="0"/>
        <pt x="218" y="489" on="0"/>
        <pt x="193" y="406" on="0"/>
        <pt x="193" y="335" on="1"/>
        <pt x="193" y="250" on="0"/>
        <pt x="219" y="154" on="0"/>
        <pt x="276" y="112" on="0"/>
        <pt x="325" y="112" on="1"/>
        <pt x="372" y="112" on="0"/>
        <pt x="428" y="149" on="0"/>
        <pt x="454" y="232" on="0"/>
        <pt x="454" y="304" on="1"/>
        <pt x="454" y="388" on="0"/>
        <pt x="428" y="483" on="0"/>
        <pt x="371" y="525" on="0"/>
        <pt x="322" y="525" on="1"/>
      </contour>
    </TTGlyph>
    <TTGlyph name="Ocircumflextilde" xMin="24" yMin="-11" xMax="624" yMax="1047">
      <contour>
        <pt x="497" y="992" on="1"/>
        <pt x="428" y="901" on="1"/>
        <pt x="415" y="896" on="1"/>
        <pt x="388" y="899" on="0"/>
        <pt x="334" y="915" on="1"/>
        <pt x="288" y="928" on="0"/>
        <pt x="274" y="928" on="1"/>
        <pt x="262" y="928" on="0"/>
        <pt x="241" y="910" on="0"/>
        <pt x="219" y="884" on="0"/>
        <pt x="214" y="878" on="1"/>
        <pt x="202" y="878" on="1"/>
        <pt x="159" y="920" on="1"/>
        <pt x="159" y="932" on="1"/>
        <pt x="227" y="1024" on="1"/>
        <pt x="240" y="1029" on="1"/>
        <pt x="260" y="1026" on="0"/>
        <pt x="319" y="1011" on="1"/>
        <pt x="371" y="997" on="0"/>
        <pt x="381" y="997" on="1"/>
        <pt x="393" y="997" on="0"/>
        <pt x="416" y="1016" on="0"/>
        <pt x="437" y="1042" on="0"/>
        <pt x="441" y="1047" on="1"/>
        <pt x="454" y="1047" on="1"/>
        <pt x="497" y="1005" on="1"/>
      </contour>
      <contour>
        <pt x="243" y="819" on="0"/>
        <pt x="308" y="878" on="1"/>
        <pt x="338" y="878" on="1"/>
        <pt x="406" y="817" on="0"/>
        <pt x="480" y="768" on="1"/>
        <pt x="452" y="705" on="1"/>
        <pt x="437" y="705" on="1"/>
        <pt x="323" y="767" on="1"/>
        <pt x="340" y="777" on="0"/>
        <pt x="255" y="729" on="1"/>
        <pt x="210" y="705" on="1"/>
        <pt x="195" y="705" on="1"/>
        <pt x="167" y="768" on="1"/>
      </contour>
      <contour>
        <pt x="474" y="655" on="0"/>
        <pt x="624" y="490" on="0"/>
        <pt x="624" y="338" on="1"/>
        <pt x="624" y="171" on="0"/>
        <pt x="461" y="-11" on="0"/>
        <pt x="312" y="-11" on="1"/>
        <pt x="174" y="-11" on="0"/>
        <pt x="24" y="158" on="0"/>
        <pt x="24" y="313" on="1"/>
        <pt x="24" y="477" on="0"/>
        <pt x="187" y="655" on="0"/>
        <pt x="337" y="655" on="1"/>
      </contour>
      <contour>
        <pt x="274" y="525" on="0"/>
        <pt x="218" y="489" on="0"/>
        <pt x="193" y="406" on="0"/>
        <pt x="193" y="335" on="1"/>
        <pt x="193" y="250" on="0"/>
        <pt x="219" y="154" on="0"/>
        <pt x="276" y="112" on="0"/>
        <pt x="325" y="112" on="1"/>
        <pt x="372" y="112" on="0"/>
        <pt x="428" y="149" on="0"/>
        <pt x="454" y="232" on="0"/>
        <pt x="454" y="304" on="1"/>
        <pt x="454" y="388" on="0"/>
        <pt x="428" y="483" on="0"/>
        <pt x="371" y="525" on="0"/>
        <pt x="322" y="525" on="1"/>
      </contour>
    </TTGlyph>
    <TTGlyph name="Odieresis" xMin="24" yMin="-11" xMax="624" yMax="875">
      <contour>
        <pt x="270" y="875" on="0"/>
        <pt x="307" y="837" on="0"/>
        <pt x="307" y="804" on="1"/>
        <pt x="307" y="768" on="0"/>
        <pt x="267" y="726" on="0"/>
        <pt x="232" y="726" on="1"/>
        <pt x="198" y="726" on="0"/>
        <pt x="161" y="763" on="0"/>
        <pt x="161" y="797" on="1"/>
        <pt x="161" y="833" on="0"/>
        <pt x="202" y="875" on="0"/>
        <pt x="237" y="875" on="1"/>
      </contour>
      <contour>
        <pt x="452" y="875" on="0"/>
        <pt x="489" y="837" on="0"/>
        <pt x="489" y="804" on="1"/>
        <pt x="489" y="768" on="0"/>
        <pt x="449" y="726" on="0"/>
        <pt x="414" y="726" on="1"/>
        <pt x="380" y="726" on="0"/>
        <pt x="343" y="763" on="0"/>
        <pt x="343" y="797" on="1"/>
        <pt x="343" y="833" on="0"/>
        <pt x="384" y="875" on="0"/>
        <pt x="419" y="875" on="1"/>
      </contour>
      <contour>
        <pt x="474" y="655" on="0"/>
        <pt x="624" y="490" on="0"/>
        <pt x="624" y="338" on="1"/>
        <pt x="624" y="171" on="0"/>
        <pt x="461" y="-11" on="0"/>
        <pt x="312" y="-11" on="1"/>
        <pt x="174" y="-11" on="0"/>
        <pt x="24" y="158" on="0"/>
        <pt x="24" y="313" on="1"/>
        <pt x="24" y="477" on="0"/>
        <pt x="187" y="655" on="0"/>
        <pt x="337" y="655" on="1"/>
      </contour>
      <contour>
        <pt x="274" y="525" on="0"/>
        <pt x="218" y="489" on="0"/>
        <pt x="193" y="406" on="0"/>
        <pt x="193" y="335" on="1"/>
        <pt x="193" y="250" on="0"/>
        <pt x="219" y="154" on="0"/>
        <pt x="276" y="112" on="0"/>
        <pt x="325" y="112" on="1"/>
        <pt x="372" y="112" on="0"/>
        <pt x="428" y="149" on="0"/>
        <pt x="454" y="232" on="0"/>
        <pt x="454" y="304" on="1"/>
        <pt x="454" y="388" on="0"/>
        <pt x="428" y="483" on="0"/>
        <pt x="371" y="525" on="0"/>
        <pt x="322" y="525" on="1"/>
      </contour>
    </TTGlyph>
    <TTGlyph name="Odotbelow" xMin="24" yMin="-210" xMax="624" yMax="655">
      <contour>
        <pt x="474" y="655" on="0"/>
        <pt x="624" y="490" on="0"/>
        <pt x="624" y="338" on="1"/>
        <pt x="624" y="171" on="0"/>
        <pt x="461" y="-11" on="0"/>
        <pt x="312" y="-11" on="1"/>
        <pt x="174" y="-11" on="0"/>
        <pt x="24" y="158" on="0"/>
        <pt x="24" y="313" on="1"/>
        <pt x="24" y="477" on="0"/>
        <pt x="187" y="655" on="0"/>
        <pt x="337" y="655" on="1"/>
      </contour>
      <contour>
        <pt x="274" y="525" on="0"/>
        <pt x="218" y="489" on="0"/>
        <pt x="193" y="406" on="0"/>
        <pt x="193" y="335" on="1"/>
        <pt x="193" y="250" on="0"/>
        <pt x="219" y="154" on="0"/>
        <pt x="276" y="112" on="0"/>
        <pt x="325" y="112" on="1"/>
        <pt x="372" y="112" on="0"/>
        <pt x="428" y="149" on="0"/>
        <pt x="454" y="232" on="0"/>
        <pt x="454" y="304" on="1"/>
        <pt x="454" y="388" on="0"/>
        <pt x="428" y="483" on="0"/>
        <pt x="371" y="525" on="0"/>
        <pt x="322" y="525" on="1"/>
      </contour>
      <contour>
        <pt x="367" y="-44" on="0"/>
        <pt x="408" y="-86" on="0"/>
        <pt x="408" y="-123" on="1"/>
        <pt x="408" y="-163" on="0"/>
        <pt x="362" y="-210" on="0"/>
        <pt x="324" y="-210" on="1"/>
        <pt x="286" y="-210" on="0"/>
        <pt x="246" y="-168" on="0"/>
        <pt x="246" y="-130" on="1"/>
        <pt x="246" y="-91" on="0"/>
        <pt x="291" y="-44" on="0"/>
        <pt x="330" y="-44" on="1"/>
      </contour>
    </TTGlyph>
    <TTGlyph name="Ograve" xMin="24" yMin="-11" xMax="624" yMax="900">
      <contour>
        <pt x="353" y="837" on="0"/>
        <pt x="461" y="784" on="1"/>
        <pt x="436" y="718" on="1"/>
        <pt x="421" y="714" on="1"/>
        <pt x="290" y="755" on="0"/>
        <pt x="197" y="789" on="1"/>
        <pt x="192" y="802" on="1"/>
        <pt x="232" y="897" on="1"/>
        <pt x="246" y="900" on="1"/>
      </contour>
      <contour>
        <pt x="474" y="655" on="0"/>
        <pt x="624" y="490" on="0"/>
        <pt x="624" y="338" on="1"/>
        <pt x="624" y="171" on="0"/>
        <pt x="461" y="-11" on="0"/>
        <pt x="312" y="-11" on="1"/>
        <pt x="174" y="-11" on="0"/>
        <pt x="24" y="158" on="0"/>
        <pt x="24" y="313" on="1"/>
        <pt x="24" y="477" on="0"/>
        <pt x="187" y="655" on="0"/>
        <pt x="337" y="655" on="1"/>
      </contour>
      <contour>
        <pt x="274" y="525" on="0"/>
        <pt x="218" y="489" on="0"/>
        <pt x="193" y="406" on="0"/>
        <pt x="193" y="335" on="1"/>
        <pt x="193" y="250" on="0"/>
        <pt x="219" y="154" on="0"/>
        <pt x="276" y="112" on="0"/>
        <pt x="325" y="112" on="1"/>
        <pt x="372" y="112" on="0"/>
        <pt x="428" y="149" on="0"/>
        <pt x="454" y="232" on="0"/>
        <pt x="454" y="304" on="1"/>
        <pt x="454" y="388" on="0"/>
        <pt x="428" y="483" on="0"/>
        <pt x="371" y="525" on="0"/>
        <pt x="322" y="525" on="1"/>
      </contour>
    </TTGlyph>
    <TTGlyph name="Ohm" xMin="19" yMin="-7" xMax="739" yMax="655">
      <component glyphName="Omega" x="0" y="0" flags="0x1000"/>
    </TTGlyph>
    <TTGlyph name="Ohookabove" xMin="24" yMin="-11" xMax="624" yMax="931">
      <component glyphName="O" x="0" y="0" flags="0x1000"/>
      <component glyphName="hookabove" x="130" y="177" flags="0x1000"/>
    </TTGlyph>
    <TTGlyph name="Ohorn" xMin="24" yMin="-11" xMax="675" yMax="781">
      <contour>
        <pt x="632" y="781" on="0"/>
        <pt x="675" y="726" on="0"/>
        <pt x="675" y="684" on="1"/>
        <pt x="675" y="633" on="0"/>
        <pt x="609" y="564" on="0"/>
        <pt x="558" y="555" on="1"/>
        <pt x="624" y="473" on="0"/>
        <pt x="624" y="334" on="1"/>
        <pt x="624" y="227" on="0"/>
        <pt x="551" y="72" on="0"/>
        <pt x="411" y="-11" on="0"/>
        <pt x="314" y="-11" on="1"/>
        <pt x="174" y="-11" on="0"/>
        <pt x="24" y="158" on="0"/>
        <pt x="24" y="312" on="1"/>
        <pt x="24" y="420" on="0"/>
        <pt x="97" y="575" on="0"/>
        <pt x="232" y="655" on="0"/>
        <pt x="322" y="655" on="1"/>
        <pt x="378" y="655" on="0"/>
        <pt x="441" y="636" on="1"/>
        <pt x="481" y="625" on="0"/>
        <pt x="498" y="625" on="1"/>
        <pt x="523" y="625" on="0"/>
        <pt x="552" y="652" on="0"/>
        <pt x="552" y="675" on="1"/>
        <pt x="552" y="712" on="0"/>
        <pt x="522" y="739" on="1"/>
        <pt x="525" y="751" on="1"/>
        <pt x="567" y="781" on="0"/>
        <pt x="601" y="781" on="1"/>
      </contour>
      <contour>
        <pt x="273" y="525" on="0"/>
        <pt x="218" y="487" on="0"/>
        <pt x="193" y="402" on="0"/>
        <pt x="193" y="327" on="1"/>
        <pt x="193" y="247" on="0"/>
        <pt x="219" y="153" on="0"/>
        <pt x="277" y="112" on="0"/>
        <pt x="327" y="112" on="1"/>
        <pt x="374" y="112" on="0"/>
        <pt x="429" y="149" on="0"/>
        <pt x="454" y="236" on="0"/>
        <pt x="454" y="311" on="1"/>
        <pt x="454" y="391" on="0"/>
        <pt x="428" y="484" on="0"/>
        <pt x="370" y="525" on="0"/>
        <pt x="320" y="525" on="1"/>
      </contour>
    </TTGlyph>
    <TTGlyph name="Ohornacute" xMin="24" yMin="-11" xMax="675" yMax="900">
      <component glyphName="Ohorn" x="0" y="0" flags="0x1000"/>
      <component glyphName="acute.cap" x="152" y="177" flags="0x1000"/>
    </TTGlyph>
    <TTGlyph name="Ohorndotbelow" xMin="24" yMin="-210" xMax="676" yMax="781">
      <contour>
        <pt x="632" y="781" on="0"/>
        <pt x="676" y="725" on="0"/>
        <pt x="676" y="684" on="1"/>
        <pt x="676" y="633" on="0"/>
        <pt x="610" y="564" on="0"/>
        <pt x="559" y="555" on="1"/>
        <pt x="624" y="472" on="0"/>
        <pt x="624" y="334" on="1"/>
        <pt x="624" y="172" on="0"/>
        <pt x="461" y="-11" on="0"/>
        <pt x="314" y="-11" on="1"/>
        <pt x="174" y="-11" on="0"/>
        <pt x="24" y="158" on="0"/>
        <pt x="24" y="312" on="1"/>
        <pt x="24" y="420" on="0"/>
        <pt x="98" y="575" on="0"/>
        <pt x="232" y="655" on="0"/>
        <pt x="322" y="655" on="1"/>
        <pt x="377" y="655" on="0"/>
        <pt x="442" y="636" on="1"/>
        <pt x="480" y="625" on="0"/>
        <pt x="498" y="625" on="1"/>
        <pt x="523" y="625" on="0"/>
        <pt x="552" y="652" on="0"/>
        <pt x="552" y="675" on="1"/>
        <pt x="552" y="712" on="0"/>
        <pt x="522" y="739" on="1"/>
        <pt x="525" y="751" on="1"/>
        <pt x="567" y="781" on="0"/>
        <pt x="601" y="781" on="1"/>
      </contour>
      <contour>
        <pt x="273" y="525" on="0"/>
        <pt x="218" y="487" on="0"/>
        <pt x="193" y="402" on="0"/>
        <pt x="193" y="327" on="1"/>
        <pt x="193" y="247" on="0"/>
        <pt x="219" y="153" on="0"/>
        <pt x="277" y="112" on="0"/>
        <pt x="327" y="112" on="1"/>
        <pt x="374" y="112" on="0"/>
        <pt x="429" y="149" on="0"/>
        <pt x="454" y="236" on="0"/>
        <pt x="454" y="311" on="1"/>
        <pt x="454" y="391" on="0"/>
        <pt x="428" y="484" on="0"/>
        <pt x="370" y="525" on="0"/>
        <pt x="320" y="525" on="1"/>
      </contour>
      <contour>
        <pt x="367" y="-44" on="0"/>
        <pt x="408" y="-86" on="0"/>
        <pt x="408" y="-123" on="1"/>
        <pt x="408" y="-163" on="0"/>
        <pt x="362" y="-210" on="0"/>
        <pt x="324" y="-210" on="1"/>
        <pt x="286" y="-210" on="0"/>
        <pt x="246" y="-168" on="0"/>
        <pt x="246" y="-130" on="1"/>
        <pt x="246" y="-91" on="0"/>
        <pt x="291" y="-44" on="0"/>
        <pt x="330" y="-44" on="1"/>
      </contour>
    </TTGlyph>
    <TTGlyph name="Ohorngrave" xMin="24" yMin="-11" xMax="676" yMax="900">
      <contour>
        <pt x="353" y="837" on="0"/>
        <pt x="461" y="784" on="1"/>
        <pt x="436" y="718" on="1"/>
        <pt x="421" y="714" on="1"/>
        <pt x="290" y="755" on="0"/>
        <pt x="197" y="789" on="1"/>
        <pt x="192" y="802" on="1"/>
        <pt x="232" y="897" on="1"/>
        <pt x="246" y="900" on="1"/>
      </contour>
      <contour>
        <pt x="632" y="781" on="0"/>
        <pt x="676" y="725" on="0"/>
        <pt x="676" y="684" on="1"/>
        <pt x="676" y="633" on="0"/>
        <pt x="610" y="564" on="0"/>
        <pt x="559" y="555" on="1"/>
        <pt x="624" y="472" on="0"/>
        <pt x="624" y="334" on="1"/>
        <pt x="624" y="172" on="0"/>
        <pt x="461" y="-11" on="0"/>
        <pt x="314" y="-11" on="1"/>
        <pt x="174" y="-11" on="0"/>
        <pt x="24" y="158" on="0"/>
        <pt x="24" y="312" on="1"/>
        <pt x="24" y="420" on="0"/>
        <pt x="98" y="575" on="0"/>
        <pt x="232" y="655" on="0"/>
        <pt x="322" y="655" on="1"/>
        <pt x="377" y="655" on="0"/>
        <pt x="442" y="636" on="1"/>
        <pt x="480" y="625" on="0"/>
        <pt x="498" y="625" on="1"/>
        <pt x="523" y="625" on="0"/>
        <pt x="552" y="652" on="0"/>
        <pt x="552" y="675" on="1"/>
        <pt x="552" y="712" on="0"/>
        <pt x="522" y="739" on="1"/>
        <pt x="525" y="751" on="1"/>
        <pt x="567" y="781" on="0"/>
        <pt x="601" y="781" on="1"/>
      </contour>
      <contour>
        <pt x="273" y="525" on="0"/>
        <pt x="218" y="487" on="0"/>
        <pt x="193" y="402" on="0"/>
        <pt x="193" y="327" on="1"/>
        <pt x="193" y="247" on="0"/>
        <pt x="219" y="153" on="0"/>
        <pt x="277" y="112" on="0"/>
        <pt x="327" y="112" on="1"/>
        <pt x="374" y="112" on="0"/>
        <pt x="429" y="149" on="0"/>
        <pt x="454" y="236" on="0"/>
        <pt x="454" y="311" on="1"/>
        <pt x="454" y="391" on="0"/>
        <pt x="428" y="484" on="0"/>
        <pt x="370" y="525" on="0"/>
        <pt x="320" y="525" on="1"/>
      </contour>
    </TTGlyph>
    <TTGlyph name="Ohornhookabove" xMin="24" yMin="-11" xMax="675" yMax="931">
      <component glyphName="Ohorn" x="0" y="0" flags="0x1000"/>
      <component glyphName="hookabove" x="130" y="177" flags="0x1000"/>
    </TTGlyph>
    <TTGlyph name="Ohorntilde" xMin="24" yMin="-11" xMax="675" yMax="895">
      <component glyphName="Ohorn" x="0" y="0" flags="0x1000"/>
      <component glyphName="tilde" x="130" y="177" flags="0x1000"/>
    </TTGlyph>
    <TTGlyph name="Ohungarumlaut" xMin="24" yMin="-11" xMax="624" yMax="895">
      <component glyphName="O" x="0" y="0" flags="0x1000"/>
      <component glyphName="hungarumlaut.cap" x="153" y="177" flags="0x1000"/>
    </TTGlyph>
    <TTGlyph name="Omacron" xMin="24" yMin="-11" xMax="624" yMax="850">
      <component glyphName="O" x="0" y="0" flags="0x1000"/>
      <component glyphName="macron" x="130" y="177" flags="0x1000"/>
    </TTGlyph>
    <TTGlyph name="Omega" xMin="19" yMin="-7" xMax="739" yMax="655">
      <contour>
        <pt x="480" y="655" on="0"/>
        <pt x="613" y="586" on="0"/>
        <pt x="680" y="463" on="0"/>
        <pt x="680" y="382" on="1"/>
        <pt x="680" y="244" on="0"/>
        <pt x="576" y="125" on="1"/>
        <pt x="579" y="121" on="1"/>
        <pt x="646" y="121" on="1"/>
        <pt x="731" y="130" on="1"/>
        <pt x="739" y="120" on="1"/>
        <pt x="721" y="-7" on="1"/>
        <pt x="598" y="0" on="1"/>
        <pt x="453" y="0" on="1"/>
        <pt x="416" y="-3" on="1"/>
        <pt x="408" y="3" on="1"/>
        <pt x="408" y="98" on="1"/>
        <pt x="510" y="199" on="0"/>
        <pt x="510" y="350" on="1"/>
        <pt x="510" y="437" on="0"/>
        <pt x="446" y="525" on="0"/>
        <pt x="376" y="525" on="1"/>
        <pt x="308" y="525" on="0"/>
        <pt x="247" y="441" on="0"/>
        <pt x="247" y="357" on="1"/>
        <pt x="247" y="205" on="0"/>
        <pt x="348" y="98" on="1"/>
        <pt x="348" y="3" on="1"/>
        <pt x="341" y="-3" on="1"/>
        <pt x="304" y="0" on="1"/>
        <pt x="130" y="0" on="1"/>
        <pt x="27" y="-5" on="1"/>
        <pt x="19" y="5" on="1"/>
        <pt x="37" y="128" on="1"/>
        <pt x="131" y="120" on="1"/>
        <pt x="178" y="121" on="1"/>
        <pt x="180" y="125" on="1"/>
        <pt x="77" y="239" on="0"/>
        <pt x="77" y="371" on="1"/>
        <pt x="77" y="454" on="0"/>
        <pt x="149" y="582" on="0"/>
        <pt x="288" y="655" on="0"/>
        <pt x="385" y="655" on="1"/>
      </contour>
    </TTGlyph>
    <TTGlyph name="Oogonek" xMin="24" yMin="-197" xMax="624" yMax="655">
      <contour>
        <pt x="397" y="-58" on="0"/>
        <pt x="397" y="-77" on="1"/>
        <pt x="397" y="-113" on="0"/>
        <pt x="434" y="-113" on="1"/>
        <pt x="463" y="-113" on="0"/>
        <pt x="497" y="-87" on="1"/>
        <pt x="506" y="-87" on="1"/>
        <pt x="517" y="-149" on="1"/>
        <pt x="460" y="-197" on="0"/>
        <pt x="411" y="-197" on="1"/>
        <pt x="367" y="-197" on="0"/>
        <pt x="314" y="-145" on="0"/>
        <pt x="314" y="-105" on="1"/>
        <pt x="314" y="-63" on="0"/>
        <pt x="345" y="-20" on="1"/>
        <pt x="353" y="-9" on="1"/>
        <pt x="327" y="-11" on="0"/>
        <pt x="312" y="-11" on="1"/>
        <pt x="174" y="-11" on="0"/>
        <pt x="24" y="158" on="0"/>
        <pt x="24" y="313" on="1"/>
        <pt x="24" y="477" on="0"/>
        <pt x="187" y="655" on="0"/>
        <pt x="337" y="655" on="1"/>
        <pt x="474" y="655" on="0"/>
        <pt x="624" y="490" on="0"/>
        <pt x="624" y="338" on="1"/>
        <pt x="624" y="212" on="0"/>
        <pt x="530" y="45" on="0"/>
        <pt x="441" y="11" on="1"/>
        <pt x="413" y="-32" on="1"/>
      </contour>
      <contour>
        <pt x="193" y="250" on="0"/>
        <pt x="219" y="154" on="0"/>
        <pt x="276" y="112" on="0"/>
        <pt x="325" y="112" on="1"/>
        <pt x="372" y="112" on="0"/>
        <pt x="428" y="149" on="0"/>
        <pt x="454" y="232" on="0"/>
        <pt x="454" y="304" on="1"/>
        <pt x="454" y="388" on="0"/>
        <pt x="428" y="483" on="0"/>
        <pt x="371" y="525" on="0"/>
        <pt x="322" y="525" on="1"/>
        <pt x="274" y="525" on="0"/>
        <pt x="218" y="489" on="0"/>
        <pt x="193" y="406" on="0"/>
        <pt x="193" y="335" on="1"/>
      </contour>
    </TTGlyph>
    <TTGlyph name="Oslash" xMin="24" yMin="-127" xMax="624" yMax="761">
      <contour>
        <pt x="624" y="512" on="0"/>
        <pt x="624" y="338" on="1"/>
        <pt x="624" y="171" on="0"/>
        <pt x="461" y="-11" on="0"/>
        <pt x="312" y="-11" on="1"/>
        <pt x="273" y="-11" on="0"/>
        <pt x="236" y="-3" on="1"/>
        <pt x="176" y="-127" on="1"/>
        <pt x="75" y="-90" on="1"/>
        <pt x="68" y="-76" on="1"/>
        <pt x="127" y="47" on="1"/>
        <pt x="24" y="130" on="0"/>
        <pt x="24" y="313" on="1"/>
        <pt x="24" y="477" on="0"/>
        <pt x="187" y="655" on="0"/>
        <pt x="337" y="655" on="1"/>
        <pt x="381" y="655" on="0"/>
        <pt x="418" y="646" on="1"/>
        <pt x="474" y="761" on="1"/>
        <pt x="572" y="724" on="1"/>
        <pt x="581" y="708" on="1"/>
        <pt x="526" y="595" on="1"/>
      </contour>
      <contour>
        <pt x="372" y="112" on="0"/>
        <pt x="428" y="149" on="0"/>
        <pt x="454" y="232" on="0"/>
        <pt x="454" y="304" on="1"/>
        <pt x="454" y="388" on="0"/>
        <pt x="428" y="483" on="0"/>
        <pt x="371" y="525" on="0"/>
        <pt x="322" y="525" on="1"/>
        <pt x="274" y="525" on="0"/>
        <pt x="218" y="489" on="0"/>
        <pt x="193" y="406" on="0"/>
        <pt x="193" y="335" on="1"/>
        <pt x="193" y="250" on="0"/>
        <pt x="219" y="154" on="0"/>
        <pt x="276" y="112" on="0"/>
        <pt x="325" y="112" on="1"/>
      </contour>
    </TTGlyph>
    <TTGlyph name="Oslashacute" xMin="24" yMin="-127" xMax="624" yMax="902">
      <component glyphName="Oslash" x="0" y="0" flags="0x1000"/>
      <component glyphName="acute.cap" x="151" y="179" flags="0x1000"/>
    </TTGlyph>
    <TTGlyph name="Otilde" xMin="24" yMin="-11" xMax="624" yMax="895">
      <component glyphName="O" x="0" y="0" flags="0x1000"/>
      <component glyphName="tilde" x="130" y="177" flags="0x1000"/>
    </TTGlyph>
    <TTGlyph name="P" xMin="70" yMin="0" xMax="559" yMax="646">
      <contour>
        <pt x="446" y="646" on="0"/>
        <pt x="559" y="542" on="0"/>
        <pt x="559" y="446" on="1"/>
        <pt x="559" y="371" on="0"/>
        <pt x="491" y="258" on="0"/>
        <pt x="367" y="196" on="0"/>
        <pt x="285" y="196" on="1"/>
        <pt x="227" y="196" on="1"/>
        <pt x="233" y="0" on="1"/>
        <pt x="70" y="0" on="1"/>
        <pt x="79" y="191" on="1"/>
        <pt x="70" y="645" on="1"/>
        <pt x="342" y="646" on="1"/>
      </contour>
      <contour>
        <pt x="389" y="338" on="0"/>
        <pt x="389" y="430" on="1"/>
        <pt x="389" y="480" on="0"/>
        <pt x="340" y="528" on="0"/>
        <pt x="288" y="530" on="1"/>
        <pt x="234" y="527" on="1"/>
        <pt x="229" y="317" on="1"/>
        <pt x="314" y="313" on="1"/>
      </contour>
    </TTGlyph>
    <TTGlyph name="Q" xMin="24" yMin="-206" xMax="738" yMax="655">
      <contour>
        <pt x="705" y="-161" on="0"/>
        <pt x="661" y="-200" on="1"/>
        <pt x="649" y="-206" on="1"/>
        <pt x="475" y="-132" on="0"/>
        <pt x="330" y="-11" on="1"/>
        <pt x="312" y="-11" on="1"/>
        <pt x="174" y="-11" on="0"/>
        <pt x="24" y="158" on="0"/>
        <pt x="24" y="313" on="1"/>
        <pt x="24" y="477" on="0"/>
        <pt x="187" y="655" on="0"/>
        <pt x="336" y="655" on="1"/>
        <pt x="474" y="655" on="0"/>
        <pt x="624" y="490" on="0"/>
        <pt x="624" y="337" on="1"/>
        <pt x="624" y="224" on="0"/>
        <pt x="547" y="66" on="0"/>
        <pt x="475" y="27" on="1"/>
        <pt x="599" y="-45" on="0"/>
        <pt x="732" y="-81" on="1"/>
        <pt x="738" y="-97" on="1"/>
      </contour>
      <contour>
        <pt x="193" y="249" on="0"/>
        <pt x="219" y="154" on="0"/>
        <pt x="277" y="112" on="0"/>
        <pt x="326" y="112" on="1"/>
        <pt x="373" y="112" on="0"/>
        <pt x="428" y="149" on="0"/>
        <pt x="454" y="233" on="0"/>
        <pt x="454" y="305" on="1"/>
        <pt x="454" y="388" on="0"/>
        <pt x="428" y="483" on="0"/>
        <pt x="370" y="525" on="0"/>
        <pt x="321" y="525" on="1"/>
        <pt x="274" y="525" on="0"/>
        <pt x="218" y="488" on="0"/>
        <pt x="193" y="405" on="0"/>
        <pt x="193" y="333" on="1"/>
      </contour>
    </TTGlyph>
    <TTGlyph name="R" xMin="70" yMin="-11" xMax="595" yMax="646">
      <contour>
        <pt x="528" y="126" on="0"/>
        <pt x="595" y="38" on="1"/>
        <pt x="593" y="20" on="1"/>
        <pt x="517" y="-5" on="0"/>
        <pt x="432" y="-11" on="1"/>
        <pt x="416" y="2" on="1"/>
        <pt x="356" y="114" on="0"/>
        <pt x="312" y="207" on="1"/>
        <pt x="227" y="207" on="1"/>
        <pt x="233" y="0" on="1"/>
        <pt x="70" y="0" on="1"/>
        <pt x="79" y="191" on="1"/>
        <pt x="70" y="645" on="1"/>
        <pt x="342" y="646" on="1"/>
        <pt x="447" y="646" on="0"/>
        <pt x="560" y="545" on="0"/>
        <pt x="560" y="451" on="1"/>
        <pt x="560" y="392" on="0"/>
        <pt x="500" y="290" on="0"/>
        <pt x="445" y="255" on="1"/>
      </contour>
      <contour>
        <pt x="317" y="325" on="1"/>
        <pt x="389" y="351" on="0"/>
        <pt x="389" y="436" on="1"/>
        <pt x="389" y="483" on="0"/>
        <pt x="340" y="528" on="0"/>
        <pt x="288" y="530" on="1"/>
        <pt x="234" y="527" on="1"/>
        <pt x="230" y="329" on="1"/>
      </contour>
    </TTGlyph>
    <TTGlyph name="Racute" xMin="70" yMin="-11" xMax="595" yMax="914">
      <component glyphName="R" x="0" y="0" flags="0x1000"/>
      <component glyphName="acute" x="131" y="177" flags="0x1000"/>
    </TTGlyph>
    <TTGlyph name="Rcaron" xMin="70" yMin="-11" xMax="595" yMax="906">
      <component glyphName="R" x="0" y="0" flags="0x1000"/>
      <component glyphName="caron" x="111" y="177" flags="0x1000"/>
    </TTGlyph>
    <TTGlyph name="Rcommaaccent" xMin="70" yMin="-285" xMax="595" yMax="646">
      <contour>
        <pt x="518" y="140" on="0"/>
        <pt x="595" y="38" on="1"/>
        <pt x="592" y="20" on="1"/>
        <pt x="516" y="-5" on="0"/>
        <pt x="432" y="-11" on="1"/>
        <pt x="415" y="2" on="1"/>
        <pt x="340" y="146" on="0"/>
        <pt x="311" y="207" on="1"/>
        <pt x="226" y="207" on="1"/>
        <pt x="233" y="0" on="1"/>
        <pt x="70" y="0" on="1"/>
        <pt x="79" y="191" on="1"/>
        <pt x="70" y="645" on="1"/>
        <pt x="343" y="646" on="1"/>
        <pt x="447" y="646" on="0"/>
        <pt x="560" y="545" on="0"/>
        <pt x="560" y="451" on="1"/>
        <pt x="560" y="392" on="0"/>
        <pt x="500" y="290" on="0"/>
        <pt x="445" y="255" on="1"/>
      </contour>
      <contour>
        <pt x="317" y="325" on="1"/>
        <pt x="390" y="352" on="0"/>
        <pt x="390" y="436" on="1"/>
        <pt x="390" y="483" on="0"/>
        <pt x="340" y="528" on="0"/>
        <pt x="288" y="530" on="1"/>
        <pt x="233" y="527" on="1"/>
        <pt x="229" y="329" on="1"/>
      </contour>
      <contour>
        <pt x="387" y="-68" on="0"/>
        <pt x="387" y="-116" on="1"/>
        <pt x="387" y="-202" on="0"/>
        <pt x="269" y="-285" on="1"/>
        <pt x="225" y="-246" on="1"/>
        <pt x="224" y="-236" on="1"/>
        <pt x="273" y="-194" on="0"/>
        <pt x="273" y="-146" on="1"/>
        <pt x="273" y="-113" on="0"/>
        <pt x="244" y="-88" on="1"/>
        <pt x="245" y="-76" on="1"/>
        <pt x="296" y="-47" on="0"/>
        <pt x="346" y="-34" on="1"/>
      </contour>
    </TTGlyph>
    <TTGlyph name="S" xMin="26" yMin="-10" xMax="481" yMax="655">
      <contour>
        <pt x="379" y="655" on="0"/>
        <pt x="467" y="621" on="1"/>
        <pt x="441" y="485" on="1"/>
        <pt x="417" y="476" on="1"/>
        <pt x="335" y="529" on="0"/>
        <pt x="275" y="529" on="1"/>
        <pt x="242" y="529" on="0"/>
        <pt x="203" y="496" on="0"/>
        <pt x="203" y="474" on="1"/>
        <pt x="203" y="449" on="0"/>
        <pt x="252" y="414" on="0"/>
        <pt x="305" y="390" on="1"/>
        <pt x="361" y="364" on="0"/>
        <pt x="430" y="321" on="0"/>
        <pt x="481" y="249" on="0"/>
        <pt x="481" y="197" on="1"/>
        <pt x="481" y="139" on="0"/>
        <pt x="418" y="45" on="0"/>
        <pt x="302" y="-10" on="0"/>
        <pt x="226" y="-10" on="1"/>
        <pt x="125" y="-10" on="0"/>
        <pt x="26" y="30" on="1"/>
        <pt x="49" y="175" on="1"/>
        <pt x="66" y="185" on="1"/>
        <pt x="108" y="150" on="0"/>
        <pt x="207" y="111" on="0"/>
        <pt x="243" y="111" on="1"/>
        <pt x="281" y="111" on="0"/>
        <pt x="320" y="145" on="0"/>
        <pt x="320" y="168" on="1"/>
        <pt x="320" y="195" on="0"/>
        <pt x="270" y="231" on="0"/>
        <pt x="217" y="255" on="1"/>
        <pt x="163" y="280" on="0"/>
        <pt x="94" y="323" on="0"/>
        <pt x="44" y="395" on="0"/>
        <pt x="44" y="447" on="1"/>
        <pt x="44" y="506" on="0"/>
        <pt x="107" y="601" on="0"/>
        <pt x="220" y="655" on="0"/>
        <pt x="293" y="655" on="1"/>
      </contour>
    </TTGlyph>
    <TTGlyph name="Sacute" xMin="26" yMin="-10" xMax="481" yMax="914">
      <component glyphName="S" x="0" y="0" flags="0x1000"/>
      <component glyphName="acute" x="94" y="177" flags="0x1000"/>
    </TTGlyph>
    <TTGlyph name="Scaron" xMin="26" yMin="-10" xMax="481" yMax="906">
      <component glyphName="S" x="0" y="0" flags="0x1000"/>
      <component glyphName="caron" x="73" y="177" flags="0x1000"/>
    </TTGlyph>
    <TTGlyph name="Scedilla" xMin="26" yMin="-203" xMax="481" yMax="655">
      <contour>
        <pt x="481" y="120" on="0"/>
        <pt x="372" y="7" on="0"/>
        <pt x="280" y="-6" on="1"/>
        <pt x="272" y="-45" on="1"/>
        <pt x="306" y="-64" on="1"/>
        <pt x="348" y="-86" on="0"/>
        <pt x="348" y="-125" on="1"/>
        <pt x="348" y="-159" on="0"/>
        <pt x="293" y="-203" on="0"/>
        <pt x="247" y="-203" on="1"/>
        <pt x="203" y="-203" on="0"/>
        <pt x="161" y="-177" on="1"/>
        <pt x="171" y="-113" on="1"/>
        <pt x="178" y="-110" on="1"/>
        <pt x="209" y="-139" on="0"/>
        <pt x="237" y="-139" on="1"/>
        <pt x="258" y="-139" on="0"/>
        <pt x="258" y="-121" on="1"/>
        <pt x="258" y="-110" on="0"/>
        <pt x="243" y="-103" on="1"/>
        <pt x="194" y="-76" on="1"/>
        <pt x="208" y="-10" on="1"/>
        <pt x="116" y="-5" on="0"/>
        <pt x="26" y="30" on="1"/>
        <pt x="49" y="175" on="1"/>
        <pt x="66" y="185" on="1"/>
        <pt x="108" y="150" on="0"/>
        <pt x="207" y="111" on="0"/>
        <pt x="244" y="111" on="1"/>
        <pt x="281" y="111" on="0"/>
        <pt x="320" y="145" on="0"/>
        <pt x="320" y="168" on="1"/>
        <pt x="320" y="195" on="0"/>
        <pt x="270" y="231" on="0"/>
        <pt x="217" y="255" on="1"/>
        <pt x="163" y="280" on="0"/>
        <pt x="94" y="323" on="0"/>
        <pt x="44" y="395" on="0"/>
        <pt x="44" y="447" on="1"/>
        <pt x="44" y="506" on="0"/>
        <pt x="107" y="601" on="0"/>
        <pt x="220" y="655" on="0"/>
        <pt x="293" y="655" on="1"/>
        <pt x="380" y="655" on="0"/>
        <pt x="467" y="621" on="1"/>
        <pt x="441" y="485" on="1"/>
        <pt x="418" y="476" on="1"/>
        <pt x="380" y="501" on="0"/>
        <pt x="303" y="529" on="0"/>
        <pt x="276" y="529" on="1"/>
        <pt x="242" y="529" on="0"/>
        <pt x="203" y="496" on="0"/>
        <pt x="203" y="474" on="1"/>
        <pt x="203" y="449" on="0"/>
        <pt x="252" y="414" on="0"/>
        <pt x="305" y="390" on="1"/>
        <pt x="361" y="364" on="0"/>
        <pt x="430" y="321" on="0"/>
        <pt x="481" y="249" on="0"/>
        <pt x="481" y="197" on="1"/>
      </contour>
    </TTGlyph>
    <TTGlyph name="Scircumflex" xMin="26" yMin="-10" xMax="481" yMax="909">
      <contour>
        <pt x="163" y="819" on="0"/>
        <pt x="251" y="909" on="1"/>
        <pt x="282" y="909" on="1"/>
        <pt x="349" y="839" on="0"/>
        <pt x="432" y="764" on="1"/>
        <pt x="393" y="705" on="1"/>
        <pt x="378" y="705" on="1"/>
        <pt x="301" y="760" on="0"/>
        <pt x="267" y="791" on="1"/>
        <pt x="235" y="764" on="0"/>
        <pt x="156" y="705" on="1"/>
        <pt x="140" y="705" on="1"/>
        <pt x="101" y="764" on="1"/>
      </contour>
      <contour>
        <pt x="380" y="655" on="0"/>
        <pt x="467" y="621" on="1"/>
        <pt x="441" y="485" on="1"/>
        <pt x="418" y="476" on="1"/>
        <pt x="380" y="501" on="0"/>
        <pt x="303" y="529" on="0"/>
        <pt x="276" y="529" on="1"/>
        <pt x="242" y="529" on="0"/>
        <pt x="203" y="496" on="0"/>
        <pt x="203" y="474" on="1"/>
        <pt x="203" y="449" on="0"/>
        <pt x="252" y="414" on="0"/>
        <pt x="305" y="390" on="1"/>
        <pt x="361" y="364" on="0"/>
        <pt x="430" y="321" on="0"/>
        <pt x="481" y="249" on="0"/>
        <pt x="481" y="197" on="1"/>
        <pt x="481" y="139" on="0"/>
        <pt x="418" y="45" on="0"/>
        <pt x="303" y="-10" on="0"/>
        <pt x="227" y="-10" on="1"/>
        <pt x="125" y="-10" on="0"/>
        <pt x="26" y="30" on="1"/>
        <pt x="49" y="175" on="1"/>
        <pt x="66" y="185" on="1"/>
        <pt x="108" y="150" on="0"/>
        <pt x="207" y="111" on="0"/>
        <pt x="244" y="111" on="1"/>
        <pt x="281" y="111" on="0"/>
        <pt x="320" y="145" on="0"/>
        <pt x="320" y="168" on="1"/>
        <pt x="320" y="195" on="0"/>
        <pt x="270" y="231" on="0"/>
        <pt x="217" y="255" on="1"/>
        <pt x="163" y="280" on="0"/>
        <pt x="94" y="323" on="0"/>
        <pt x="44" y="395" on="0"/>
        <pt x="44" y="447" on="1"/>
        <pt x="44" y="506" on="0"/>
        <pt x="107" y="601" on="0"/>
        <pt x="220" y="655" on="0"/>
        <pt x="293" y="655" on="1"/>
      </contour>
    </TTGlyph>
    <TTGlyph name="Scommaaccent" xMin="26" yMin="-285" xMax="481" yMax="655">
      <contour>
        <pt x="380" y="655" on="0"/>
        <pt x="467" y="621" on="1"/>
        <pt x="441" y="485" on="1"/>
        <pt x="418" y="476" on="1"/>
        <pt x="380" y="501" on="0"/>
        <pt x="303" y="529" on="0"/>
        <pt x="276" y="529" on="1"/>
        <pt x="242" y="529" on="0"/>
        <pt x="203" y="496" on="0"/>
        <pt x="203" y="474" on="1"/>
        <pt x="203" y="449" on="0"/>
        <pt x="252" y="414" on="0"/>
        <pt x="305" y="390" on="1"/>
        <pt x="361" y="364" on="0"/>
        <pt x="430" y="321" on="0"/>
        <pt x="481" y="249" on="0"/>
        <pt x="481" y="197" on="1"/>
        <pt x="481" y="139" on="0"/>
        <pt x="418" y="45" on="0"/>
        <pt x="303" y="-10" on="0"/>
        <pt x="227" y="-10" on="1"/>
        <pt x="125" y="-10" on="0"/>
        <pt x="26" y="30" on="1"/>
        <pt x="49" y="175" on="1"/>
        <pt x="66" y="185" on="1"/>
        <pt x="108" y="150" on="0"/>
        <pt x="207" y="111" on="0"/>
        <pt x="244" y="111" on="1"/>
        <pt x="281" y="111" on="0"/>
        <pt x="320" y="145" on="0"/>
        <pt x="320" y="168" on="1"/>
        <pt x="320" y="195" on="0"/>
        <pt x="270" y="231" on="0"/>
        <pt x="217" y="255" on="1"/>
        <pt x="163" y="280" on="0"/>
        <pt x="94" y="323" on="0"/>
        <pt x="44" y="395" on="0"/>
        <pt x="44" y="447" on="1"/>
        <pt x="44" y="506" on="0"/>
        <pt x="107" y="601" on="0"/>
        <pt x="220" y="655" on="0"/>
        <pt x="293" y="655" on="1"/>
      </contour>
      <contour>
        <pt x="329" y="-68" on="0"/>
        <pt x="329" y="-116" on="1"/>
        <pt x="329" y="-202" on="0"/>
        <pt x="211" y="-285" on="1"/>
        <pt x="167" y="-246" on="1"/>
        <pt x="166" y="-236" on="1"/>
        <pt x="215" y="-194" on="0"/>
        <pt x="215" y="-146" on="1"/>
        <pt x="215" y="-113" on="0"/>
        <pt x="186" y="-88" on="1"/>
        <pt x="187" y="-76" on="1"/>
        <pt x="238" y="-47" on="0"/>
        <pt x="288" y="-34" on="1"/>
      </contour>
    </TTGlyph>
    <TTGlyph name="T" xMin="12" yMin="0" xMax="499" yMax="645">
      <contour>
        <pt x="490" y="514" on="1"/>
        <pt x="364" y="520" on="1"/>
        <pt x="336" y="520" on="1"/>
        <pt x="331" y="207" on="1"/>
        <pt x="337" y="0" on="1"/>
        <pt x="175" y="0" on="1"/>
        <pt x="184" y="191" on="1"/>
        <pt x="179" y="520" on="1"/>
        <pt x="149" y="520" on="1"/>
        <pt x="22" y="514" on="1"/>
        <pt x="12" y="526" on="1"/>
        <pt x="22" y="645" on="1"/>
        <pt x="490" y="645" on="1"/>
        <pt x="499" y="633" on="1"/>
      </contour>
    </TTGlyph>
    <TTGlyph name="Tbar" xMin="12" yMin="0" xMax="499" yMax="645">
      <contour>
        <pt x="333" y="338" on="1"/>
        <pt x="428" y="338" on="1"/>
        <pt x="438" y="328" on="1"/>
        <pt x="432" y="253" on="1"/>
        <pt x="332" y="253" on="1"/>
        <pt x="331" y="207" on="1"/>
        <pt x="337" y="0" on="1"/>
        <pt x="175" y="0" on="1"/>
        <pt x="184" y="191" on="1"/>
        <pt x="183" y="253" on="1"/>
        <pt x="97" y="253" on="1"/>
        <pt x="87" y="264" on="1"/>
        <pt x="93" y="338" on="1"/>
        <pt x="182" y="338" on="1"/>
        <pt x="179" y="520" on="1"/>
        <pt x="149" y="520" on="1"/>
        <pt x="22" y="514" on="1"/>
        <pt x="12" y="526" on="1"/>
        <pt x="22" y="645" on="1"/>
        <pt x="489" y="645" on="1"/>
        <pt x="499" y="633" on="1"/>
        <pt x="489" y="514" on="1"/>
        <pt x="364" y="520" on="1"/>
        <pt x="336" y="520" on="1"/>
      </contour>
    </TTGlyph>
    <TTGlyph name="Tcaron" xMin="12" yMin="0" xMax="499" yMax="906">
      <component glyphName="T" x="0" y="0" flags="0x1000"/>
      <component glyphName="caron" x="64" y="177" flags="0x1000"/>
    </TTGlyph>
    <TTGlyph name="Tcedilla" xMin="12" yMin="-203" xMax="499" yMax="645">
      <contour>
        <pt x="489" y="514" on="1"/>
        <pt x="364" y="520" on="1"/>
        <pt x="336" y="520" on="1"/>
        <pt x="331" y="207" on="1"/>
        <pt x="337" y="0" on="1"/>
        <pt x="289" y="0" on="1"/>
        <pt x="279" y="-45" on="1"/>
        <pt x="313" y="-64" on="1"/>
        <pt x="355" y="-86" on="0"/>
        <pt x="355" y="-125" on="1"/>
        <pt x="355" y="-159" on="0"/>
        <pt x="300" y="-203" on="0"/>
        <pt x="254" y="-203" on="1"/>
        <pt x="210" y="-203" on="0"/>
        <pt x="168" y="-177" on="1"/>
        <pt x="178" y="-113" on="1"/>
        <pt x="185" y="-110" on="1"/>
        <pt x="216" y="-139" on="0"/>
        <pt x="244" y="-139" on="1"/>
        <pt x="265" y="-139" on="0"/>
        <pt x="265" y="-121" on="1"/>
        <pt x="265" y="-111" on="0"/>
        <pt x="250" y="-103" on="1"/>
        <pt x="201" y="-76" on="1"/>
        <pt x="217" y="0" on="1"/>
        <pt x="175" y="0" on="1"/>
        <pt x="184" y="191" on="1"/>
        <pt x="179" y="520" on="1"/>
        <pt x="149" y="520" on="1"/>
        <pt x="22" y="514" on="1"/>
        <pt x="12" y="526" on="1"/>
        <pt x="22" y="645" on="1"/>
        <pt x="489" y="645" on="1"/>
        <pt x="499" y="633" on="1"/>
      </contour>
    </TTGlyph>
    <TTGlyph name="Thorn" xMin="71" yMin="0" xMax="566" yMax="645">
      <contour>
        <pt x="453" y="549" on="0"/>
        <pt x="566" y="447" on="0"/>
        <pt x="566" y="347" on="1"/>
        <pt x="566" y="232" on="0"/>
        <pt x="422" y="105" on="0"/>
        <pt x="289" y="105" on="1"/>
        <pt x="231" y="104" on="1"/>
        <pt x="235" y="0" on="1"/>
        <pt x="71" y="0" on="1"/>
        <pt x="79" y="191" on="1"/>
        <pt x="73" y="546" on="1"/>
        <pt x="71" y="548" on="1"/>
        <pt x="73" y="548" on="1"/>
        <pt x="71" y="645" on="1"/>
        <pt x="237" y="645" on="1"/>
        <pt x="235" y="549" on="1"/>
        <pt x="347" y="549" on="1"/>
      </contour>
      <contour>
        <pt x="355" y="234" on="0"/>
        <pt x="394" y="288" on="0"/>
        <pt x="394" y="335" on="1"/>
        <pt x="394" y="385" on="0"/>
        <pt x="345" y="431" on="0"/>
        <pt x="292" y="433" on="1"/>
        <pt x="233" y="429" on="1"/>
        <pt x="228" y="225" on="1"/>
        <pt x="317" y="221" on="1"/>
      </contour>
    </TTGlyph>
    <TTGlyph name="U" xMin="56" yMin="-10" xMax="591" yMax="645">
      <contour>
        <pt x="584" y="225" on="1"/>
        <pt x="585" y="112" on="0"/>
        <pt x="444" y="-10" on="0"/>
        <pt x="314" y="-10" on="1"/>
        <pt x="188" y="-10" on="0"/>
        <pt x="55" y="110" on="0"/>
        <pt x="58" y="222" on="1"/>
        <pt x="60" y="320" on="1"/>
        <pt x="56" y="645" on="1"/>
        <pt x="218" y="645" on="1"/>
        <pt x="211" y="244" on="1"/>
        <pt x="210" y="180" on="0"/>
        <pt x="264" y="120" on="0"/>
        <pt x="321" y="120" on="1"/>
        <pt x="379" y="120" on="0"/>
        <pt x="434" y="179" on="0"/>
        <pt x="433" y="240" on="1"/>
        <pt x="426" y="645" on="1"/>
        <pt x="591" y="645" on="1"/>
        <pt x="585" y="318" on="1"/>
      </contour>
    </TTGlyph>
    <TTGlyph name="Uacute" xMin="56" yMin="-10" xMax="591" yMax="900">
      <component glyphName="U" x="0" y="0" flags="0x1000"/>
      <component glyphName="acute.cap" x="151" y="177" flags="0x1000"/>
    </TTGlyph>
    <TTGlyph name="Ubreve" xMin="56" yMin="-10" xMax="591" yMax="890">
      <component glyphName="U" x="0" y="0" flags="0x1000"/>
      <component glyphName="breve" x="130" y="177" flags="0x1000"/>
    </TTGlyph>
    <TTGlyph name="Ucaron" xMin="56" yMin="-10" xMax="591" yMax="906">
      <component glyphName="U" x="0" y="0" flags="0x1000"/>
      <component glyphName="caron" x="130" y="177" flags="0x1000"/>
    </TTGlyph>
    <TTGlyph name="Ucircumflex" xMin="56" yMin="-10" xMax="590" yMax="898">
      <contour>
        <pt x="244" y="839" on="0"/>
        <pt x="309" y="898" on="1"/>
        <pt x="339" y="898" on="1"/>
        <pt x="407" y="837" on="0"/>
        <pt x="481" y="788" on="1"/>
        <pt x="453" y="725" on="1"/>
        <pt x="438" y="725" on="1"/>
        <pt x="324" y="787" on="1"/>
        <pt x="341" y="797" on="0"/>
        <pt x="256" y="749" on="1"/>
        <pt x="211" y="725" on="1"/>
        <pt x="196" y="725" on="1"/>
        <pt x="168" y="788" on="1"/>
      </contour>
      <contour>
        <pt x="584" y="225" on="1"/>
        <pt x="584" y="112" on="0"/>
        <pt x="444" y="-10" on="0"/>
        <pt x="313" y="-10" on="1"/>
        <pt x="188" y="-10" on="0"/>
        <pt x="55" y="110" on="0"/>
        <pt x="58" y="222" on="1"/>
        <pt x="60" y="320" on="1"/>
        <pt x="56" y="645" on="1"/>
        <pt x="218" y="645" on="1"/>
        <pt x="211" y="244" on="1"/>
        <pt x="210" y="180" on="0"/>
        <pt x="263" y="120" on="0"/>
        <pt x="321" y="120" on="1"/>
        <pt x="379" y="120" on="0"/>
        <pt x="434" y="179" on="0"/>
        <pt x="433" y="240" on="1"/>
        <pt x="426" y="645" on="1"/>
        <pt x="590" y="645" on="1"/>
        <pt x="585" y="318" on="1"/>
      </contour>
    </TTGlyph>
    <TTGlyph name="Udieresis" xMin="56" yMin="-10" xMax="590" yMax="875">
      <contour>
        <pt x="270" y="875" on="0"/>
        <pt x="307" y="837" on="0"/>
        <pt x="307" y="804" on="1"/>
        <pt x="307" y="768" on="0"/>
        <pt x="267" y="726" on="0"/>
        <pt x="232" y="726" on="1"/>
        <pt x="198" y="726" on="0"/>
        <pt x="161" y="763" on="0"/>
        <pt x="161" y="797" on="1"/>
        <pt x="161" y="833" on="0"/>
        <pt x="202" y="875" on="0"/>
        <pt x="237" y="875" on="1"/>
      </contour>
      <contour>
        <pt x="452" y="875" on="0"/>
        <pt x="489" y="837" on="0"/>
        <pt x="489" y="804" on="1"/>
        <pt x="489" y="768" on="0"/>
        <pt x="449" y="726" on="0"/>
        <pt x="414" y="726" on="1"/>
        <pt x="380" y="726" on="0"/>
        <pt x="343" y="763" on="0"/>
        <pt x="343" y="797" on="1"/>
        <pt x="343" y="833" on="0"/>
        <pt x="384" y="875" on="0"/>
        <pt x="419" y="875" on="1"/>
      </contour>
      <contour>
        <pt x="584" y="225" on="1"/>
        <pt x="584" y="112" on="0"/>
        <pt x="444" y="-10" on="0"/>
        <pt x="313" y="-10" on="1"/>
        <pt x="188" y="-10" on="0"/>
        <pt x="55" y="110" on="0"/>
        <pt x="58" y="222" on="1"/>
        <pt x="60" y="320" on="1"/>
        <pt x="56" y="645" on="1"/>
        <pt x="218" y="645" on="1"/>
        <pt x="211" y="244" on="1"/>
        <pt x="210" y="180" on="0"/>
        <pt x="263" y="120" on="0"/>
        <pt x="321" y="120" on="1"/>
        <pt x="379" y="120" on="0"/>
        <pt x="434" y="179" on="0"/>
        <pt x="433" y="240" on="1"/>
        <pt x="426" y="645" on="1"/>
        <pt x="590" y="645" on="1"/>
        <pt x="585" y="318" on="1"/>
      </contour>
    </TTGlyph>
    <TTGlyph name="Udieresisacute" xMin="56" yMin="-10" xMax="591" yMax="1048">
      <component glyphName="U" x="0" y="0" flags="0x1000"/>
      <component glyphName="dieresisacute" x="129" y="177" flags="0x1000"/>
    </TTGlyph>
    <TTGlyph name="Udieresiscaron" xMin="56" yMin="-10" xMax="591" yMax="1034">
      <component glyphName="U" x="0" y="0" flags="0x1000"/>
      <component glyphName="dieresiscaron" x="129" y="177" flags="0x1000"/>
    </TTGlyph>
    <TTGlyph name="Udieresisgrave" xMin="56" yMin="-10" xMax="591" yMax="1048">
      <component glyphName="U" x="0" y="0" flags="0x1000"/>
      <component glyphName="dieresisgrave" x="129" y="177" flags="0x1000"/>
    </TTGlyph>
    <TTGlyph name="Udieresismacron" xMin="56" yMin="-10" xMax="591" yMax="1004">
      <component glyphName="U" x="0" y="0" flags="0x1000"/>
      <component glyphName="dieresismacron" x="129" y="177" flags="0x1000"/>
    </TTGlyph>
    <TTGlyph name="Udotbelow" xMin="56" yMin="-210" xMax="590" yMax="645">
      <contour>
        <pt x="584" y="225" on="1"/>
        <pt x="584" y="112" on="0"/>
        <pt x="444" y="-10" on="0"/>
        <pt x="313" y="-10" on="1"/>
        <pt x="188" y="-10" on="0"/>
        <pt x="55" y="110" on="0"/>
        <pt x="58" y="222" on="1"/>
        <pt x="60" y="320" on="1"/>
        <pt x="56" y="645" on="1"/>
        <pt x="218" y="645" on="1"/>
        <pt x="211" y="244" on="1"/>
        <pt x="210" y="180" on="0"/>
        <pt x="263" y="120" on="0"/>
        <pt x="321" y="120" on="1"/>
        <pt x="379" y="120" on="0"/>
        <pt x="434" y="179" on="0"/>
        <pt x="433" y="240" on="1"/>
        <pt x="426" y="645" on="1"/>
        <pt x="590" y="645" on="1"/>
        <pt x="585" y="318" on="1"/>
      </contour>
      <contour>
        <pt x="361" y="-44" on="0"/>
        <pt x="402" y="-86" on="0"/>
        <pt x="402" y="-123" on="1"/>
        <pt x="402" y="-163" on="0"/>
        <pt x="356" y="-210" on="0"/>
        <pt x="318" y="-210" on="1"/>
        <pt x="280" y="-210" on="0"/>
        <pt x="240" y="-168" on="0"/>
        <pt x="240" y="-130" on="1"/>
        <pt x="240" y="-91" on="0"/>
        <pt x="285" y="-44" on="0"/>
        <pt x="324" y="-44" on="1"/>
      </contour>
    </TTGlyph>
    <TTGlyph name="Ugrave" xMin="56" yMin="-10" xMax="590" yMax="900">
      <contour>
        <pt x="353" y="837" on="0"/>
        <pt x="461" y="784" on="1"/>
        <pt x="436" y="718" on="1"/>
        <pt x="421" y="714" on="1"/>
        <pt x="290" y="755" on="0"/>
        <pt x="197" y="789" on="1"/>
        <pt x="192" y="802" on="1"/>
        <pt x="232" y="897" on="1"/>
        <pt x="246" y="900" on="1"/>
      </contour>
      <contour>
        <pt x="584" y="225" on="1"/>
        <pt x="584" y="112" on="0"/>
        <pt x="444" y="-10" on="0"/>
        <pt x="313" y="-10" on="1"/>
        <pt x="188" y="-10" on="0"/>
        <pt x="55" y="110" on="0"/>
        <pt x="58" y="222" on="1"/>
        <pt x="60" y="320" on="1"/>
        <pt x="56" y="645" on="1"/>
        <pt x="218" y="645" on="1"/>
        <pt x="211" y="244" on="1"/>
        <pt x="210" y="180" on="0"/>
        <pt x="263" y="120" on="0"/>
        <pt x="321" y="120" on="1"/>
        <pt x="379" y="120" on="0"/>
        <pt x="434" y="179" on="0"/>
        <pt x="433" y="240" on="1"/>
        <pt x="426" y="645" on="1"/>
        <pt x="590" y="645" on="1"/>
        <pt x="585" y="318" on="1"/>
      </contour>
    </TTGlyph>
    <TTGlyph name="Uhookabove" xMin="56" yMin="-10" xMax="591" yMax="931">
      <component glyphName="U" x="0" y="0" flags="0x1000"/>
      <component glyphName="hookabove" x="129" y="177" flags="0x1000"/>
    </TTGlyph>
    <TTGlyph name="Uhorn" xMin="56" yMin="-10" xMax="686" yMax="796">
      <contour>
        <pt x="686" y="668" on="0"/>
        <pt x="634" y="603" on="0"/>
        <pt x="589" y="585" on="1"/>
        <pt x="585" y="318" on="1"/>
        <pt x="584" y="225" on="1"/>
        <pt x="584" y="112" on="0"/>
        <pt x="444" y="-10" on="0"/>
        <pt x="313" y="-10" on="1"/>
        <pt x="188" y="-10" on="0"/>
        <pt x="55" y="110" on="0"/>
        <pt x="58" y="222" on="1"/>
        <pt x="60" y="320" on="1"/>
        <pt x="56" y="645" on="1"/>
        <pt x="218" y="645" on="1"/>
        <pt x="211" y="244" on="1"/>
        <pt x="210" y="180" on="0"/>
        <pt x="263" y="120" on="0"/>
        <pt x="321" y="120" on="1"/>
        <pt x="379" y="120" on="0"/>
        <pt x="434" y="179" on="0"/>
        <pt x="433" y="240" on="1"/>
        <pt x="426" y="645" on="1"/>
        <pt x="503" y="645" on="1"/>
        <pt x="563" y="645" on="0"/>
        <pt x="563" y="694" on="1"/>
        <pt x="563" y="727" on="0"/>
        <pt x="532" y="753" on="1"/>
        <pt x="535" y="765" on="1"/>
        <pt x="579" y="796" on="0"/>
        <pt x="612" y="796" on="1"/>
        <pt x="643" y="796" on="0"/>
        <pt x="686" y="746" on="0"/>
        <pt x="686" y="708" on="1"/>
      </contour>
    </TTGlyph>
    <TTGlyph name="Uhornacute" xMin="56" yMin="-10" xMax="686" yMax="900">
      <component glyphName="Uhorn" x="0" y="0" flags="0x1000"/>
      <component glyphName="acute.cap" x="150" y="177" flags="0x1000"/>
    </TTGlyph>
    <TTGlyph name="Uhorndotbelow" xMin="56" yMin="-210" xMax="686" yMax="796">
      <contour>
        <pt x="686" y="668" on="0"/>
        <pt x="634" y="603" on="0"/>
        <pt x="589" y="585" on="1"/>
        <pt x="585" y="318" on="1"/>
        <pt x="584" y="225" on="1"/>
        <pt x="584" y="112" on="0"/>
        <pt x="444" y="-10" on="0"/>
        <pt x="313" y="-10" on="1"/>
        <pt x="188" y="-10" on="0"/>
        <pt x="55" y="110" on="0"/>
        <pt x="58" y="222" on="1"/>
        <pt x="60" y="320" on="1"/>
        <pt x="56" y="645" on="1"/>
        <pt x="218" y="645" on="1"/>
        <pt x="211" y="244" on="1"/>
        <pt x="210" y="180" on="0"/>
        <pt x="263" y="120" on="0"/>
        <pt x="321" y="120" on="1"/>
        <pt x="379" y="120" on="0"/>
        <pt x="434" y="179" on="0"/>
        <pt x="433" y="240" on="1"/>
        <pt x="426" y="645" on="1"/>
        <pt x="503" y="645" on="1"/>
        <pt x="563" y="645" on="0"/>
        <pt x="563" y="694" on="1"/>
        <pt x="563" y="727" on="0"/>
        <pt x="532" y="753" on="1"/>
        <pt x="535" y="765" on="1"/>
        <pt x="579" y="796" on="0"/>
        <pt x="612" y="796" on="1"/>
        <pt x="643" y="796" on="0"/>
        <pt x="686" y="746" on="0"/>
        <pt x="686" y="708" on="1"/>
      </contour>
      <contour>
        <pt x="363" y="-44" on="0"/>
        <pt x="404" y="-86" on="0"/>
        <pt x="404" y="-123" on="1"/>
        <pt x="404" y="-163" on="0"/>
        <pt x="358" y="-210" on="0"/>
        <pt x="320" y="-210" on="1"/>
        <pt x="282" y="-210" on="0"/>
        <pt x="242" y="-168" on="0"/>
        <pt x="242" y="-130" on="1"/>
        <pt x="242" y="-91" on="0"/>
        <pt x="287" y="-44" on="0"/>
        <pt x="326" y="-44" on="1"/>
      </contour>
    </TTGlyph>
    <TTGlyph name="Uhorngrave" xMin="56" yMin="-10" xMax="686" yMax="900">
      <contour>
        <pt x="289" y="755" on="0"/>
        <pt x="196" y="789" on="1"/>
        <pt x="191" y="802" on="1"/>
        <pt x="231" y="897" on="1"/>
        <pt x="245" y="900" on="1"/>
        <pt x="352" y="837" on="0"/>
        <pt x="460" y="784" on="1"/>
        <pt x="435" y="718" on="1"/>
        <pt x="420" y="714" on="1"/>
      </contour>
      <contour>
        <pt x="686" y="668" on="0"/>
        <pt x="634" y="603" on="0"/>
        <pt x="589" y="585" on="1"/>
        <pt x="585" y="318" on="1"/>
        <pt x="584" y="225" on="1"/>
        <pt x="584" y="112" on="0"/>
        <pt x="444" y="-10" on="0"/>
        <pt x="313" y="-10" on="1"/>
        <pt x="188" y="-10" on="0"/>
        <pt x="55" y="110" on="0"/>
        <pt x="58" y="222" on="1"/>
        <pt x="60" y="320" on="1"/>
        <pt x="56" y="645" on="1"/>
        <pt x="218" y="645" on="1"/>
        <pt x="211" y="244" on="1"/>
        <pt x="210" y="180" on="0"/>
        <pt x="263" y="120" on="0"/>
        <pt x="321" y="120" on="1"/>
        <pt x="379" y="120" on="0"/>
        <pt x="434" y="179" on="0"/>
        <pt x="433" y="240" on="1"/>
        <pt x="426" y="645" on="1"/>
        <pt x="503" y="645" on="1"/>
        <pt x="563" y="645" on="0"/>
        <pt x="563" y="694" on="1"/>
        <pt x="563" y="727" on="0"/>
        <pt x="532" y="753" on="1"/>
        <pt x="535" y="765" on="1"/>
        <pt x="579" y="796" on="0"/>
        <pt x="612" y="796" on="1"/>
        <pt x="643" y="796" on="0"/>
        <pt x="686" y="746" on="0"/>
        <pt x="686" y="708" on="1"/>
      </contour>
    </TTGlyph>
    <TTGlyph name="Uhornhookabove" xMin="56" yMin="-10" xMax="686" yMax="931">
      <component glyphName="Uhorn" x="0" y="0" flags="0x1000"/>
      <component glyphName="hookabove" x="128" y="177" flags="0x1000"/>
    </TTGlyph>
    <TTGlyph name="Uhorntilde" xMin="56" yMin="-10" xMax="686" yMax="895">
      <component glyphName="Uhorn" x="0" y="0" flags="0x1000"/>
      <component glyphName="tilde" x="129" y="177" flags="0x1000"/>
    </TTGlyph>
    <TTGlyph name="Uhungarumlaut" xMin="56" yMin="-10" xMax="591" yMax="895">
      <component glyphName="U" x="0" y="0" flags="0x1000"/>
      <component glyphName="hungarumlaut.cap" x="152" y="177" flags="0x1000"/>
    </TTGlyph>
    <TTGlyph name="Umacron" xMin="56" yMin="-10" xMax="591" yMax="850">
      <component glyphName="U" x="0" y="0" flags="0x1000"/>
      <component glyphName="macron" x="129" y="177" flags="0x1000"/>
    </TTGlyph>
    <TTGlyph name="Uogonek" xMin="56" yMin="-197" xMax="590" yMax="645">
      <contour>
        <pt x="585" y="318" on="1"/>
        <pt x="584" y="225" on="1"/>
        <pt x="584" y="107" on="0"/>
        <pt x="507" y="45" on="1"/>
        <pt x="457" y="-34" on="1"/>
        <pt x="441" y="-60" on="0"/>
        <pt x="441" y="-80" on="1"/>
        <pt x="441" y="-113" on="0"/>
        <pt x="477" y="-113" on="1"/>
        <pt x="508" y="-113" on="0"/>
        <pt x="542" y="-87" on="1"/>
        <pt x="550" y="-87" on="1"/>
        <pt x="562" y="-149" on="1"/>
        <pt x="504" y="-197" on="0"/>
        <pt x="455" y="-197" on="1"/>
        <pt x="411" y="-197" on="0"/>
        <pt x="359" y="-145" on="0"/>
        <pt x="359" y="-105" on="1"/>
        <pt x="359" y="-64" on="0"/>
        <pt x="388" y="-22" on="1"/>
        <pt x="402" y="-1" on="1"/>
        <pt x="361" y="-10" on="0"/>
        <pt x="313" y="-10" on="1"/>
        <pt x="188" y="-10" on="0"/>
        <pt x="55" y="110" on="0"/>
        <pt x="58" y="222" on="1"/>
        <pt x="60" y="320" on="1"/>
        <pt x="56" y="645" on="1"/>
        <pt x="218" y="645" on="1"/>
        <pt x="211" y="244" on="1"/>
        <pt x="210" y="180" on="0"/>
        <pt x="263" y="120" on="0"/>
        <pt x="321" y="120" on="1"/>
        <pt x="379" y="120" on="0"/>
        <pt x="434" y="179" on="0"/>
        <pt x="433" y="240" on="1"/>
        <pt x="426" y="645" on="1"/>
        <pt x="590" y="645" on="1"/>
      </contour>
    </TTGlyph>
    <TTGlyph name="Uring" xMin="56" yMin="-10" xMax="591" yMax="914">
      <component glyphName="U" x="0" y="0" flags="0x1000"/>
      <component glyphName="ring" x="129" y="177" flags="0x1000"/>
    </TTGlyph>
    <TTGlyph name="Utilde" xMin="56" yMin="-10" xMax="591" yMax="895">
      <component glyphName="U" x="0" y="0" flags="0x1000"/>
      <component glyphName="tilde" x="129" y="177" flags="0x1000"/>
    </TTGlyph>
    <TTGlyph name="V" xMin="7" yMin="0" xMax="599" yMax="645">
      <contour>
        <pt x="196" y="0" on="1"/>
        <pt x="7" y="645" on="1"/>
        <pt x="172" y="645" on="1"/>
        <pt x="189" y="551" on="1"/>
        <pt x="292" y="148" on="1"/>
        <pt x="302" y="148" on="1"/>
        <pt x="422" y="542" on="1"/>
        <pt x="440" y="645" on="1"/>
        <pt x="599" y="645" on="1"/>
        <pt x="391" y="0" on="1"/>
      </contour>
    </TTGlyph>
    <TTGlyph name="V.ss01" xMin="-100" yMin="0" xMax="627" yMax="508">
      <contour>
        <pt x="362" y="55" on="1"/>
        <pt x="627" y="55" on="1"/>
        <pt x="627" y="0" on="1"/>
        <pt x="-100" y="0" on="1"/>
        <pt x="-100" y="55" on="1"/>
        <pt x="159" y="55" on="1"/>
        <pt x="40" y="453" on="1"/>
        <pt x="-100" y="453" on="1"/>
        <pt x="-100" y="508" on="1"/>
        <pt x="627" y="508" on="1"/>
        <pt x="627" y="453" on="1"/>
        <pt x="495" y="453" on="1"/>
      </contour>
      <contour>
        <pt x="181" y="453" on="1"/>
        <pt x="187" y="419" on="1"/>
        <pt x="259" y="139" on="1"/>
        <pt x="268" y="139" on="1"/>
        <pt x="354" y="410" on="1"/>
        <pt x="361" y="453" on="1"/>
      </contour>
    </TTGlyph>
    <TTGlyph name="W" xMin="18" yMin="0" xMax="905" yMax="645">
      <contour>
        <pt x="530" y="0" on="1"/>
        <pt x="449" y="278" on="1"/>
        <pt x="439" y="278" on="1"/>
        <pt x="359" y="0" on="1"/>
        <pt x="187" y="0" on="1"/>
        <pt x="18" y="645" on="1"/>
        <pt x="176" y="645" on="1"/>
        <pt x="186" y="557" on="1"/>
        <pt x="279" y="165" on="1"/>
        <pt x="289" y="165" on="1"/>
        <pt x="384" y="491" on="1"/>
        <pt x="344" y="645" on="1"/>
        <pt x="508" y="645" on="1"/>
        <pt x="522" y="541" on="1"/>
        <pt x="619" y="165" on="1"/>
        <pt x="629" y="165" on="1"/>
        <pt x="738" y="548" on="1"/>
        <pt x="755" y="645" on="1"/>
        <pt x="905" y="645" on="1"/>
        <pt x="701" y="0" on="1"/>
      </contour>
    </TTGlyph>
    <TTGlyph name="Wacute" xMin="18" yMin="0" xMax="905" yMax="900">
      <component glyphName="W" x="0" y="0" flags="0x1000"/>
      <component glyphName="acute.cap" x="275" y="177" flags="0x1000"/>
    </TTGlyph>
    <TTGlyph name="Wcircumflex" xMin="18" yMin="0" xMax="904" yMax="898">
      <contour>
        <pt x="367" y="839" on="0"/>
        <pt x="432" y="898" on="1"/>
        <pt x="462" y="898" on="1"/>
        <pt x="530" y="837" on="0"/>
        <pt x="604" y="788" on="1"/>
        <pt x="576" y="725" on="1"/>
        <pt x="561" y="725" on="1"/>
        <pt x="447" y="787" on="1"/>
        <pt x="464" y="797" on="0"/>
        <pt x="379" y="749" on="1"/>
        <pt x="334" y="725" on="1"/>
        <pt x="319" y="725" on="1"/>
        <pt x="291" y="788" on="1"/>
      </contour>
      <contour>
        <pt x="530" y="0" on="1"/>
        <pt x="449" y="278" on="1"/>
        <pt x="438" y="278" on="1"/>
        <pt x="358" y="0" on="1"/>
        <pt x="186" y="0" on="1"/>
        <pt x="18" y="645" on="1"/>
        <pt x="176" y="645" on="1"/>
        <pt x="186" y="557" on="1"/>
        <pt x="279" y="165" on="1"/>
        <pt x="289" y="165" on="1"/>
        <pt x="384" y="491" on="1"/>
        <pt x="343" y="645" on="1"/>
        <pt x="507" y="645" on="1"/>
        <pt x="522" y="541" on="1"/>
        <pt x="618" y="165" on="1"/>
        <pt x="629" y="165" on="1"/>
        <pt x="738" y="548" on="1"/>
        <pt x="755" y="645" on="1"/>
        <pt x="904" y="645" on="1"/>
        <pt x="701" y="0" on="1"/>
      </contour>
    </TTGlyph>
    <TTGlyph name="Wdieresis" xMin="18" yMin="0" xMax="904" yMax="875">
      <contour>
        <pt x="393" y="875" on="0"/>
        <pt x="430" y="837" on="0"/>
        <pt x="430" y="804" on="1"/>
        <pt x="430" y="768" on="0"/>
        <pt x="390" y="726" on="0"/>
        <pt x="355" y="726" on="1"/>
        <pt x="321" y="726" on="0"/>
        <pt x="284" y="763" on="0"/>
        <pt x="284" y="797" on="1"/>
        <pt x="284" y="833" on="0"/>
        <pt x="325" y="875" on="0"/>
        <pt x="360" y="875" on="1"/>
      </contour>
      <contour>
        <pt x="575" y="875" on="0"/>
        <pt x="612" y="837" on="0"/>
        <pt x="612" y="804" on="1"/>
        <pt x="612" y="768" on="0"/>
        <pt x="572" y="726" on="0"/>
        <pt x="537" y="726" on="1"/>
        <pt x="503" y="726" on="0"/>
        <pt x="466" y="763" on="0"/>
        <pt x="466" y="797" on="1"/>
        <pt x="466" y="833" on="0"/>
        <pt x="507" y="875" on="0"/>
        <pt x="542" y="875" on="1"/>
      </contour>
      <contour>
        <pt x="530" y="0" on="1"/>
        <pt x="449" y="278" on="1"/>
        <pt x="438" y="278" on="1"/>
        <pt x="358" y="0" on="1"/>
        <pt x="186" y="0" on="1"/>
        <pt x="18" y="645" on="1"/>
        <pt x="176" y="645" on="1"/>
        <pt x="186" y="557" on="1"/>
        <pt x="279" y="165" on="1"/>
        <pt x="289" y="165" on="1"/>
        <pt x="384" y="491" on="1"/>
        <pt x="343" y="645" on="1"/>
        <pt x="507" y="645" on="1"/>
        <pt x="522" y="541" on="1"/>
        <pt x="618" y="165" on="1"/>
        <pt x="629" y="165" on="1"/>
        <pt x="738" y="548" on="1"/>
        <pt x="755" y="645" on="1"/>
        <pt x="904" y="645" on="1"/>
        <pt x="701" y="0" on="1"/>
      </contour>
    </TTGlyph>
    <TTGlyph name="Wgrave" xMin="18" yMin="0" xMax="904" yMax="900">
      <contour>
        <pt x="476" y="837" on="0"/>
        <pt x="584" y="784" on="1"/>
        <pt x="559" y="718" on="1"/>
        <pt x="544" y="714" on="1"/>
        <pt x="413" y="755" on="0"/>
        <pt x="320" y="789" on="1"/>
        <pt x="315" y="802" on="1"/>
        <pt x="355" y="897" on="1"/>
        <pt x="369" y="900" on="1"/>
      </contour>
      <contour>
        <pt x="530" y="0" on="1"/>
        <pt x="449" y="278" on="1"/>
        <pt x="438" y="278" on="1"/>
        <pt x="358" y="0" on="1"/>
        <pt x="186" y="0" on="1"/>
        <pt x="18" y="645" on="1"/>
        <pt x="176" y="645" on="1"/>
        <pt x="186" y="557" on="1"/>
        <pt x="279" y="165" on="1"/>
        <pt x="289" y="165" on="1"/>
        <pt x="384" y="491" on="1"/>
        <pt x="343" y="645" on="1"/>
        <pt x="507" y="645" on="1"/>
        <pt x="522" y="541" on="1"/>
        <pt x="618" y="165" on="1"/>
        <pt x="629" y="165" on="1"/>
        <pt x="738" y="548" on="1"/>
        <pt x="755" y="645" on="1"/>
        <pt x="904" y="645" on="1"/>
        <pt x="701" y="0" on="1"/>
      </contour>
    </TTGlyph>
    <TTGlyph name="X" xMin="7" yMin="0" xMax="616" yMax="645">
      <contour>
        <pt x="616" y="0" on="1"/>
        <pt x="422" y="0" on="1"/>
        <pt x="390" y="70" on="1"/>
        <pt x="303" y="212" on="1"/>
        <pt x="204" y="62" on="1"/>
        <pt x="174" y="0" on="1"/>
        <pt x="9" y="0" on="1"/>
        <pt x="209" y="315" on="1"/>
        <pt x="7" y="645" on="1"/>
        <pt x="202" y="645" on="1"/>
        <pt x="234" y="574" on="1"/>
        <pt x="317" y="439" on="1"/>
        <pt x="405" y="581" on="1"/>
        <pt x="434" y="645" on="1"/>
        <pt x="604" y="645" on="1"/>
        <pt x="413" y="339" on="1"/>
      </contour>
    </TTGlyph>
    <TTGlyph name="X.ss01" xMin="-100" yMin="0" xMax="644" yMax="508">
      <contour>
        <pt x="496" y="55" on="1"/>
        <pt x="644" y="55" on="1"/>
        <pt x="644" y="0" on="1"/>
        <pt x="-100" y="0" on="1"/>
        <pt x="-100" y="55" on="1"/>
        <pt x="60" y="55" on="1"/>
        <pt x="191" y="249" on="1"/>
        <pt x="59" y="453" on="1"/>
        <pt x="-100" y="453" on="1"/>
        <pt x="-100" y="508" on="1"/>
        <pt x="644" y="508" on="1"/>
        <pt x="644" y="453" on="1"/>
        <pt x="485" y="453" on="1"/>
        <pt x="362" y="269" on="1"/>
      </contour>
      <contour>
        <pt x="228" y="427" on="1"/>
        <pt x="282" y="350" on="1"/>
        <pt x="340" y="434" on="1"/>
        <pt x="349" y="453" on="1"/>
        <pt x="216" y="453" on="1"/>
      </contour>
      <contour>
        <pt x="326" y="84" on="1"/>
        <pt x="270" y="164" on="1"/>
        <pt x="204" y="77" on="1"/>
        <pt x="193" y="55" on="1"/>
        <pt x="339" y="55" on="1"/>
      </contour>
    </TTGlyph>
    <TTGlyph name="Y" xMin="-1" yMin="0" xMax="583" yMax="645">
      <contour>
        <pt x="360" y="0" on="1"/>
        <pt x="198" y="0" on="1"/>
        <pt x="206" y="175" on="1"/>
        <pt x="205" y="210" on="1"/>
        <pt x="-1" y="645" on="1"/>
        <pt x="170" y="645" on="1"/>
        <pt x="185" y="597" on="1"/>
        <pt x="279" y="372" on="1"/>
        <pt x="290" y="372" on="1"/>
        <pt x="396" y="591" on="1"/>
        <pt x="416" y="645" on="1"/>
        <pt x="583" y="645" on="1"/>
        <pt x="355" y="214" on="1"/>
        <pt x="353" y="175" on="1"/>
      </contour>
    </TTGlyph>
    <TTGlyph name="Yacute" xMin="-1" yMin="0" xMax="583" yMax="900">
      <component glyphName="Y" x="0" y="0" flags="0x1000"/>
      <component glyphName="acute.cap" x="112" y="177" flags="0x1000"/>
    </TTGlyph>
    <TTGlyph name="Ycircumflex" xMin="0" yMin="0" xMax="583" yMax="898">
      <contour>
        <pt x="128" y="788" on="1"/>
        <pt x="204" y="839" on="0"/>
        <pt x="269" y="898" on="1"/>
        <pt x="299" y="898" on="1"/>
        <pt x="367" y="837" on="0"/>
        <pt x="441" y="788" on="1"/>
        <pt x="413" y="725" on="1"/>
        <pt x="398" y="725" on="1"/>
        <pt x="284" y="787" on="1"/>
        <pt x="301" y="797" on="0"/>
        <pt x="216" y="749" on="1"/>
        <pt x="171" y="725" on="1"/>
        <pt x="156" y="725" on="1"/>
      </contour>
      <contour>
        <pt x="360" y="0" on="1"/>
        <pt x="198" y="0" on="1"/>
        <pt x="207" y="175" on="1"/>
        <pt x="206" y="210" on="1"/>
        <pt x="0" y="645" on="1"/>
        <pt x="171" y="645" on="1"/>
        <pt x="186" y="597" on="1"/>
        <pt x="280" y="372" on="1"/>
        <pt x="291" y="372" on="1"/>
        <pt x="397" y="591" on="1"/>
        <pt x="417" y="645" on="1"/>
        <pt x="583" y="645" on="1"/>
        <pt x="355" y="213" on="1"/>
        <pt x="354" y="175" on="1"/>
      </contour>
    </TTGlyph>
    <TTGlyph name="Ydieresis" xMin="0" yMin="0" xMax="583" yMax="875">
      <contour>
        <pt x="159" y="726" on="0"/>
        <pt x="122" y="763" on="0"/>
        <pt x="122" y="797" on="1"/>
        <pt x="122" y="833" on="0"/>
        <pt x="163" y="875" on="0"/>
        <pt x="198" y="875" on="1"/>
        <pt x="231" y="875" on="0"/>
        <pt x="268" y="837" on="0"/>
        <pt x="268" y="804" on="1"/>
        <pt x="268" y="768" on="0"/>
        <pt x="228" y="726" on="0"/>
        <pt x="193" y="726" on="1"/>
      </contour>
      <contour>
        <pt x="341" y="726" on="0"/>
        <pt x="304" y="763" on="0"/>
        <pt x="304" y="797" on="1"/>
        <pt x="304" y="833" on="0"/>
        <pt x="345" y="875" on="0"/>
        <pt x="380" y="875" on="1"/>
        <pt x="413" y="875" on="0"/>
        <pt x="450" y="837" on="0"/>
        <pt x="450" y="804" on="1"/>
        <pt x="450" y="768" on="0"/>
        <pt x="410" y="726" on="0"/>
        <pt x="375" y="726" on="1"/>
      </contour>
      <contour>
        <pt x="360" y="0" on="1"/>
        <pt x="198" y="0" on="1"/>
        <pt x="207" y="175" on="1"/>
        <pt x="206" y="210" on="1"/>
        <pt x="0" y="645" on="1"/>
        <pt x="171" y="645" on="1"/>
        <pt x="186" y="597" on="1"/>
        <pt x="280" y="372" on="1"/>
        <pt x="291" y="372" on="1"/>
        <pt x="397" y="591" on="1"/>
        <pt x="417" y="645" on="1"/>
        <pt x="583" y="645" on="1"/>
        <pt x="355" y="213" on="1"/>
        <pt x="354" y="175" on="1"/>
      </contour>
    </TTGlyph>
    <TTGlyph name="Ydotbelow" xMin="0" yMin="-210" xMax="583" yMax="645">
      <contour>
        <pt x="360" y="0" on="1"/>
        <pt x="198" y="0" on="1"/>
        <pt x="207" y="175" on="1"/>
        <pt x="206" y="210" on="1"/>
        <pt x="0" y="645" on="1"/>
        <pt x="171" y="645" on="1"/>
        <pt x="186" y="597" on="1"/>
        <pt x="280" y="372" on="1"/>
        <pt x="291" y="372" on="1"/>
        <pt x="397" y="591" on="1"/>
        <pt x="417" y="645" on="1"/>
        <pt x="583" y="645" on="1"/>
        <pt x="355" y="213" on="1"/>
        <pt x="354" y="175" on="1"/>
      </contour>
      <contour>
        <pt x="319" y="-44" on="0"/>
        <pt x="360" y="-86" on="0"/>
        <pt x="360" y="-123" on="1"/>
        <pt x="360" y="-163" on="0"/>
        <pt x="314" y="-210" on="0"/>
        <pt x="276" y="-210" on="1"/>
        <pt x="238" y="-210" on="0"/>
        <pt x="198" y="-168" on="0"/>
        <pt x="198" y="-130" on="1"/>
        <pt x="198" y="-91" on="0"/>
        <pt x="243" y="-44" on="0"/>
        <pt x="282" y="-44" on="1"/>
      </contour>
    </TTGlyph>
    <TTGlyph name="Ygrave" xMin="0" yMin="0" xMax="583" yMax="900">
      <contour>
        <pt x="250" y="755" on="0"/>
        <pt x="157" y="789" on="1"/>
        <pt x="152" y="802" on="1"/>
        <pt x="192" y="897" on="1"/>
        <pt x="206" y="900" on="1"/>
        <pt x="313" y="837" on="0"/>
        <pt x="421" y="784" on="1"/>
        <pt x="396" y="718" on="1"/>
        <pt x="381" y="714" on="1"/>
      </contour>
      <contour>
        <pt x="360" y="0" on="1"/>
        <pt x="198" y="0" on="1"/>
        <pt x="207" y="175" on="1"/>
        <pt x="206" y="210" on="1"/>
        <pt x="0" y="645" on="1"/>
        <pt x="171" y="645" on="1"/>
        <pt x="186" y="597" on="1"/>
        <pt x="280" y="372" on="1"/>
        <pt x="291" y="372" on="1"/>
        <pt x="397" y="591" on="1"/>
        <pt x="417" y="645" on="1"/>
        <pt x="583" y="645" on="1"/>
        <pt x="355" y="213" on="1"/>
        <pt x="354" y="175" on="1"/>
      </contour>
    </TTGlyph>
    <TTGlyph name="Yhookabove" xMin="-1" yMin="0" xMax="583" yMax="931">
      <component glyphName="Y" x="0" y="0" flags="0x1000"/>
      <component glyphName="hookabove" x="90" y="177" flags="0x1000"/>
    </TTGlyph>
    <TTGlyph name="Ytilde" xMin="-1" yMin="0" xMax="583" yMax="895">
      <component glyphName="Y" x="0" y="0" flags="0x1000"/>
      <component glyphName="tilde" x="90" y="177" flags="0x1000"/>
    </TTGlyph>
    <TTGlyph name="Z" xMin="29" yMin="-5" xMax="534" yMax="647">
      <contour>
        <pt x="220" y="122" on="1"/>
        <pt x="414" y="122" on="1"/>
        <pt x="528" y="130" on="1"/>
        <pt x="534" y="122" on="1"/>
        <pt x="521" y="-4" on="1"/>
        <pt x="362" y="0" on="1"/>
        <pt x="116" y="0" on="1"/>
        <pt x="29" y="-5" on="1"/>
        <pt x="29" y="111" on="1"/>
        <pt x="334" y="523" on="1"/>
        <pt x="150" y="523" on="1"/>
        <pt x="36" y="514" on="1"/>
        <pt x="30" y="521" on="1"/>
        <pt x="42" y="647" on="1"/>
        <pt x="180" y="645" on="1"/>
        <pt x="454" y="645" on="1"/>
        <pt x="522" y="646" on="1"/>
        <pt x="522" y="529" on="1"/>
      </contour>
    </TTGlyph>
    <TTGlyph name="Zacute" xMin="29" yMin="-5" xMax="534" yMax="900">
      <component glyphName="Z" x="0" y="0" flags="0x1000"/>
      <component glyphName="acute.cap" x="107" y="177" flags="0x1000"/>
    </TTGlyph>
    <TTGlyph name="Zcaron" xMin="29" yMin="-5" xMax="534" yMax="888">
      <component glyphName="Z" x="0" y="0" flags="0x1000"/>
      <component glyphName="caron.cap" x="87" y="177" flags="0x1000"/>
    </TTGlyph>
    <TTGlyph name="Zdotaccent" xMin="29" yMin="-5" xMax="534" yMax="885">
      <contour>
        <pt x="320" y="885" on="0"/>
        <pt x="361" y="843" on="0"/>
        <pt x="361" y="806" on="1"/>
        <pt x="361" y="766" on="0"/>
        <pt x="315" y="719" on="0"/>
        <pt x="277" y="719" on="1"/>
        <pt x="239" y="719" on="0"/>
        <pt x="199" y="761" on="0"/>
        <pt x="199" y="799" on="1"/>
        <pt x="199" y="838" on="0"/>
        <pt x="244" y="885" on="0"/>
        <pt x="283" y="885" on="1"/>
      </contour>
      <contour>
        <pt x="220" y="122" on="1"/>
        <pt x="414" y="122" on="1"/>
        <pt x="528" y="130" on="1"/>
        <pt x="534" y="122" on="1"/>
        <pt x="521" y="-4" on="1"/>
        <pt x="362" y="0" on="1"/>
        <pt x="116" y="0" on="1"/>
        <pt x="29" y="-5" on="1"/>
        <pt x="29" y="111" on="1"/>
        <pt x="334" y="523" on="1"/>
        <pt x="150" y="523" on="1"/>
        <pt x="36" y="514" on="1"/>
        <pt x="30" y="521" on="1"/>
        <pt x="42" y="647" on="1"/>
        <pt x="180" y="645" on="1"/>
        <pt x="454" y="645" on="1"/>
        <pt x="522" y="646" on="1"/>
        <pt x="522" y="529" on="1"/>
      </contour>
    </TTGlyph>
    <TTGlyph name="a" xMin="13" yMin="0" xMax="516" yMax="508">
      <contour>
        <pt x="364" y="0" on="1"/>
        <pt x="350" y="81" on="1"/>
        <pt x="348" y="89" on="1"/>
        <pt x="255" y="91" on="1"/>
        <pt x="175" y="89" on="1"/>
        <pt x="160" y="0" on="1"/>
        <pt x="13" y="0" on="1"/>
        <pt x="182" y="508" on="1"/>
        <pt x="362" y="508" on="1"/>
        <pt x="516" y="0" on="1"/>
      </contour>
      <contour>
        <pt x="274" y="373" on="1"/>
        <pt x="265" y="373" on="1"/>
        <pt x="210" y="201" on="1"/>
        <pt x="264" y="200" on="1"/>
        <pt x="319" y="201" on="1"/>
      </contour>
    </TTGlyph>
    <TTGlyph name="a.sups" xMin="21" yMin="320" xMax="333" yMax="653">
      <contour>
        <pt x="241" y="653" on="0"/>
        <pt x="305" y="604" on="0"/>
        <pt x="305" y="558" on="1"/>
        <pt x="305" y="530" on="0"/>
        <pt x="302" y="485" on="1"/>
        <pt x="300" y="424" on="1"/>
        <pt x="300" y="405" on="0"/>
        <pt x="311" y="405" on="1"/>
        <pt x="321" y="405" on="0"/>
        <pt x="325" y="408" on="1"/>
        <pt x="333" y="401" on="1"/>
        <pt x="322" y="340" on="1"/>
        <pt x="298" y="321" on="0"/>
        <pt x="268" y="321" on="1"/>
        <pt x="241" y="321" on="0"/>
        <pt x="214" y="342" on="0"/>
        <pt x="206" y="369" on="1"/>
        <pt x="202" y="369" on="1"/>
        <pt x="172" y="334" on="0"/>
        <pt x="131" y="320" on="1"/>
        <pt x="80" y="321" on="0"/>
        <pt x="21" y="375" on="0"/>
        <pt x="21" y="422" on="1"/>
        <pt x="21" y="495" on="0"/>
        <pt x="97" y="507" on="1"/>
        <pt x="196" y="521" on="1"/>
        <pt x="197" y="536" on="1"/>
        <pt x="197" y="572" on="0"/>
        <pt x="161" y="572" on="1"/>
        <pt x="122" y="572" on="0"/>
        <pt x="62" y="538" on="1"/>
        <pt x="54" y="542" on="1"/>
        <pt x="41" y="618" on="1"/>
        <pt x="108" y="653" on="0"/>
        <pt x="180" y="653" on="1"/>
      </contour>
      <contour>
        <pt x="127" y="455" on="0"/>
        <pt x="127" y="433" on="1"/>
        <pt x="127" y="401" on="0"/>
        <pt x="156" y="401" on="1"/>
        <pt x="176" y="401" on="0"/>
        <pt x="196" y="418" on="1"/>
        <pt x="196" y="468" on="1"/>
        <pt x="149" y="460" on="1"/>
      </contour>
    </TTGlyph>
    <TTGlyph name="aacute" xMin="13" yMin="0" xMax="516" yMax="778">
      <component glyphName="a" x="0" y="0" flags="0x1000"/>
      <component glyphName="acute" x="103" y="41" flags="0x1000"/>
    </TTGlyph>
    <TTGlyph name="abreve" xMin="13" yMin="0" xMax="516" yMax="754">
      <component glyphName="a" x="0" y="0" flags="0x1000"/>
      <component glyphName="breve" x="82" y="41" flags="0x1000"/>
    </TTGlyph>
    <TTGlyph name="abreveacute" xMin="13" yMin="0" xMax="516" yMax="886">
      <component glyphName="a" x="0" y="0" flags="0x1000"/>
      <component glyphName="breveacute" x="81" y="41" flags="0x1000"/>
    </TTGlyph>
    <TTGlyph name="abrevedotbelow" xMin="13" yMin="-210" xMax="517" yMax="754">
      <contour>
        <pt x="207" y="573" on="0"/>
        <pt x="129" y="647" on="0"/>
        <pt x="115" y="703" on="1"/>
        <pt x="149" y="754" on="1"/>
        <pt x="171" y="754" on="1"/>
        <pt x="200" y="684" on="0"/>
        <pt x="277" y="684" on="1"/>
        <pt x="355" y="684" on="0"/>
        <pt x="381" y="754" on="1"/>
        <pt x="404" y="754" on="1"/>
        <pt x="438" y="703" on="1"/>
        <pt x="422" y="646" on="0"/>
        <pt x="338" y="573" on="0"/>
        <pt x="272" y="573" on="1"/>
      </contour>
      <contour>
        <pt x="364" y="0" on="1"/>
        <pt x="350" y="81" on="1"/>
        <pt x="348" y="89" on="1"/>
        <pt x="255" y="91" on="1"/>
        <pt x="175" y="89" on="1"/>
        <pt x="160" y="0" on="1"/>
        <pt x="13" y="0" on="1"/>
        <pt x="183" y="508" on="1"/>
        <pt x="363" y="508" on="1"/>
        <pt x="517" y="0" on="1"/>
      </contour>
      <contour>
        <pt x="274" y="373" on="1"/>
        <pt x="265" y="373" on="1"/>
        <pt x="210" y="201" on="1"/>
        <pt x="264" y="200" on="1"/>
        <pt x="319" y="201" on="1"/>
      </contour>
      <contour>
        <pt x="304" y="-44" on="0"/>
        <pt x="345" y="-86" on="0"/>
        <pt x="345" y="-123" on="1"/>
        <pt x="345" y="-163" on="0"/>
        <pt x="299" y="-210" on="0"/>
        <pt x="261" y="-210" on="1"/>
        <pt x="223" y="-210" on="0"/>
        <pt x="183" y="-168" on="0"/>
        <pt x="183" y="-130" on="1"/>
        <pt x="183" y="-91" on="0"/>
        <pt x="228" y="-44" on="0"/>
        <pt x="267" y="-44" on="1"/>
      </contour>
    </TTGlyph>
    <TTGlyph name="abrevegrave" xMin="13" yMin="0" xMax="516" yMax="886">
      <component glyphName="a" x="0" y="0" flags="0x1000"/>
      <component glyphName="brevegrave" x="81" y="41" flags="0x1000"/>
    </TTGlyph>
    <TTGlyph name="abrevehookabove" xMin="13" yMin="0" xMax="517" yMax="943">
      <contour>
        <pt x="211" y="873" on="0"/>
        <pt x="180" y="848" on="1"/>
        <pt x="155" y="888" on="1"/>
        <pt x="205" y="943" on="0"/>
        <pt x="269" y="943" on="1"/>
        <pt x="306" y="943" on="0"/>
        <pt x="357" y="899" on="0"/>
        <pt x="357" y="865" on="1"/>
        <pt x="357" y="844" on="0"/>
        <pt x="332" y="807" on="0"/>
        <pt x="299" y="778" on="1"/>
        <pt x="324" y="738" on="1"/>
        <pt x="269" y="705" on="1"/>
        <pt x="222" y="777" on="1"/>
        <pt x="246" y="795" on="0"/>
        <pt x="275" y="835" on="0"/>
        <pt x="275" y="850" on="1"/>
        <pt x="275" y="873" on="0"/>
        <pt x="246" y="873" on="1"/>
      </contour>
      <contour>
        <pt x="215" y="562" on="0"/>
        <pt x="133" y="621" on="0"/>
        <pt x="114" y="676" on="1"/>
        <pt x="148" y="725" on="1"/>
        <pt x="170" y="725" on="1"/>
        <pt x="201" y="672" on="0"/>
        <pt x="278" y="672" on="1"/>
        <pt x="350" y="672" on="0"/>
        <pt x="380" y="725" on="1"/>
        <pt x="403" y="725" on="1"/>
        <pt x="437" y="676" on="1"/>
        <pt x="417" y="621" on="0"/>
        <pt x="332" y="562" on="0"/>
        <pt x="273" y="562" on="1"/>
      </contour>
      <contour>
        <pt x="364" y="0" on="1"/>
        <pt x="350" y="81" on="1"/>
        <pt x="348" y="89" on="1"/>
        <pt x="255" y="91" on="1"/>
        <pt x="175" y="89" on="1"/>
        <pt x="160" y="0" on="1"/>
        <pt x="13" y="0" on="1"/>
        <pt x="183" y="508" on="1"/>
        <pt x="363" y="508" on="1"/>
        <pt x="517" y="0" on="1"/>
      </contour>
      <contour>
        <pt x="274" y="373" on="1"/>
        <pt x="265" y="373" on="1"/>
        <pt x="210" y="201" on="1"/>
        <pt x="264" y="200" on="1"/>
        <pt x="319" y="201" on="1"/>
      </contour>
    </TTGlyph>
    <TTGlyph name="abrevetilde" xMin="13" yMin="0" xMax="517" yMax="911">
      <contour>
        <pt x="110" y="784" on="1"/>
        <pt x="110" y="796" on="1"/>
        <pt x="178" y="888" on="1"/>
        <pt x="191" y="893" on="1"/>
        <pt x="211" y="890" on="0"/>
        <pt x="270" y="875" on="1"/>
        <pt x="322" y="861" on="0"/>
        <pt x="332" y="861" on="1"/>
        <pt x="344" y="861" on="0"/>
        <pt x="367" y="880" on="0"/>
        <pt x="388" y="906" on="0"/>
        <pt x="392" y="911" on="1"/>
        <pt x="405" y="911" on="1"/>
        <pt x="448" y="869" on="1"/>
        <pt x="448" y="856" on="1"/>
        <pt x="379" y="765" on="1"/>
        <pt x="366" y="760" on="1"/>
        <pt x="339" y="763" on="0"/>
        <pt x="285" y="779" on="1"/>
        <pt x="239" y="792" on="0"/>
        <pt x="225" y="792" on="1"/>
        <pt x="213" y="792" on="0"/>
        <pt x="192" y="774" on="0"/>
        <pt x="170" y="748" on="0"/>
        <pt x="165" y="742" on="1"/>
        <pt x="153" y="742" on="1"/>
      </contour>
      <contour>
        <pt x="350" y="666" on="0"/>
        <pt x="378" y="717" on="1"/>
        <pt x="399" y="717" on="1"/>
        <pt x="431" y="670" on="1"/>
        <pt x="412" y="618" on="0"/>
        <pt x="332" y="563" on="0"/>
        <pt x="276" y="563" on="1"/>
        <pt x="221" y="563" on="0"/>
        <pt x="143" y="618" on="0"/>
        <pt x="126" y="670" on="1"/>
        <pt x="158" y="717" on="1"/>
        <pt x="179" y="717" on="1"/>
        <pt x="208" y="666" on="0"/>
        <pt x="281" y="666" on="1"/>
      </contour>
      <contour>
        <pt x="364" y="0" on="1"/>
        <pt x="350" y="81" on="1"/>
        <pt x="348" y="89" on="1"/>
        <pt x="255" y="91" on="1"/>
        <pt x="175" y="89" on="1"/>
        <pt x="160" y="0" on="1"/>
        <pt x="13" y="0" on="1"/>
        <pt x="183" y="508" on="1"/>
        <pt x="363" y="508" on="1"/>
        <pt x="517" y="0" on="1"/>
      </contour>
      <contour>
        <pt x="274" y="373" on="1"/>
        <pt x="265" y="373" on="1"/>
        <pt x="210" y="201" on="1"/>
        <pt x="264" y="200" on="1"/>
        <pt x="319" y="201" on="1"/>
      </contour>
    </TTGlyph>
    <TTGlyph name="acaron" xMin="13" yMin="0" xMax="516" yMax="770">
      <component glyphName="a" x="0" y="0" flags="0x1000"/>
      <component glyphName="caron" x="82" y="41" flags="0x1000"/>
    </TTGlyph>
    <TTGlyph name="acircumflex" xMin="13" yMin="0" xMax="517" yMax="773">
      <contour>
        <pt x="110" y="628" on="1"/>
        <pt x="172" y="683" on="0"/>
        <pt x="260" y="773" on="1"/>
        <pt x="291" y="773" on="1"/>
        <pt x="358" y="703" on="0"/>
        <pt x="441" y="628" on="1"/>
        <pt x="402" y="569" on="1"/>
        <pt x="387" y="569" on="1"/>
        <pt x="310" y="624" on="0"/>
        <pt x="276" y="655" on="1"/>
        <pt x="244" y="628" on="0"/>
        <pt x="165" y="569" on="1"/>
        <pt x="149" y="569" on="1"/>
      </contour>
      <contour>
        <pt x="364" y="0" on="1"/>
        <pt x="350" y="81" on="1"/>
        <pt x="348" y="89" on="1"/>
        <pt x="255" y="91" on="1"/>
        <pt x="175" y="89" on="1"/>
        <pt x="160" y="0" on="1"/>
        <pt x="13" y="0" on="1"/>
        <pt x="183" y="508" on="1"/>
        <pt x="363" y="508" on="1"/>
        <pt x="517" y="0" on="1"/>
      </contour>
      <contour>
        <pt x="274" y="373" on="1"/>
        <pt x="265" y="373" on="1"/>
        <pt x="210" y="201" on="1"/>
        <pt x="264" y="200" on="1"/>
        <pt x="319" y="201" on="1"/>
      </contour>
    </TTGlyph>
    <TTGlyph name="acircumflexacute" xMin="13" yMin="0" xMax="516" yMax="882">
      <component glyphName="a" x="0" y="0" flags="0x1000"/>
      <component glyphName="circumflexacute" x="81" y="41" flags="0x1000"/>
    </TTGlyph>
    <TTGlyph name="acircumflexdotbelow" xMin="13" yMin="-210" xMax="517" yMax="773">
      <contour>
        <pt x="110" y="628" on="1"/>
        <pt x="172" y="683" on="0"/>
        <pt x="260" y="773" on="1"/>
        <pt x="291" y="773" on="1"/>
        <pt x="358" y="703" on="0"/>
        <pt x="441" y="628" on="1"/>
        <pt x="402" y="569" on="1"/>
        <pt x="387" y="569" on="1"/>
        <pt x="310" y="624" on="0"/>
        <pt x="276" y="655" on="1"/>
        <pt x="244" y="628" on="0"/>
        <pt x="165" y="569" on="1"/>
        <pt x="149" y="569" on="1"/>
      </contour>
      <contour>
        <pt x="364" y="0" on="1"/>
        <pt x="350" y="81" on="1"/>
        <pt x="348" y="89" on="1"/>
        <pt x="255" y="91" on="1"/>
        <pt x="175" y="89" on="1"/>
        <pt x="160" y="0" on="1"/>
        <pt x="13" y="0" on="1"/>
        <pt x="183" y="508" on="1"/>
        <pt x="363" y="508" on="1"/>
        <pt x="517" y="0" on="1"/>
      </contour>
      <contour>
        <pt x="274" y="373" on="1"/>
        <pt x="265" y="373" on="1"/>
        <pt x="210" y="201" on="1"/>
        <pt x="264" y="200" on="1"/>
        <pt x="319" y="201" on="1"/>
      </contour>
      <contour>
        <pt x="304" y="-44" on="0"/>
        <pt x="345" y="-86" on="0"/>
        <pt x="345" y="-123" on="1"/>
        <pt x="345" y="-163" on="0"/>
        <pt x="299" y="-210" on="0"/>
        <pt x="261" y="-210" on="1"/>
        <pt x="223" y="-210" on="0"/>
        <pt x="183" y="-168" on="0"/>
        <pt x="183" y="-130" on="1"/>
        <pt x="183" y="-91" on="0"/>
        <pt x="228" y="-44" on="0"/>
        <pt x="267" y="-44" on="1"/>
      </contour>
    </TTGlyph>
    <TTGlyph name="acircumflexgrave" xMin="13" yMin="0" xMax="516" yMax="882">
      <component glyphName="a" x="0" y="0" flags="0x1000"/>
      <component glyphName="circumflexgrave" x="81" y="41" flags="0x1000"/>
    </TTGlyph>
    <TTGlyph name="acircumflexhookabove" xMin="13" yMin="0" xMax="517" yMax="928">
      <contour>
        <pt x="326" y="861" on="0"/>
        <pt x="296" y="837" on="1"/>
        <pt x="272" y="875" on="1"/>
        <pt x="322" y="928" on="0"/>
        <pt x="381" y="928" on="1"/>
        <pt x="417" y="928" on="0"/>
        <pt x="465" y="887" on="0"/>
        <pt x="465" y="854" on="1"/>
        <pt x="465" y="834" on="0"/>
        <pt x="441" y="798" on="0"/>
        <pt x="410" y="771" on="1"/>
        <pt x="433" y="733" on="1"/>
        <pt x="381" y="702" on="1"/>
        <pt x="336" y="770" on="1"/>
        <pt x="359" y="787" on="0"/>
        <pt x="387" y="825" on="0"/>
        <pt x="387" y="839" on="1"/>
        <pt x="387" y="861" on="0"/>
        <pt x="359" y="861" on="1"/>
      </contour>
      <contour>
        <pt x="118" y="632" on="1"/>
        <pt x="194" y="683" on="0"/>
        <pt x="259" y="742" on="1"/>
        <pt x="289" y="742" on="1"/>
        <pt x="357" y="681" on="0"/>
        <pt x="431" y="632" on="1"/>
        <pt x="403" y="569" on="1"/>
        <pt x="388" y="569" on="1"/>
        <pt x="274" y="631" on="1"/>
        <pt x="291" y="641" on="0"/>
        <pt x="206" y="593" on="1"/>
        <pt x="161" y="569" on="1"/>
        <pt x="146" y="569" on="1"/>
      </contour>
      <contour>
        <pt x="364" y="0" on="1"/>
        <pt x="350" y="81" on="1"/>
        <pt x="348" y="89" on="1"/>
        <pt x="255" y="91" on="1"/>
        <pt x="175" y="89" on="1"/>
        <pt x="160" y="0" on="1"/>
        <pt x="13" y="0" on="1"/>
        <pt x="183" y="508" on="1"/>
        <pt x="363" y="508" on="1"/>
        <pt x="517" y="0" on="1"/>
      </contour>
      <contour>
        <pt x="274" y="373" on="1"/>
        <pt x="265" y="373" on="1"/>
        <pt x="210" y="201" on="1"/>
        <pt x="264" y="200" on="1"/>
        <pt x="319" y="201" on="1"/>
      </contour>
    </TTGlyph>
    <TTGlyph name="acircumflextilde" xMin="13" yMin="0" xMax="517" yMax="911">
      <contour>
        <pt x="110" y="784" on="1"/>
        <pt x="110" y="796" on="1"/>
        <pt x="178" y="888" on="1"/>
        <pt x="191" y="893" on="1"/>
        <pt x="211" y="890" on="0"/>
        <pt x="270" y="875" on="1"/>
        <pt x="322" y="861" on="0"/>
        <pt x="332" y="861" on="1"/>
        <pt x="344" y="861" on="0"/>
        <pt x="367" y="880" on="0"/>
        <pt x="388" y="906" on="0"/>
        <pt x="392" y="911" on="1"/>
        <pt x="405" y="911" on="1"/>
        <pt x="448" y="869" on="1"/>
        <pt x="448" y="856" on="1"/>
        <pt x="379" y="765" on="1"/>
        <pt x="366" y="760" on="1"/>
        <pt x="339" y="763" on="0"/>
        <pt x="285" y="779" on="1"/>
        <pt x="239" y="792" on="0"/>
        <pt x="225" y="792" on="1"/>
        <pt x="213" y="792" on="0"/>
        <pt x="192" y="774" on="0"/>
        <pt x="170" y="748" on="0"/>
        <pt x="165" y="742" on="1"/>
        <pt x="153" y="742" on="1"/>
      </contour>
      <contour>
        <pt x="357" y="681" on="0"/>
        <pt x="431" y="632" on="1"/>
        <pt x="403" y="569" on="1"/>
        <pt x="388" y="569" on="1"/>
        <pt x="274" y="631" on="1"/>
        <pt x="291" y="641" on="0"/>
        <pt x="206" y="593" on="1"/>
        <pt x="161" y="569" on="1"/>
        <pt x="146" y="569" on="1"/>
        <pt x="118" y="632" on="1"/>
        <pt x="194" y="683" on="0"/>
        <pt x="259" y="742" on="1"/>
        <pt x="289" y="742" on="1"/>
      </contour>
      <contour>
        <pt x="364" y="0" on="1"/>
        <pt x="350" y="81" on="1"/>
        <pt x="348" y="89" on="1"/>
        <pt x="255" y="91" on="1"/>
        <pt x="175" y="89" on="1"/>
        <pt x="160" y="0" on="1"/>
        <pt x="13" y="0" on="1"/>
        <pt x="183" y="508" on="1"/>
        <pt x="363" y="508" on="1"/>
        <pt x="517" y="0" on="1"/>
      </contour>
      <contour>
        <pt x="274" y="373" on="1"/>
        <pt x="265" y="373" on="1"/>
        <pt x="210" y="201" on="1"/>
        <pt x="264" y="200" on="1"/>
        <pt x="319" y="201" on="1"/>
      </contour>
    </TTGlyph>
    <TTGlyph name="acute" xMin="65" yMin="520" xMax="325" yMax="737">
      <contour>
        <pt x="325" y="649" on="1"/>
        <pt x="322" y="635" on="1"/>
        <pt x="223" y="578" on="0"/>
        <pt x="116" y="520" on="1"/>
        <pt x="102" y="521" on="1"/>
        <pt x="65" y="581" on="1"/>
        <pt x="170" y="661" on="0"/>
        <pt x="254" y="737" on="1"/>
        <pt x="268" y="736" on="1"/>
      </contour>
    </TTGlyph>
    <TTGlyph name="acute.cap" xMin="58" yMin="537" xMax="327" yMax="723">
      <contour>
        <pt x="327" y="625" on="1"/>
        <pt x="322" y="612" on="1"/>
        <pt x="229" y="578" on="0"/>
        <pt x="98" y="537" on="1"/>
        <pt x="83" y="541" on="1"/>
        <pt x="58" y="607" on="1"/>
        <pt x="166" y="660" on="0"/>
        <pt x="273" y="723" on="1"/>
        <pt x="287" y="720" on="1"/>
      </contour>
    </TTGlyph>
    <TTGlyph name="adieresis" xMin="13" yMin="0" xMax="517" yMax="739">
      <contour>
        <pt x="149" y="590" on="0"/>
        <pt x="112" y="627" on="0"/>
        <pt x="112" y="661" on="1"/>
        <pt x="112" y="697" on="0"/>
        <pt x="153" y="739" on="0"/>
        <pt x="188" y="739" on="1"/>
        <pt x="221" y="739" on="0"/>
        <pt x="258" y="701" on="0"/>
        <pt x="258" y="668" on="1"/>
        <pt x="258" y="632" on="0"/>
        <pt x="218" y="590" on="0"/>
        <pt x="183" y="590" on="1"/>
      </contour>
      <contour>
        <pt x="331" y="590" on="0"/>
        <pt x="294" y="627" on="0"/>
        <pt x="294" y="661" on="1"/>
        <pt x="294" y="697" on="0"/>
        <pt x="335" y="739" on="0"/>
        <pt x="370" y="739" on="1"/>
        <pt x="403" y="739" on="0"/>
        <pt x="440" y="701" on="0"/>
        <pt x="440" y="668" on="1"/>
        <pt x="440" y="632" on="0"/>
        <pt x="400" y="590" on="0"/>
        <pt x="365" y="590" on="1"/>
      </contour>
      <contour>
        <pt x="364" y="0" on="1"/>
        <pt x="350" y="81" on="1"/>
        <pt x="348" y="89" on="1"/>
        <pt x="255" y="91" on="1"/>
        <pt x="175" y="89" on="1"/>
        <pt x="160" y="0" on="1"/>
        <pt x="13" y="0" on="1"/>
        <pt x="183" y="508" on="1"/>
        <pt x="363" y="508" on="1"/>
        <pt x="517" y="0" on="1"/>
      </contour>
      <contour>
        <pt x="274" y="373" on="1"/>
        <pt x="265" y="373" on="1"/>
        <pt x="210" y="201" on="1"/>
        <pt x="264" y="200" on="1"/>
        <pt x="319" y="201" on="1"/>
      </contour>
    </TTGlyph>
    <TTGlyph name="adotbelow" xMin="13" yMin="-210" xMax="517" yMax="508">
      <contour>
        <pt x="364" y="0" on="1"/>
        <pt x="350" y="81" on="1"/>
        <pt x="348" y="89" on="1"/>
        <pt x="255" y="91" on="1"/>
        <pt x="175" y="89" on="1"/>
        <pt x="160" y="0" on="1"/>
        <pt x="13" y="0" on="1"/>
        <pt x="183" y="508" on="1"/>
        <pt x="363" y="508" on="1"/>
        <pt x="517" y="0" on="1"/>
      </contour>
      <contour>
        <pt x="274" y="373" on="1"/>
        <pt x="265" y="373" on="1"/>
        <pt x="210" y="201" on="1"/>
        <pt x="264" y="200" on="1"/>
        <pt x="319" y="201" on="1"/>
      </contour>
      <contour>
        <pt x="304" y="-44" on="0"/>
        <pt x="345" y="-86" on="0"/>
        <pt x="345" y="-123" on="1"/>
        <pt x="345" y="-163" on="0"/>
        <pt x="299" y="-210" on="0"/>
        <pt x="261" y="-210" on="1"/>
        <pt x="223" y="-210" on="0"/>
        <pt x="183" y="-168" on="0"/>
        <pt x="183" y="-130" on="1"/>
        <pt x="183" y="-91" on="0"/>
        <pt x="228" y="-44" on="0"/>
        <pt x="267" y="-44" on="1"/>
      </contour>
    </TTGlyph>
    <TTGlyph name="ae" xMin="-7" yMin="0" xMax="707" yMax="508">
      <contour>
        <pt x="698" y="0" on="1"/>
        <pt x="352" y="0" on="1"/>
        <pt x="348" y="77" on="1"/>
        <pt x="339" y="151" on="1"/>
        <pt x="163" y="102" on="1"/>
        <pt x="155" y="85" on="1"/>
        <pt x="129" y="0" on="1"/>
        <pt x="-7" y="0" on="1"/>
        <pt x="243" y="508" on="1"/>
        <pt x="644" y="508" on="1"/>
        <pt x="653" y="497" on="1"/>
        <pt x="643" y="395" on="1"/>
        <pt x="513" y="401" on="1"/>
        <pt x="444" y="401" on="1"/>
        <pt x="457" y="290" on="1"/>
        <pt x="613" y="332" on="1"/>
        <pt x="622" y="324" on="1"/>
        <pt x="634" y="226" on="1"/>
        <pt x="468" y="185" on="1"/>
        <pt x="477" y="108" on="1"/>
        <pt x="559" y="108" on="1"/>
        <pt x="699" y="113" on="1"/>
        <pt x="707" y="103" on="1"/>
      </contour>
      <contour>
        <pt x="312" y="382" on="1"/>
        <pt x="303" y="382" on="1"/>
        <pt x="225" y="226" on="1"/>
        <pt x="327" y="254" on="1"/>
      </contour>
    </TTGlyph>
    <TTGlyph name="aeacute" xMin="-7" yMin="0" xMax="707" yMax="776">
      <component glyphName="ae" x="0" y="0" flags="0x1000"/>
      <component glyphName="acute" x="248" y="39" flags="0x1000"/>
    </TTGlyph>
    <TTGlyph name="agrave" xMin="13" yMin="0" xMax="517" yMax="778">
      <contour>
        <pt x="247" y="619" on="0"/>
        <pt x="148" y="676" on="1"/>
        <pt x="145" y="690" on="1"/>
        <pt x="202" y="777" on="1"/>
        <pt x="216" y="778" on="1"/>
        <pt x="300" y="702" on="0"/>
        <pt x="405" y="622" on="1"/>
        <pt x="368" y="562" on="1"/>
        <pt x="354" y="561" on="1"/>
      </contour>
      <contour>
        <pt x="364" y="0" on="1"/>
        <pt x="350" y="81" on="1"/>
        <pt x="348" y="89" on="1"/>
        <pt x="255" y="91" on="1"/>
        <pt x="175" y="89" on="1"/>
        <pt x="160" y="0" on="1"/>
        <pt x="13" y="0" on="1"/>
        <pt x="183" y="508" on="1"/>
        <pt x="363" y="508" on="1"/>
        <pt x="517" y="0" on="1"/>
      </contour>
      <contour>
        <pt x="274" y="373" on="1"/>
        <pt x="265" y="373" on="1"/>
        <pt x="210" y="201" on="1"/>
        <pt x="264" y="200" on="1"/>
        <pt x="319" y="201" on="1"/>
      </contour>
    </TTGlyph>
    <TTGlyph name="ahookabove" xMin="13" yMin="0" xMax="516" yMax="794">
      <component glyphName="a" x="0" y="0" flags="0x1000"/>
      <component glyphName="hookabove" x="81" y="40" flags="0x1000"/>
    </TTGlyph>
    <TTGlyph name="amacron" xMin="13" yMin="0" xMax="516" yMax="714">
      <component glyphName="a" x="0" y="0" flags="0x1000"/>
      <component glyphName="macron" x="81" y="41" flags="0x1000"/>
    </TTGlyph>
    <TTGlyph name="ampersand" xMin="25" yMin="-12" xMax="707" yMax="712">
      <contour>
        <pt x="695" y="270" on="1"/>
        <pt x="683" y="172" on="1"/>
        <pt x="548" y="172" on="1"/>
        <pt x="494" y="-12" on="0"/>
        <pt x="292" y="-12" on="1"/>
        <pt x="166" y="-12" on="0"/>
        <pt x="25" y="128" on="0"/>
        <pt x="25" y="254" on="1"/>
        <pt x="25" y="333" on="0"/>
        <pt x="81" y="452" on="0"/>
        <pt x="185" y="517" on="0"/>
        <pt x="255" y="517" on="1"/>
        <pt x="320" y="517" on="0"/>
        <pt x="387" y="464" on="0"/>
        <pt x="387" y="420" on="1"/>
        <pt x="387" y="417" on="1"/>
        <pt x="561" y="551" on="0"/>
        <pt x="633" y="712" on="1"/>
        <pt x="646" y="712" on="1"/>
        <pt x="691" y="668" on="0"/>
        <pt x="707" y="612" on="1"/>
        <pt x="682" y="550" on="0"/>
        <pt x="516" y="382" on="0"/>
        <pt x="288" y="221" on="0"/>
        <pt x="174" y="170" on="1"/>
        <pt x="209" y="98" on="0"/>
        <pt x="302" y="98" on="1"/>
        <pt x="376" y="98" on="0"/>
        <pt x="455" y="187" on="0"/>
        <pt x="460" y="272" on="1"/>
        <pt x="470" y="282" on="1"/>
        <pt x="686" y="282" on="1"/>
      </contour>
      <contour>
        <pt x="207" y="418" on="0"/>
        <pt x="158" y="345" on="0"/>
        <pt x="156" y="279" on="1"/>
        <pt x="213" y="304" on="0"/>
        <pt x="260" y="332" on="1"/>
        <pt x="291" y="352" on="0"/>
        <pt x="291" y="382" on="1"/>
        <pt x="291" y="418" on="0"/>
        <pt x="250" y="418" on="1"/>
      </contour>
    </TTGlyph>
</ttFont>
